SplineFontDB: 3.2
FontName: NotoSansBamum-Regular
FullName: Noto Sans Bamum Regular
FamilyName: Noto Sans Bamum
Weight: Book
Copyright: Copyright 2017 Google Inc. All Rights Reserved.
Version: 2.000; ttfautohint (v1.8.3) -l 8 -r 50 -G 200 -x 14 -D bamu -f none -a qsq -X ""
ItalicAngle: 0
UnderlinePosition: -125
UnderlineWidth: 50
Ascent: 800
Descent: 200
InvalidEm: 0
sfntRevision: 0x00020000
LayerCount: 2
Layer: 0 1 "+BBcEMAQ0BD0EOAQ5 +BD8EOwQwBD0A" 1
Layer: 1 1 "+BB8ENQRABDUENAQ9BDgEOQAA +BD8EOwQwBD0A" 0
XUID: [1021 59 1751208496 3389]
StyleMap: 0x0040
FSType: 0
OS2Version: 4
OS2_WeightWidthSlopeOnly: 1
OS2_UseTypoMetrics: 0
CreationTime: 1587969091
ModificationTime: 1632290688
PfmFamily: 17
TTFWeight: 400
TTFWidth: 5
LineGap: 0
VLineGap: 0
Panose: 2 11 5 2 4 5 4 2 2 4
OS2TypoAscent: 1069
OS2TypoAOffset: 0
OS2TypoDescent: -293
OS2TypoDOffset: 0
OS2TypoLinegap: 0
OS2WinAscent: 1069
OS2WinAOffset: 0
OS2WinDescent: 293
OS2WinDOffset: 0
HheadAscent: 1069
HheadAOffset: 0
HheadDescent: -293
HheadDOffset: 0
OS2SubXSize: 650
OS2SubYSize: 600
OS2SubXOff: 0
OS2SubYOff: 75
OS2SupXSize: 650
OS2SupYSize: 600
OS2SupXOff: 0
OS2SupYOff: 350
OS2StrikeYSize: 50
OS2StrikeYPos: 322
OS2CapHeight: 714
OS2XHeight: 536
OS2Vendor: 'GOOG'
OS2CodePages: 00000001.00000000
OS2UnicodeRanges: 00000003.02000000.00000000.00000000
DEI: 91125
TtTable: prep
SVTCA[y-axis]
MPPEM
PUSHW_1
 200
GT
IF
PUSHB_2
 1
 1
INSTCTRL
EIF
PUSHB_1
 1
PUSHW_2
 2048
 2048
MUL
WCVTF
PUSHB_2
 0
 7
WS
PUSHB_3
 0
 1
 0
LOOPCALL
PUSHB_2
 0
 7
WS
PUSHB_4
 12
 4
 1
 10
LOOPCALL
PUSHB_2
 0
 7
WS
PUSHB_4
 16
 2
 1
 10
LOOPCALL
PUSHB_2
 0
 8
WS
PUSHW_3
 832
 1
 11
LOOPCALL
PUSHB_2
 0
 9
WS
PUSHW_3
 64
 1
 11
LOOPCALL
PUSHW_2
 3
 0
WCVTP
PUSHB_2
 36
 1
GETINFO
LTEQ
IF
PUSHB_1
 64
GETINFO
IF
PUSHW_2
 3
 100
WCVTP
PUSHB_2
 40
 1
GETINFO
LTEQ
IF
PUSHW_1
 2048
GETINFO
IF
PUSHW_2
 3
 0
WCVTP
EIF
ELSE
PUSHB_2
 39
 1
GETINFO
LTEQ
IF
PUSHW_3
 2176
 1
 1088
GETINFO
MUL
EQ
IF
PUSHW_2
 3
 0
WCVTP
EIF
EIF
EIF
EIF
EIF
PUSHB_4
 14
 2
 1
 14

StartChar: .notdef
Encoding: 661 -1 0
Width: 600
Flags: W
LayerCount: 2
Fore
SplineSet
94 0 m 1,0,-1
 94 714 l 1,1,-1
 505 714 l 1,2,-1
 505 0 l 1,3,-1
 94 0 l 1,0,-1
145 51 m 1,4,-1
 454 51 l 1,5,-1
 454 663 l 1,6,-1
 145 663 l 1,7,-1
 145 51 l 1,4,-1
EndSplineSet
EndChar

StartChar: uniA6A0
Encoding: 4 42656 1
Width: 660
Flags: W
LayerCount: 2
Fore
SplineSet
261 -10 m 0,0,1
 189 -10 189 -10 144 21.5 c 128,-1,2
 99 53 99 53 77.5 105 c 128,-1,3
 56 157 56 157 56 220 c 0,4,5
 56 250 56 250 60 279.5 c 128,-1,6
 64 309 64 309 70 334 c 1,7,-1
 153 334 l 1,8,9
 148 301 148 301 146 273.5 c 128,-1,10
 144 246 144 246 144 228 c 0,11,12
 144 148 144 148 175 104.5 c 128,-1,13
 206 61 206 61 263 61 c 0,14,15
 334 61 334 61 364 116 c 128,-1,16
 394 171 394 171 394 280 c 0,17,18
 394 492 394 492 323 714 c 1,19,-1
 421 714 l 1,20,-1
 649 492 l 1,21,-1
 596 437 l 1,22,-1
 496 536 l 2,23,24
 482 550 482 550 462 574 c 128,-1,25
 442 598 442 598 431 613 c 1,26,27
 463 525 463 525 472.5 447.5 c 128,-1,28
 482 370 482 370 482 290 c 0,29,30
 482 204 482 204 461.5 136 c 128,-1,31
 441 68 441 68 393 29 c 128,-1,32
 345 -10 345 -10 261 -10 c 0,0,1
EndSplineSet
EndChar

StartChar: uniA6A1
Encoding: 5 42657 2
Width: 768
Flags: W
LayerCount: 2
Fore
SplineSet
98 0 m 1,0,-1
 98 714 l 1,1,-1
 182 714 l 1,2,-1
 182 322 l 2,3,4
 182 289 182 289 181 248 c 128,-1,5
 180 207 180 207 178.5 173 c 128,-1,6
 177 139 177 139 175 123 c 1,7,-1
 179 123 l 1,8,-1
 572 714 l 1,9,-1
 672 714 l 1,10,-1
 672 0 l 1,11,-1
 588 0 l 1,12,-1
 588 388 l 2,13,14
 588 425 588 425 589.5 467 c 128,-1,15
 591 509 591 509 593 544 c 128,-1,16
 595 579 595 579 596 594 c 1,17,-1
 592 594 l 1,18,-1
 198 0 l 1,19,-1
 98 0 l 1,0,-1
EndSplineSet
EndChar

StartChar: uniA6A2
Encoding: 6 42658 3
Width: 546
Flags: W
LayerCount: 2
Fore
SplineSet
124 643 m 1,0,-1
 124 714 l 1,1,-1
 421 714 l 1,2,-1
 421 643 l 1,3,-1
 124 643 l 1,0,-1
124 523 m 1,4,-1
 124 594 l 1,5,-1
 421 594 l 1,6,-1
 421 523 l 1,7,-1
 124 523 l 1,4,-1
271 -10 m 0,8,9
 209 -10 209 -10 160 19 c 128,-1,10
 111 48 111 48 83 102.5 c 128,-1,11
 55 157 55 157 55 235 c 0,12,13
 55 352 55 352 114 415.5 c 128,-1,14
 173 479 173 479 274 479 c 0,15,16
 338 479 338 479 386.5 450.5 c 128,-1,17
 435 422 435 422 463 367.5 c 128,-1,18
 491 313 491 313 491 235 c 0,19,20
 491 118 491 118 431.5 54 c 128,-1,21
 372 -10 372 -10 271 -10 c 0,8,9
273 63 m 0,22,23
 338 63 338 63 369 109.5 c 128,-1,24
 400 156 400 156 400 235 c 0,25,26
 400 315 400 315 369 360 c 128,-1,27
 338 405 338 405 272 405 c 256,28,29
 206 405 206 405 176 360 c 128,-1,30
 146 315 146 315 146 235 c 0,31,32
 146 156 146 156 176.5 109.5 c 128,-1,33
 207 63 207 63 273 63 c 0,22,23
EndSplineSet
EndChar

StartChar: uniA6A3
Encoding: 7 42659 4
Width: 656
Flags: W
LayerCount: 2
Fore
SplineSet
510 714 m 1,0,-1
 613 714 l 1,1,-1
 217 0 l 1,2,-1
 114 0 l 1,3,-1
 289 314 l 1,4,5
 254 328 254 328 215.5 355 c 128,-1,6
 177 382 177 382 143.5 418.5 c 128,-1,7
 110 455 110 455 89.5 498 c 128,-1,8
 69 541 69 541 69 587 c 0,9,10
 69 658 69 658 109.5 691.5 c 128,-1,11
 150 725 150 725 206 725 c 0,12,13
 244 725 244 725 286 707 c 128,-1,14
 328 689 328 689 368.5 658 c 128,-1,15
 409 627 409 627 440 588 c 1,16,-1
 510 714 l 1,0,-1
155 587 m 0,17,18
 155 565 155 565 172 535 c 128,-1,19
 189 505 189 505 216 475.5 c 128,-1,20
 243 446 243 446 273.5 423 c 128,-1,21
 304 400 304 400 331 391 c 1,22,-1
 390 497 l 1,23,24
 375 521 375 521 351.5 546 c 128,-1,25
 328 571 328 571 301.5 592 c 128,-1,26
 275 613 275 613 250 626 c 128,-1,27
 225 639 225 639 206 639 c 0,28,29
 184 639 184 639 169.5 624.5 c 128,-1,30
 155 610 155 610 155 587 c 0,17,18
562 270 m 0,31,32
 536 270 536 270 518 286.5 c 128,-1,33
 500 303 500 303 500 337 c 0,34,35
 500 372 500 372 518 388 c 128,-1,36
 536 404 536 404 562 404 c 0,37,38
 587 404 587 404 605.5 388 c 128,-1,39
 624 372 624 372 624 337 c 0,40,41
 624 303 624 303 605.5 286.5 c 128,-1,42
 587 270 587 270 562 270 c 0,31,32
EndSplineSet
EndChar

StartChar: uniA6A4
Encoding: 8 42660 5
Width: 707
Flags: W
LayerCount: 2
Fore
SplineSet
306 603 m 0,0,1
 284 603 284 603 269 617 c 128,-1,2
 254 631 254 631 254 659 c 0,3,4
 254 688 254 688 269 701.5 c 128,-1,5
 284 715 284 715 306 715 c 0,6,7
 326 715 326 715 341.5 701.5 c 128,-1,8
 357 688 357 688 357 659 c 0,9,10
 357 631 357 631 341.5 617 c 128,-1,11
 326 603 326 603 306 603 c 0,0,1
543 392 m 0,12,13
 606 392 606 392 643 363.5 c 128,-1,14
 680 335 680 335 696.5 291.5 c 128,-1,15
 713 248 713 248 713 202 c 0,16,17
 713 131 713 131 682 83.5 c 128,-1,18
 651 36 651 36 600 13 c 128,-1,19
 549 -10 549 -10 488 -10 c 0,20,21
 407 -10 407 -10 352 24 c 128,-1,22
 297 58 297 58 264 110 c 1,23,24
 236 56 236 56 176 28 c 128,-1,25
 116 0 116 0 48 0 c 2,26,-1
 7 0 l 1,27,-1
 7 78 l 1,28,-1
 50 78 l 2,29,30
 133 78 133 78 173 135 c 128,-1,31
 213 192 213 192 223 285 c 2,32,-1
 250 536 l 1,33,-1
 340 536 l 1,34,-1
 320 346 l 2,35,36
 316 301 316 301 315 271.5 c 128,-1,37
 314 242 314 242 314 235 c 0,38,39
 314 183 314 183 337.5 144 c 128,-1,40
 361 105 361 105 399 84 c 128,-1,41
 437 63 437 63 482 63 c 0,42,43
 557 63 557 63 590.5 104.5 c 128,-1,44
 624 146 624 146 624 207 c 0,45,46
 624 257 624 257 601.5 287.5 c 128,-1,47
 579 318 579 318 547 318 c 0,48,49
 513 318 513 318 493.5 291.5 c 128,-1,50
 474 265 474 265 474 206 c 2,51,-1
 474 190 l 1,52,-1
 384 190 l 1,53,-1
 384 197 l 2,54,55
 384 262 384 262 405.5 305.5 c 128,-1,56
 427 349 427 349 463.5 370.5 c 128,-1,57
 500 392 500 392 543 392 c 0,12,13
EndSplineSet
EndChar

StartChar: uniA6A5
Encoding: 9 42661 6
Width: 617
Flags: W
LayerCount: 2
Fore
SplineSet
97 184 m 1,0,-1
 97 714 l 1,1,-1
 187 714 l 1,2,-1
 187 263 l 1,3,-1
 568 263 l 1,4,-1
 568 184 l 1,5,-1
 97 184 l 1,0,-1
334 335 m 0,6,7
 312 335 312 335 297 349 c 128,-1,8
 282 363 282 363 282 391 c 0,9,10
 282 420 282 420 297 433.5 c 128,-1,11
 312 447 312 447 334 447 c 0,12,13
 354 447 354 447 369.5 433.5 c 128,-1,14
 385 420 385 420 385 391 c 0,15,16
 385 363 385 363 369.5 349 c 128,-1,17
 354 335 354 335 334 335 c 0,6,7
334 0 m 0,18,19
 312 0 312 0 297 14 c 128,-1,20
 282 28 282 28 282 56 c 0,21,22
 282 85 282 85 297 98.5 c 128,-1,23
 312 112 312 112 334 112 c 0,24,25
 354 112 354 112 369.5 98.5 c 128,-1,26
 385 85 385 85 385 56 c 0,27,28
 385 28 385 28 369.5 14 c 128,-1,29
 354 0 354 0 334 0 c 0,18,19
EndSplineSet
EndChar

StartChar: uniA6A6
Encoding: 10 42662 7
Width: 578
Flags: W
LayerCount: 2
Fore
SplineSet
231 602 m 0,0,1
 209 602 209 602 194 616 c 128,-1,2
 179 630 179 630 179 658 c 0,3,4
 179 687 179 687 194 700.5 c 128,-1,5
 209 714 209 714 231 714 c 0,6,7
 251 714 251 714 266.5 700.5 c 128,-1,8
 282 687 282 687 282 658 c 0,9,10
 282 630 282 630 266.5 616 c 128,-1,11
 251 602 251 602 231 602 c 0,0,1
79 197 m 1,12,-1
 79 276 l 1,13,-1
 285 276 l 2,14,15
 370 276 370 276 406 296.5 c 128,-1,16
 442 317 442 317 442 357 c 256,17,18
 442 397 442 397 408 417 c 128,-1,19
 374 437 374 437 285 437 c 2,20,-1
 79 437 l 1,21,-1
 79 516 l 1,22,-1
 285 516 l 2,23,24
 382 516 382 516 436 495 c 128,-1,25
 490 474 490 474 511.5 438 c 128,-1,26
 533 402 533 402 533 357 c 0,27,28
 533 328 533 328 522 299.5 c 128,-1,29
 511 271 511 271 484 248 c 128,-1,30
 457 225 457 225 408.5 211 c 128,-1,31
 360 197 360 197 285 197 c 2,32,-1
 79 197 l 1,12,-1
231 0 m 0,33,34
 209 0 209 0 194 14 c 128,-1,35
 179 28 179 28 179 56 c 0,36,37
 179 85 179 85 194 98.5 c 128,-1,38
 209 112 209 112 231 112 c 0,39,40
 251 112 251 112 266.5 98.5 c 128,-1,41
 282 85 282 85 282 56 c 0,42,43
 282 28 282 28 266.5 14 c 128,-1,44
 251 0 251 0 231 0 c 0,33,34
EndSplineSet
EndChar

StartChar: uniA6A7
Encoding: 11 42663 8
Width: 606
Flags: W
LayerCount: 2
Fore
SplineSet
343 381 m 1,0,-1
 604 0 l 1,1,-1
 493 0 l 1,2,-1
 344 217 l 2,3,4
 328 240 328 240 316 259.5 c 128,-1,5
 304 279 304 279 292 300 c 1,6,7
 205 156 205 156 121 0 c 1,8,-1
 18 0 l 1,9,10
 88 127 88 127 151.5 234 c 128,-1,11
 215 341 215 341 280 439 c 128,-1,12
 345 537 345 537 418 636 c 1,13,-1
 76 636 l 1,14,-1
 76 714 l 1,15,-1
 544 714 l 1,16,-1
 544 671 l 1,17,18
 493 605 493 605 443 532.5 c 128,-1,19
 393 460 393 460 343 381 c 1,0,-1
EndSplineSet
EndChar

StartChar: uniA6A8
Encoding: 12 42664 9
Width: 550
Flags: W
LayerCount: 2
Fore
SplineSet
488 714 m 1,0,-1
 488 671 l 1,1,2
 462 556 462 556 446 434.5 c 128,-1,3
 430 313 430 313 430 181 c 0,4,5
 430 137 430 137 432 92 c 128,-1,6
 434 47 434 47 438 0 c 1,7,-1
 349 0 l 1,8,9
 346 71 346 71 346 136 c 0,10,11
 346 274 346 274 359 395.5 c 128,-1,12
 372 517 372 517 397 636 c 1,13,-1
 20 636 l 1,14,-1
 20 714 l 1,15,-1
 488 714 l 1,0,-1
EndSplineSet
EndChar

StartChar: uniA6A9
Encoding: 13 42665 10
Width: 725
Flags: W
LayerCount: 2
Fore
SplineSet
361 168 m 256,0,1
 273 168 273 168 204 202.5 c 128,-1,2
 135 237 135 237 95 302 c 128,-1,3
 55 367 55 367 55 460 c 0,4,5
 55 541 55 541 84 603.5 c 128,-1,6
 113 666 113 666 157 720 c 1,7,-1
 225 673 l 1,8,9
 188 624 188 624 165.5 575.5 c 128,-1,10
 143 527 143 527 143 457 c 0,11,12
 143 401 143 401 164.5 351.5 c 128,-1,13
 186 302 186 302 233 271.5 c 128,-1,14
 280 241 280 241 356 241 c 0,15,16
 443 241 443 241 492 274 c 128,-1,17
 541 307 541 307 561 359.5 c 128,-1,18
 581 412 581 412 581 472 c 0,19,20
 581 556 581 556 555 604 c 128,-1,21
 529 652 529 652 485 652 c 0,22,23
 464 652 464 652 442.5 641 c 128,-1,24
 421 630 421 630 407 601.5 c 128,-1,25
 393 573 393 573 393 520 c 0,26,27
 393 484 393 484 398 449 c 128,-1,28
 403 414 403 414 410 388 c 1,29,-1
 323 388 l 1,30,31
 317 411 317 411 312 442 c 128,-1,32
 307 473 307 473 307 520 c 0,33,34
 307 598 307 598 333.5 642.5 c 128,-1,35
 360 687 360 687 400 706 c 128,-1,36
 440 725 440 725 481 725 c 0,37,38
 570 725 570 725 620 656.5 c 128,-1,39
 670 588 670 588 670 467 c 0,40,41
 670 370 670 370 629 303.5 c 128,-1,42
 588 237 588 237 518.5 202.5 c 128,-1,43
 449 168 449 168 361 168 c 256,0,1
369 0 m 0,44,45
 347 0 347 0 332 14 c 128,-1,46
 317 28 317 28 317 56 c 0,47,48
 317 85 317 85 332 98.5 c 128,-1,49
 347 112 347 112 369 112 c 0,50,51
 389 112 389 112 404.5 98.5 c 128,-1,52
 420 85 420 85 420 56 c 0,53,54
 420 28 420 28 404.5 14 c 128,-1,55
 389 0 389 0 369 0 c 0,44,45
EndSplineSet
EndChar

StartChar: uniA6AA
Encoding: 14 42666 11
Width: 659
Flags: W
LayerCount: 2
Fore
SplineSet
428 725 m 0,0,1
 520 725 520 725 568 675 c 128,-1,2
 616 625 616 625 616 548 c 0,3,4
 616 468 616 468 558.5 416 c 128,-1,5
 501 364 501 364 398 364 c 0,6,7
 363 364 363 364 328 367 c 1,8,-1
 328 0 l 1,9,-1
 239 0 l 1,10,-1
 239 380 l 1,11,12
 175 392 175 392 118 413 c 128,-1,13
 61 434 61 434 20 459 c 1,14,-1
 55 529 l 1,15,16
 98 508 98 508 143.5 490 c 128,-1,17
 189 472 189 472 239 460 c 1,18,-1
 239 493 l 2,19,20
 239 617 239 617 291.5 671 c 128,-1,21
 344 725 344 725 428 725 c 0,0,1
392 442 m 0,22,23
 459 442 459 442 493 472 c 128,-1,24
 527 502 527 502 527 552 c 0,25,26
 527 587 527 587 503.5 617 c 128,-1,27
 480 647 480 647 429 647 c 0,28,29
 403 647 403 647 379.5 634 c 128,-1,30
 356 621 356 621 342 587 c 128,-1,31
 328 553 328 553 328 489 c 2,32,-1
 328 445 l 1,33,34
 358 442 358 442 392 442 c 0,22,23
453 202 m 0,35,36
 431 202 431 202 416 216 c 128,-1,37
 401 230 401 230 401 258 c 0,38,39
 401 287 401 287 416 300.5 c 128,-1,40
 431 314 431 314 453 314 c 0,41,42
 473 314 473 314 488.5 300.5 c 128,-1,43
 504 287 504 287 504 258 c 0,44,45
 504 230 504 230 488.5 216 c 128,-1,46
 473 202 473 202 453 202 c 0,35,36
453 40 m 0,47,48
 431 40 431 40 416 54 c 128,-1,49
 401 68 401 68 401 96 c 0,50,51
 401 125 401 125 416 138.5 c 128,-1,52
 431 152 431 152 453 152 c 0,53,54
 473 152 473 152 488.5 138.5 c 128,-1,55
 504 125 504 125 504 96 c 0,56,57
 504 68 504 68 488.5 54 c 128,-1,58
 473 40 473 40 453 40 c 0,47,48
EndSplineSet
EndChar

StartChar: uniA6AB
Encoding: 15 42667 12
Width: 600
Flags: W
LayerCount: 2
Fore
SplineSet
265 0 m 1,0,-1
 334 459 l 2,1,2
 341 506 341 506 349 546 c 128,-1,3
 357 586 357 586 365 620 c 1,4,5
 340 595 340 595 307.5 574 c 128,-1,6
 275 553 275 553 234 527 c 2,7,-1
 82 431 l 1,8,-1
 37 506 l 1,9,-1
 372 714 l 1,10,-1
 458 714 l 1,11,-1
 357 0 l 1,12,-1
 265 0 l 1,0,-1
529 468 m 0,13,14
 507 468 507 468 492 482 c 128,-1,15
 477 496 477 496 477 524 c 0,16,17
 477 553 477 553 492 566.5 c 128,-1,18
 507 580 507 580 529 580 c 0,19,20
 549 580 549 580 564.5 566.5 c 128,-1,21
 580 553 580 553 580 524 c 0,22,23
 580 496 580 496 564.5 482 c 128,-1,24
 549 468 549 468 529 468 c 0,13,14
213 324 m 0,25,26
 191 324 191 324 176 338 c 128,-1,27
 161 352 161 352 161 380 c 0,28,29
 161 409 161 409 176 422.5 c 128,-1,30
 191 436 191 436 213 436 c 0,31,32
 233 436 233 436 248.5 422.5 c 128,-1,33
 264 409 264 409 264 380 c 0,34,35
 264 352 264 352 248.5 338 c 128,-1,36
 233 324 233 324 213 324 c 0,25,26
EndSplineSet
EndChar

StartChar: uniA6AC
Encoding: 16 42668 13
Width: 661
Flags: W
LayerCount: 2
Fore
SplineSet
122 602 m 0,0,1
 100 602 100 602 85 616 c 128,-1,2
 70 630 70 630 70 658 c 0,3,4
 70 687 70 687 85 700.5 c 128,-1,5
 100 714 100 714 122 714 c 0,6,7
 142 714 142 714 157.5 700.5 c 128,-1,8
 173 687 173 687 173 658 c 0,9,10
 173 630 173 630 157.5 616 c 128,-1,11
 142 602 142 602 122 602 c 0,0,1
176 0 m 1,12,-1
 157 129 l 2,13,14
 147 194 147 194 140 259 c 128,-1,15
 133 324 133 324 133 396 c 0,16,17
 133 494 133 494 170 554.5 c 128,-1,18
 207 615 207 615 267 643 c 128,-1,19
 327 671 327 671 396 671 c 0,20,21
 457 671 457 671 508 648 c 128,-1,22
 559 625 559 625 590 578 c 128,-1,23
 621 531 621 531 621 459 c 0,24,25
 621 414 621 414 604.5 370 c 128,-1,26
 588 326 588 326 551 297.5 c 128,-1,27
 514 269 514 269 451 269 c 0,28,29
 413 269 413 269 376 285.5 c 128,-1,30
 339 302 339 302 315.5 341 c 128,-1,31
 292 380 292 380 292 446 c 0,32,33
 292 452 292 452 292.5 458.5 c 128,-1,34
 293 465 293 465 294 471 c 1,35,-1
 383 471 l 1,36,37
 382 465 382 465 382 448 c 0,38,39
 382 395 382 395 401.5 369 c 128,-1,40
 421 343 421 343 455 343 c 0,41,42
 487 343 487 343 509.5 374 c 128,-1,43
 532 405 532 405 532 454 c 0,44,45
 532 515 532 515 498.5 556.5 c 128,-1,46
 465 598 465 598 390 598 c 0,47,48
 343 598 343 598 304.5 577.5 c 128,-1,49
 266 557 266 557 244 512.5 c 128,-1,50
 222 468 222 468 222 396 c 0,51,52
 222 338 222 338 229.5 275.5 c 128,-1,53
 237 213 237 213 244 158 c 2,54,-1
 266 0 l 1,55,-1
 176 0 l 1,12,-1
EndSplineSet
EndChar

StartChar: uniA6AD
Encoding: 17 42669 14
Width: 572
Flags: W
LayerCount: 2
Fore
SplineSet
36 0 m 1,0,-1
 36 74 l 1,1,-1
 187 267 l 1,2,-1
 53 425 l 1,3,-1
 53 500 l 1,4,-1
 384 500 l 1,5,-1
 384 714 l 1,6,-1
 474 714 l 1,7,-1
 474 0 l 1,8,-1
 36 0 l 1,0,-1
135 78 m 1,9,10
 173 78 173 78 215.5 78.5 c 128,-1,11
 258 79 258 79 298 79 c 2,12,-1
 384 79 l 1,13,-1
 384 420 l 1,14,-1
 256 420 l 2,15,16
 234 420 234 420 203 420 c 128,-1,17
 172 420 172 420 156 421 c 1,18,-1
 287 268 l 1,19,-1
 135 78 l 1,9,10
EndSplineSet
EndChar

StartChar: uniA6AE
Encoding: 18 42670 15
Width: 549
Flags: W
LayerCount: 2
Fore
SplineSet
97 0 m 1,0,-1
 97 276 l 1,1,-1
 256 276 l 2,2,3
 341 276 341 276 377 296.5 c 128,-1,4
 413 317 413 317 413 357 c 256,5,6
 413 397 413 397 379 417 c 128,-1,7
 345 437 345 437 256 437 c 2,8,-1
 97 437 l 1,9,-1
 97 714 l 1,10,-1
 187 714 l 1,11,-1
 187 516 l 1,12,-1
 256 516 l 2,13,14
 353 516 353 516 407 495 c 128,-1,15
 461 474 461 474 482.5 438 c 128,-1,16
 504 402 504 402 504 357 c 0,17,18
 504 328 504 328 493 299.5 c 128,-1,19
 482 271 482 271 455 248 c 128,-1,20
 428 225 428 225 379.5 211 c 128,-1,21
 331 197 331 197 256 197 c 2,22,-1
 187 197 l 1,23,-1
 187 0 l 1,24,-1
 97 0 l 1,0,-1
322 602 m 0,25,26
 300 602 300 602 285 616 c 128,-1,27
 270 630 270 630 270 658 c 0,28,29
 270 687 270 687 285 700.5 c 128,-1,30
 300 714 300 714 322 714 c 0,31,32
 342 714 342 714 357.5 700.5 c 128,-1,33
 373 687 373 687 373 658 c 0,34,35
 373 630 373 630 357.5 616 c 128,-1,36
 342 602 342 602 322 602 c 0,25,26
322 0 m 0,37,38
 300 0 300 0 285 14 c 128,-1,39
 270 28 270 28 270 56 c 0,40,41
 270 85 270 85 285 98.5 c 128,-1,42
 300 112 300 112 322 112 c 0,43,44
 342 112 342 112 357.5 98.5 c 128,-1,45
 373 85 373 85 373 56 c 0,46,47
 373 28 373 28 357.5 14 c 128,-1,48
 342 0 342 0 322 0 c 0,37,38
EndSplineSet
EndChar

StartChar: uniA6AF
Encoding: 19 42671 16
Width: 600
Flags: W
LayerCount: 2
Fore
SplineSet
137 450 m 1,0,-1
 137 544 l 1,1,-1
 495 725 l 1,2,-1
 495 631 l 1,3,-1
 137 450 l 1,0,-1
386 391 m 0,4,5
 364 391 364 391 349 405 c 128,-1,6
 334 419 334 419 334 447 c 0,7,8
 334 476 334 476 349 489.5 c 128,-1,9
 364 503 364 503 386 503 c 0,10,11
 406 503 406 503 421.5 489.5 c 128,-1,12
 437 476 437 476 437 447 c 0,13,14
 437 419 437 419 421.5 405 c 128,-1,15
 406 391 406 391 386 391 c 0,4,5
137 0 m 1,16,-1
 137 388 l 1,17,-1
 228 434 l 1,18,-1
 495 200 l 1,19,-1
 438 137 l 1,20,-1
 324 234 l 2,21,22
 288 265 288 265 266 288.5 c 128,-1,23
 244 312 244 312 221 339 c 1,24,25
 226 305 226 305 226.5 268.5 c 128,-1,26
 227 232 227 232 227 183 c 2,27,-1
 227 0 l 1,28,-1
 137 0 l 1,16,-1
EndSplineSet
EndChar

StartChar: uniA6B0
Encoding: 20 42672 17
Width: 637
Flags: W
LayerCount: 2
Fore
SplineSet
97 0 m 1,0,-1
 97 714 l 1,1,-1
 175 714 l 1,2,-1
 596 533 l 1,3,-1
 596 460 l 1,4,-1
 187 284 l 1,5,-1
 187 0 l 1,6,-1
 97 0 l 1,0,-1
187 377 m 1,7,-1
 366 451 l 2,8,9
 401 465 401 465 433 476 c 128,-1,10
 465 487 465 487 495 496 c 1,11,-1
 495 498 l 1,12,13
 467 505 467 505 442.5 513.5 c 128,-1,14
 418 522 418 522 377 538 c 2,15,-1
 187 616 l 1,16,-1
 187 377 l 1,7,-1
EndSplineSet
EndChar

StartChar: uniA6B1
Encoding: 21 42673 18
Width: 550
Flags: W
LayerCount: 2
Fore
SplineSet
97 0 m 1,0,-1
 97 714 l 1,1,-1
 187 714 l 1,2,-1
 187 412 l 1,3,-1
 500 412 l 1,4,-1
 500 333 l 1,5,-1
 187 333 l 1,6,-1
 187 0 l 1,7,-1
 97 0 l 1,0,-1
EndSplineSet
EndChar

StartChar: uniA6B2
Encoding: 22 42674 19
Width: 566
Flags: W
LayerCount: 2
Fore
SplineSet
238 0 m 1,0,-1
 238 273 l 1,1,-1
 0 714 l 1,2,-1
 98 714 l 1,3,-1
 283 363 l 1,4,-1
 469 714 l 1,5,-1
 566 714 l 1,6,-1
 328 277 l 1,7,-1
 328 0 l 1,8,-1
 238 0 l 1,0,-1
285 602 m 0,9,10
 263 602 263 602 248 616 c 128,-1,11
 233 630 233 630 233 658 c 0,12,13
 233 687 233 687 248 700.5 c 128,-1,14
 263 714 263 714 285 714 c 0,15,16
 305 714 305 714 320.5 700.5 c 128,-1,17
 336 687 336 687 336 658 c 0,18,19
 336 630 336 630 320.5 616 c 128,-1,20
 305 602 305 602 285 602 c 0,9,10
EndSplineSet
EndChar

StartChar: uniA6B3
Encoding: 23 42675 20
Width: 524
Flags: W
LayerCount: 2
Fore
SplineSet
97 0 m 1,0,-1
 97 714 l 1,1,-1
 187 714 l 1,2,-1
 187 78 l 1,3,-1
 499 78 l 1,4,-1
 499 0 l 1,5,-1
 97 0 l 1,0,-1
297 180 m 1,6,-1
 297 714 l 1,7,-1
 387 714 l 1,8,-1
 387 180 l 1,9,-1
 297 180 l 1,6,-1
EndSplineSet
EndChar

StartChar: uniA6B4
Encoding: 24 42676 21
Width: 691
Flags: W
LayerCount: 2
Fore
SplineSet
205 0 m 1,0,-1
 16 714 l 1,1,-1
 108 714 l 1,2,-1
 215 299 l 2,3,4
 226 254 226 254 235.5 215 c 128,-1,5
 245 176 245 176 249 140 c 1,6,7
 253 176 253 176 262 217.5 c 128,-1,8
 271 259 271 259 283 305 c 2,9,-1
 390 714 l 1,10,-1
 483 714 l 1,11,-1
 396 392 l 1,12,-1
 651 392 l 1,13,-1
 651 313 l 1,14,-1
 375 313 l 1,15,-1
 292 0 l 1,16,-1
 205 0 l 1,0,-1
536 444 m 0,17,18
 514 444 514 444 499 458 c 128,-1,19
 484 472 484 472 484 500 c 0,20,21
 484 529 484 529 499 542.5 c 128,-1,22
 514 556 514 556 536 556 c 0,23,24
 556 556 556 556 571.5 542.5 c 128,-1,25
 587 529 587 529 587 500 c 0,26,27
 587 472 587 472 571.5 458 c 128,-1,28
 556 444 556 444 536 444 c 0,17,18
536 149 m 0,29,30
 514 149 514 149 499 163 c 128,-1,31
 484 177 484 177 484 205 c 0,32,33
 484 234 484 234 499 247.5 c 128,-1,34
 514 261 514 261 536 261 c 0,35,36
 556 261 556 261 571.5 247.5 c 128,-1,37
 587 234 587 234 587 205 c 0,38,39
 587 177 587 177 571.5 163 c 128,-1,40
 556 149 556 149 536 149 c 0,29,30
EndSplineSet
EndChar

StartChar: uniA6B5
Encoding: 25 42677 22
Width: 588
Flags: W
LayerCount: 2
Fore
SplineSet
249 0 m 1,0,-1
 249 250 l 1,1,2
 170 261 170 261 124.5 311.5 c 128,-1,3
 79 362 79 362 79 453 c 2,4,-1
 79 714 l 1,5,-1
 168 714 l 1,6,-1
 168 459 l 2,7,8
 168 399 168 399 198.5 360 c 128,-1,9
 229 321 229 321 293 321 c 0,10,11
 361 321 361 321 390.5 356 c 128,-1,12
 420 391 420 391 420 459 c 2,13,-1
 420 714 l 1,14,-1
 509 714 l 1,15,-1
 509 453 l 2,16,17
 509 372 509 372 467.5 318 c 128,-1,18
 426 264 426 264 339 251 c 1,19,-1
 339 0 l 1,20,-1
 249 0 l 1,0,-1
EndSplineSet
EndChar

StartChar: uniA6B6
Encoding: 26 42678 23
Width: 741
Flags: W
LayerCount: 2
Fore
SplineSet
97 0 m 1,0,-1
 97 714 l 1,1,-1
 187 714 l 1,2,-1
 187 79 l 1,3,-1
 465 79 l 1,4,-1
 465 714 l 1,5,-1
 554 714 l 1,6,-1
 554 0 l 1,7,-1
 97 0 l 1,0,-1
670 424 m 0,8,9
 648 424 648 424 633 438 c 128,-1,10
 618 452 618 452 618 480 c 0,11,12
 618 509 618 509 633 522.5 c 128,-1,13
 648 536 648 536 670 536 c 0,14,15
 690 536 690 536 705.5 522.5 c 128,-1,16
 721 509 721 509 721 480 c 0,17,18
 721 452 721 452 705.5 438 c 128,-1,19
 690 424 690 424 670 424 c 0,8,9
670 169 m 0,20,21
 648 169 648 169 633 183 c 128,-1,22
 618 197 618 197 618 225 c 0,23,24
 618 254 618 254 633 267.5 c 128,-1,25
 648 281 648 281 670 281 c 0,26,27
 690 281 690 281 705.5 267.5 c 128,-1,28
 721 254 721 254 721 225 c 0,29,30
 721 197 721 197 705.5 183 c 128,-1,31
 690 169 690 169 670 169 c 0,20,21
EndSplineSet
EndChar

StartChar: uniA6B7
Encoding: 27 42679 24
Width: 716
Flags: W
LayerCount: 2
Fore
SplineSet
535 412 m 1,0,1
 570 441 570 441 605.5 457 c 128,-1,2
 641 473 641 473 676 482 c 1,3,-1
 676 387 l 1,4,5
 616 380 616 380 576 361.5 c 128,-1,6
 536 343 536 343 490 311 c 1,7,-1
 446 344 l 1,8,-1
 446 539 l 1,9,-1
 279 481 l 1,10,-1
 347 0 l 1,11,-1
 255 0 l 1,12,-1
 191 450 l 1,13,-1
 51 402 l 1,14,-1
 25 477 l 1,15,-1
 180 530 l 1,16,-1
 154 714 l 1,17,-1
 246 714 l 1,18,-1
 267 561 l 1,19,-1
 515 647 l 1,20,-1
 535 590 l 1,21,-1
 535 412 l 1,0,1
622 602 m 0,22,23
 600 602 600 602 585 616 c 128,-1,24
 570 630 570 630 570 658 c 0,25,26
 570 687 570 687 585 700.5 c 128,-1,27
 600 714 600 714 622 714 c 0,28,29
 642 714 642 714 657.5 700.5 c 128,-1,30
 673 687 673 687 673 658 c 0,31,32
 673 630 673 630 657.5 616 c 128,-1,33
 642 602 642 602 622 602 c 0,22,23
413 180 m 0,34,35
 391 180 391 180 376 194 c 128,-1,36
 361 208 361 208 361 236 c 0,37,38
 361 265 361 265 376 278.5 c 128,-1,39
 391 292 391 292 413 292 c 0,40,41
 433 292 433 292 448.5 278.5 c 128,-1,42
 464 265 464 265 464 236 c 0,43,44
 464 208 464 208 448.5 194 c 128,-1,45
 433 180 433 180 413 180 c 0,34,35
EndSplineSet
EndChar

StartChar: uniA6B8
Encoding: 28 42680 25
Width: 782
Flags: W
LayerCount: 2
Fore
SplineSet
339 195 m 0,0,1
 262 195 262 195 209 216 c 128,-1,2
 156 237 156 237 123.5 273 c 128,-1,3
 91 309 91 309 76.5 353.5 c 128,-1,4
 62 398 62 398 62 446 c 0,5,6
 62 514 62 514 87 565.5 c 128,-1,7
 112 617 112 617 155 651.5 c 128,-1,8
 198 686 198 686 252.5 704.5 c 128,-1,9
 307 723 307 723 367 725 c 1,10,-1
 387 645 l 1,11,12
 346 645 346 645 304.5 633 c 128,-1,13
 263 621 263 621 228.5 596.5 c 128,-1,14
 194 572 194 572 173.5 536.5 c 128,-1,15
 153 501 153 501 153 454 c 0,16,17
 153 411 153 411 171 370 c 128,-1,18
 189 329 189 329 231 302.5 c 128,-1,19
 273 276 273 276 345 276 c 0,20,21
 395 276 395 276 425.5 288.5 c 128,-1,22
 456 301 456 301 475 308 c 1,23,-1
 495 229 l 1,24,25
 473 221 473 221 433.5 208 c 128,-1,26
 394 195 394 195 339 195 c 0,0,1
415 -12 m 1,27,-1
 395 68 l 1,28,29
 436 68 436 68 477.5 80 c 128,-1,30
 519 92 519 92 553.5 116.5 c 128,-1,31
 588 141 588 141 608.5 176.5 c 128,-1,32
 629 212 629 212 629 259 c 0,33,34
 629 303 629 303 611 343.5 c 128,-1,35
 593 384 593 384 551.5 410.5 c 128,-1,36
 510 437 510 437 437 437 c 0,37,38
 387 437 387 437 356.5 425 c 128,-1,39
 326 413 326 413 307 405 c 1,40,-1
 287 484 l 1,41,42
 309 492 309 492 348.5 505 c 128,-1,43
 388 518 388 518 443 518 c 0,44,45
 520 518 520 518 573 497 c 128,-1,46
 626 476 626 476 658.5 440 c 128,-1,47
 691 404 691 404 705.5 359.5 c 128,-1,48
 720 315 720 315 720 267 c 0,49,50
 720 199 720 199 695 147.5 c 128,-1,51
 670 96 670 96 627 61.5 c 128,-1,52
 584 27 584 27 529.5 8.5 c 128,-1,53
 475 -10 475 -10 415 -12 c 1,27,-1
EndSplineSet
EndChar

StartChar: uniA6B9
Encoding: 29 42681 26
Width: 480
Flags: W
LayerCount: 2
Fore
SplineSet
455 450 m 1,0,-1
 97 631 l 1,1,-1
 97 725 l 1,2,-1
 455 544 l 1,3,-1
 455 450 l 1,0,-1
97 0 m 1,4,-1
 97 548 l 1,5,-1
 187 548 l 1,6,-1
 187 0 l 1,7,-1
 97 0 l 1,4,-1
EndSplineSet
EndChar

StartChar: uniA6BA
Encoding: 30 42682 27
Width: 621
Flags: W
LayerCount: 2
Fore
SplineSet
112 -10 m 1,0,-1
 112 68 l 1,1,-1
 141 68 l 2,2,3
 307 68 307 68 371 171 c 1,4,5
 235 188 235 188 173.5 236 c 128,-1,6
 112 284 112 284 112 357 c 0,7,8
 112 431 112 431 174 478.5 c 128,-1,9
 236 526 236 526 372 542 c 1,10,11
 309 646 309 646 153 646 c 2,12,-1
 112 646 l 1,13,-1
 112 725 l 1,14,-1
 151 725 l 2,15,16
 273 725 273 725 352 679.5 c 128,-1,17
 431 634 431 634 469.5 551.5 c 128,-1,18
 508 469 508 469 508 358 c 256,19,20
 508 247 508 247 468.5 164.5 c 128,-1,21
 429 82 429 82 346.5 36 c 128,-1,22
 264 -10 264 -10 133 -10 c 2,23,-1
 112 -10 l 1,0,-1
570 548 m 0,24,25
 548 548 548 548 533 562 c 128,-1,26
 518 576 518 576 518 604 c 0,27,28
 518 633 518 633 533 646.5 c 128,-1,29
 548 660 548 660 570 660 c 0,30,31
 590 660 590 660 605.5 646.5 c 128,-1,32
 621 633 621 633 621 604 c 0,33,34
 621 576 621 576 605.5 562 c 128,-1,35
 590 548 590 548 570 548 c 0,24,25
203 353 m 0,36,37
 203 310 203 310 249 281.5 c 128,-1,38
 295 253 295 253 400 242 c 1,39,40
 413 291 413 291 413 358 c 0,41,42
 413 424 413 424 400 472 c 1,43,44
 295 462 295 462 249 432.5 c 128,-1,45
 203 403 203 403 203 353 c 0,36,37
EndSplineSet
EndChar

StartChar: uniA6BB
Encoding: 31 42683 28
Width: 618
Flags: W
LayerCount: 2
Fore
SplineSet
57 602 m 0,0,1
 35 602 35 602 20 616 c 128,-1,2
 5 630 5 630 5 658 c 0,3,4
 5 687 5 687 20 700.5 c 128,-1,5
 35 714 35 714 57 714 c 0,6,7
 77 714 77 714 92.5 700.5 c 128,-1,8
 108 687 108 687 108 658 c 0,9,10
 108 630 108 630 92.5 616 c 128,-1,11
 77 602 77 602 57 602 c 0,0,1
106 0 m 1,12,-1
 106 561 l 1,13,-1
 436 561 l 1,14,-1
 436 337 l 1,15,-1
 578 337 l 1,16,-1
 578 259 l 1,17,-1
 346 259 l 1,18,-1
 346 483 l 1,19,-1
 196 483 l 1,20,-1
 196 0 l 1,21,-1
 106 0 l 1,12,-1
EndSplineSet
EndChar

StartChar: uniA6BC
Encoding: 32 42684 29
Width: 639
Flags: W
LayerCount: 2
Fore
SplineSet
212 613 m 0,0,1
 190 613 190 613 175 627 c 128,-1,2
 160 641 160 641 160 669 c 0,3,4
 160 698 160 698 175 711.5 c 128,-1,5
 190 725 190 725 212 725 c 0,6,7
 232 725 232 725 247.5 711.5 c 128,-1,8
 263 698 263 698 263 669 c 0,9,10
 263 641 263 641 247.5 627 c 128,-1,11
 232 613 232 613 212 613 c 0,0,1
68 107 m 1,12,-1
 68 201 l 1,13,-1
 384 315 l 2,14,15
 406 323 406 323 433 332 c 128,-1,16
 460 341 460 341 485 348 c 128,-1,17
 510 355 510 355 526 358 c 1,18,-1
 526 362 l 1,19,20
 510 366 510 366 484.5 373.5 c 128,-1,21
 459 381 459 381 432.5 390.5 c 128,-1,22
 406 400 406 400 384 407 c 2,23,-1
 68 521 l 1,24,-1
 68 615 l 1,25,-1
 604 411 l 1,26,-1
 604 310 l 1,27,-1
 68 107 l 1,12,-1
212 -10 m 0,28,29
 190 -10 190 -10 175 4 c 128,-1,30
 160 18 160 18 160 46 c 0,31,32
 160 75 160 75 175 88.5 c 128,-1,33
 190 102 190 102 212 102 c 0,34,35
 232 102 232 102 247.5 88.5 c 128,-1,36
 263 75 263 75 263 46 c 0,37,38
 263 18 263 18 247.5 4 c 128,-1,39
 232 -10 232 -10 212 -10 c 0,28,29
EndSplineSet
EndChar

StartChar: uniA6BD
Encoding: 33 42685 30
Width: 600
Flags: W
LayerCount: 2
Fore
SplineSet
267 -10 m 0,0,1
 232 -10 232 -10 194.5 3 c 128,-1,2
 157 16 157 16 124.5 43.5 c 128,-1,3
 92 71 92 71 72 115.5 c 128,-1,4
 52 160 52 160 52 223 c 0,5,6
 52 258 52 258 59 288 c 128,-1,7
 66 318 66 318 75 339 c 1,8,-1
 161 303 l 1,9,10
 157 293 157 293 150 269.5 c 128,-1,11
 143 246 143 246 143 205 c 0,12,13
 143 135 143 135 183 99 c 128,-1,14
 223 63 223 63 277 63 c 0,15,16
 328 63 328 63 369.5 97 c 128,-1,17
 411 131 411 131 436 189 c 128,-1,18
 461 247 461 247 461 320 c 0,19,20
 461 373 461 373 434 406 c 128,-1,21
 407 439 407 439 355 439 c 0,22,23
 325 439 325 439 299.5 424.5 c 128,-1,24
 274 410 274 410 259 380 c 1,25,-1
 179 414 l 1,26,-1
 306 714 l 1,27,-1
 400 714 l 1,28,-1
 336 563 l 2,29,30
 328 544 328 544 320.5 527 c 128,-1,31
 313 510 313 510 300 482 c 1,32,33
 316 496 316 496 338.5 504.5 c 128,-1,34
 361 513 361 513 387 513 c 0,35,36
 445 513 445 513 481 483 c 128,-1,37
 517 453 517 453 534.5 407 c 128,-1,38
 552 361 552 361 552 313 c 0,39,40
 552 221 552 221 517 148 c 128,-1,41
 482 75 482 75 418.5 32.5 c 128,-1,42
 355 -10 355 -10 267 -10 c 0,0,1
EndSplineSet
EndChar

StartChar: uniA6BE
Encoding: 34 42686 31
Width: 741
Flags: W
LayerCount: 2
Fore
SplineSet
325 0 m 1,0,-1
 325 333 l 1,1,-1
 97 333 l 1,2,-1
 97 714 l 1,3,-1
 187 714 l 1,4,-1
 187 412 l 1,5,-1
 325 412 l 1,6,-1
 325 714 l 1,7,-1
 415 714 l 1,8,-1
 415 412 l 1,9,-1
 644 412 l 1,10,-1
 644 0 l 1,11,-1
 554 0 l 1,12,-1
 554 333 l 1,13,-1
 415 333 l 1,14,-1
 415 0 l 1,15,-1
 325 0 l 1,0,-1
EndSplineSet
EndChar

StartChar: uniA6BF
Encoding: 35 42687 32
Width: 619
Flags: W
LayerCount: 2
Fore
SplineSet
295 725 m 0,0,1
 387 725 387 725 440 683.5 c 128,-1,2
 493 642 493 642 515.5 568.5 c 128,-1,3
 538 495 538 495 538 400 c 0,4,5
 538 334 538 334 531 264 c 128,-1,6
 524 194 524 194 511.5 126.5 c 128,-1,7
 499 59 499 59 483 0 c 1,8,-1
 395 0 l 1,9,10
 418 95 418 95 433.5 198.5 c 128,-1,11
 449 302 449 302 449 400 c 0,12,13
 449 468 449 468 436 525.5 c 128,-1,14
 423 583 423 583 390.5 618 c 128,-1,15
 358 653 358 653 301 653 c 0,16,17
 243 653 243 653 208 618 c 128,-1,18
 173 583 173 583 173 530 c 0,19,20
 173 507 173 507 185 479 c 128,-1,21
 197 451 197 451 225.5 431.5 c 128,-1,22
 254 412 254 412 305 412 c 2,23,-1
 373 412 l 1,24,-1
 373 333 l 1,25,-1
 56 333 l 1,26,-1
 56 412 l 1,27,-1
 135 412 l 1,28,29
 117 428 117 428 100.5 460 c 128,-1,30
 84 492 84 492 84 536 c 0,31,32
 84 595 84 595 113 637.5 c 128,-1,33
 142 680 142 680 190 702.5 c 128,-1,34
 238 725 238 725 295 725 c 0,0,1
EndSplineSet
EndChar

StartChar: uniA6C0
Encoding: 36 42688 33
Width: 619
Flags: W
LayerCount: 2
Fore
SplineSet
395 0 m 1,0,1
 418 95 418 95 433.5 198.5 c 128,-1,2
 449 302 449 302 449 400 c 0,3,4
 449 468 449 468 435.5 525.5 c 128,-1,5
 422 583 422 583 390 618 c 128,-1,6
 358 653 358 653 300 653 c 0,7,8
 243 653 243 653 206.5 607.5 c 128,-1,9
 170 562 170 562 170 464 c 2,10,-1
 170 412 l 1,11,-1
 373 412 l 1,12,-1
 373 333 l 1,13,-1
 81 333 l 1,14,-1
 81 469 l 2,15,16
 81 557 81 557 109.5 613.5 c 128,-1,17
 138 670 138 670 187.5 697.5 c 128,-1,18
 237 725 237 725 300 725 c 0,19,20
 390 725 390 725 442 683.5 c 128,-1,21
 494 642 494 642 516 568.5 c 128,-1,22
 538 495 538 495 538 400 c 0,23,24
 538 334 538 334 531 264 c 128,-1,25
 524 194 524 194 511.5 126.5 c 128,-1,26
 499 59 499 59 483 0 c 1,27,-1
 395 0 l 1,0,1
EndSplineSet
EndChar

StartChar: uniA6C1
Encoding: 37 42689 34
Width: 619
Flags: W
LayerCount: 2
Fore
SplineSet
395 0 m 1,0,1
 418 95 418 95 433.5 198.5 c 128,-1,2
 449 302 449 302 449 400 c 0,3,4
 449 468 449 468 435.5 525.5 c 128,-1,5
 422 583 422 583 390 618 c 128,-1,6
 358 653 358 653 300 653 c 0,7,8
 243 653 243 653 206.5 607.5 c 128,-1,9
 170 562 170 562 170 464 c 0,10,11
 170 430 170 430 175.5 399 c 128,-1,12
 181 368 181 368 191 334 c 1,13,-1
 103 334 l 1,14,15
 93 369 93 369 87 400.5 c 128,-1,16
 81 432 81 432 81 469 c 0,17,18
 81 557 81 557 109.5 613.5 c 128,-1,19
 138 670 138 670 187.5 697.5 c 128,-1,20
 237 725 237 725 300 725 c 0,21,22
 390 725 390 725 442 683.5 c 128,-1,23
 494 642 494 642 516 568.5 c 128,-1,24
 538 495 538 495 538 400 c 0,25,26
 538 334 538 334 531 264 c 128,-1,27
 524 194 524 194 511.5 126.5 c 128,-1,28
 499 59 499 59 483 0 c 1,29,-1
 395 0 l 1,0,1
EndSplineSet
EndChar

StartChar: uniA6C2
Encoding: 38 42690 35
Width: 533
Flags: W
LayerCount: 2
Fore
SplineSet
222 531 m 1,0,-1
 222 615 l 1,1,-1
 493 725 l 1,2,-1
 493 641 l 1,3,-1
 222 531 l 1,0,-1
85 0 m 1,4,-1
 85 714 l 1,5,-1
 174 714 l 1,6,-1
 174 0 l 1,7,-1
 85 0 l 1,4,-1
222 367 m 1,8,-1
 222 451 l 1,9,-1
 493 562 l 1,10,-1
 493 478 l 1,11,-1
 222 367 l 1,8,-1
EndSplineSet
EndChar

StartChar: uniA6C3
Encoding: 39 42691 36
Width: 770
Flags: W
LayerCount: 2
Fore
SplineSet
158 0 m 1,0,-1
 28 469 l 1,1,-1
 119 469 l 1,2,-1
 176 250 l 2,3,4
 187 207 187 207 197 163 c 128,-1,5
 207 119 207 119 211 90 c 1,6,-1
 214 90 l 1,7,8
 218 107 218 107 224 133 c 128,-1,9
 230 159 230 159 237 187 c 128,-1,10
 244 215 244 215 249 237 c 2,11,-1
 307 469 l 1,12,-1
 403 469 l 1,13,-1
 460 249 l 2,14,15
 470 212 470 212 479.5 166 c 128,-1,16
 489 120 489 120 493 90 c 1,17,-1
 496 90 l 1,18,19
 516 230 516 230 540.5 329.5 c 128,-1,20
 565 429 565 429 597.5 499 c 128,-1,21
 630 569 630 569 671 619 c 128,-1,22
 712 669 712 669 765 710 c 1,23,-1
 765 599 l 1,24,25
 708 546 708 546 669.5 460.5 c 128,-1,26
 631 375 631 375 602.5 259.5 c 128,-1,27
 574 144 574 144 547 0 c 1,28,-1
 449 0 l 1,29,-1
 390 229 l 2,30,31
 382 260 382 260 372 303.5 c 128,-1,32
 362 347 362 347 355 377 c 1,33,-1
 351 377 l 1,34,35
 345 349 345 349 335.5 306 c 128,-1,36
 326 263 326 263 318 231 c 2,37,-1
 258 0 l 1,38,-1
 158 0 l 1,0,-1
EndSplineSet
EndChar

StartChar: uniA6C4
Encoding: 40 42692 37
Width: 697
Flags: W
LayerCount: 2
Fore
SplineSet
97 0 m 1,0,-1
 97 714 l 1,1,-1
 186 714 l 1,2,-1
 186 527 l 1,3,-1
 566 672 l 1,4,-1
 616 672 l 1,5,-1
 616 222 l 1,6,-1
 566 222 l 1,7,-1
 186 366 l 1,8,-1
 186 0 l 1,9,-1
 97 0 l 1,0,-1
527 325 m 1,10,-1
 527 569 l 1,11,12
 477 549 477 549 427 530 c 128,-1,13
 377 511 377 511 327 493 c 0,14,15
 306 486 306 486 279 476.5 c 128,-1,16
 252 467 252 467 227.5 459.5 c 128,-1,17
 203 452 203 452 186 448 c 1,18,-1
 186 444 l 1,19,20
 203 441 203 441 227.5 434 c 128,-1,21
 252 427 252 427 278.5 418 c 128,-1,22
 305 409 305 409 327 401 c 0,23,24
 377 383 377 383 427 364 c 128,-1,25
 477 345 477 345 527 325 c 1,10,-1
EndSplineSet
EndChar

StartChar: uniA6C5
Encoding: 41 42693 38
Width: 602
Flags: W
LayerCount: 2
Fore
SplineSet
97 -1 m 1,0,-1
 97 553 l 1,1,-1
 187 553 l 1,2,-1
 187 357 l 1,3,-1
 347 446 l 1,4,-1
 347 714 l 1,5,-1
 437 714 l 1,6,-1
 437 160 l 1,7,-1
 347 160 l 1,8,-1
 347 357 l 1,9,-1
 187 268 l 1,10,-1
 187 -1 l 1,11,-1
 97 -1 l 1,0,-1
551 448 m 0,12,13
 529 448 529 448 514 462 c 128,-1,14
 499 476 499 476 499 504 c 0,15,16
 499 533 499 533 514 546.5 c 128,-1,17
 529 560 529 560 551 560 c 0,18,19
 571 560 571 560 586.5 546.5 c 128,-1,20
 602 533 602 533 602 504 c 0,21,22
 602 476 602 476 586.5 462 c 128,-1,23
 571 448 571 448 551 448 c 0,12,13
EndSplineSet
EndChar

StartChar: uniA6C6
Encoding: 42 42694 39
Width: 569
Flags: W
LayerCount: 2
Fore
SplineSet
382 0 m 1,0,1
 382 27 382 27 382.5 51.5 c 128,-1,2
 383 76 383 76 384 102 c 1,3,-1
 382 102 l 1,4,5
 342 59 342 59 290.5 38 c 128,-1,6
 239 17 239 17 168 15 c 1,7,-1
 148 95 l 1,8,9
 189 95 189 95 230.5 107 c 128,-1,10
 272 119 272 119 306.5 143.5 c 128,-1,11
 341 168 341 168 361.5 203.5 c 128,-1,12
 382 239 382 239 382 286 c 0,13,14
 382 330 382 330 364 370.5 c 128,-1,15
 346 411 346 411 304.5 437.5 c 128,-1,16
 263 464 263 464 190 464 c 0,17,18
 140 464 140 464 109.5 452 c 128,-1,19
 79 440 79 440 60 432 c 1,20,-1
 40 511 l 1,21,22
 62 519 62 519 101.5 532 c 128,-1,23
 141 545 141 545 196 545 c 0,24,25
 261 545 261 545 308 525.5 c 128,-1,26
 355 506 355 506 382 474 c 1,27,-1
 384 474 l 1,28,29
 383 493 383 493 382.5 512 c 128,-1,30
 382 531 382 531 382 550 c 2,31,-1
 382 714 l 1,32,-1
 472 714 l 1,33,-1
 472 0 l 1,34,-1
 382 0 l 1,0,1
EndSplineSet
EndChar

StartChar: uniA6C7
Encoding: 43 42695 40
Width: 621
Flags: W
LayerCount: 2
Fore
SplineSet
577 78 m 1,0,-1
 35 379 l 1,1,-1
 35 478 l 1,2,-1
 513 714 l 1,3,-1
 513 616 l 1,4,-1
 113 431 l 1,5,-1
 113 427 l 1,6,-1
 577 178 l 1,7,-1
 577 78 l 1,0,-1
486 374 m 0,8,9
 464 374 464 374 449 388 c 128,-1,10
 434 402 434 402 434 430 c 0,11,12
 434 459 434 459 449 472.5 c 128,-1,13
 464 486 464 486 486 486 c 0,14,15
 506 486 506 486 521.5 472.5 c 128,-1,16
 537 459 537 459 537 430 c 0,17,18
 537 402 537 402 521.5 388 c 128,-1,19
 506 374 506 374 486 374 c 0,8,9
EndSplineSet
EndChar

StartChar: uniA6C8
Encoding: 44 42696 41
Width: 670
Flags: W
LayerCount: 2
Fore
SplineSet
79 337 m 1,0,-1
 79 470 l 2,1,2
 79 543 79 543 107 597.5 c 128,-1,3
 135 652 135 652 192.5 683 c 128,-1,4
 250 714 250 714 340 714 c 0,5,6
 455 714 455 714 523 653 c 128,-1,7
 591 592 591 592 591 470 c 2,8,-1
 591 337 l 1,9,-1
 502 337 l 1,10,-1
 502 464 l 2,11,12
 502 541 502 541 461.5 591 c 128,-1,13
 421 641 421 641 337 641 c 0,14,15
 247 641 247 641 207.5 596.5 c 128,-1,16
 168 552 168 552 168 464 c 2,17,-1
 168 337 l 1,18,-1
 79 337 l 1,0,-1
290 0 m 1,19,-1
 290 499 l 1,20,-1
 380 499 l 1,21,-1
 380 0 l 1,22,-1
 290 0 l 1,19,-1
EndSplineSet
EndChar

StartChar: uniA6C9
Encoding: 45 42697 42
Width: 572
Flags: W
LayerCount: 2
Fore
SplineSet
38 0 m 1,0,-1
 38 68 l 1,1,-1
 414 634 l 1,2,-1
 50 634 l 1,3,-1
 50 714 l 1,4,-1
 523 714 l 1,5,-1
 523 646 l 1,6,-1
 147 80 l 1,7,-1
 533 80 l 1,8,-1
 533 0 l 1,9,-1
 38 0 l 1,0,-1
EndSplineSet
EndChar

StartChar: uniA6CA
Encoding: 46 42698 43
Width: 748
Flags: W
LayerCount: 2
Fore
SplineSet
543 570 m 0,0,1
 606 570 606 570 643 541.5 c 128,-1,2
 680 513 680 513 696.5 469.5 c 128,-1,3
 713 426 713 426 713 380 c 0,4,5
 713 309 713 309 682 261.5 c 128,-1,6
 651 214 651 214 600 191 c 128,-1,7
 549 168 549 168 488 168 c 0,8,9
 438 168 438 168 399.5 181.5 c 128,-1,10
 361 195 361 195 333.5 215.5 c 128,-1,11
 306 236 306 236 290 256 c 1,12,13
 277 180 277 180 250.5 130 c 128,-1,14
 224 80 224 80 190 52 c 128,-1,15
 156 24 156 24 119 12.5 c 128,-1,16
 82 1 82 1 48 1 c 2,17,-1
 7 1 l 1,18,-1
 7 79 l 1,19,-1
 36 79 l 2,20,21
 91 79 91 79 128 113 c 128,-1,22
 165 147 165 147 186.5 209 c 128,-1,23
 208 271 208 271 216 353 c 2,24,-1
 250 714 l 1,25,-1
 340 714 l 1,26,-1
 320 524 l 2,27,28
 316 479 316 479 315 449.5 c 128,-1,29
 314 420 314 420 314 413 c 0,30,31
 314 361 314 361 337.5 322 c 128,-1,32
 361 283 361 283 399 262 c 128,-1,33
 437 241 437 241 482 241 c 0,34,35
 557 241 557 241 590.5 282.5 c 128,-1,36
 624 324 624 324 624 385 c 0,37,38
 624 435 624 435 601.5 465.5 c 128,-1,39
 579 496 579 496 547 496 c 0,40,41
 513 496 513 496 493.5 469.5 c 128,-1,42
 474 443 474 443 474 384 c 2,43,-1
 474 368 l 1,44,-1
 384 368 l 1,45,-1
 384 375 l 2,46,47
 384 440 384 440 405.5 483.5 c 128,-1,48
 427 527 427 527 463.5 548.5 c 128,-1,49
 500 570 500 570 543 570 c 0,0,1
EndSplineSet
EndChar

StartChar: uniA6CB
Encoding: 47 42699 44
Width: 563
Flags: W
LayerCount: 2
Fore
SplineSet
563 714 m 1,0,-1
 563 643 l 1,1,-1
 462 643 l 1,2,-1
 372 0 l 1,3,-1
 280 0 l 1,4,-1
 340 397 l 2,5,6
 355 490 355 490 371 558 c 1,7,8
 346 533 346 533 313.5 512 c 128,-1,9
 281 491 281 491 240 465 c 2,10,-1
 88 369 l 1,11,-1
 43 444 l 1,12,-1
 363 643 l 1,13,-1
 248 643 l 1,14,-1
 248 714 l 1,15,-1
 563 714 l 1,0,-1
EndSplineSet
EndChar

StartChar: uniA6CC
Encoding: 48 42700 45
Width: 483
Flags: W
LayerCount: 2
Fore
SplineSet
232 613 m 0,0,1
 210 613 210 613 195 627 c 128,-1,2
 180 641 180 641 180 669 c 0,3,4
 180 698 180 698 195 711.5 c 128,-1,5
 210 725 210 725 232 725 c 0,6,7
 252 725 252 725 267.5 711.5 c 128,-1,8
 283 698 283 698 283 669 c 0,9,10
 283 641 283 641 267.5 627 c 128,-1,11
 252 613 252 613 232 613 c 0,0,1
224 122 m 0,12,13
 163 122 163 122 119.5 132.5 c 128,-1,14
 76 143 76 143 45 159 c 1,15,-1
 45 230 l 1,16,17
 78 217 78 217 121 205.5 c 128,-1,18
 164 194 164 194 219 194 c 0,19,20
 298 194 298 194 329.5 215.5 c 128,-1,21
 361 237 361 237 361 263 c 0,22,23
 361 334 361 334 210 334 c 2,24,-1
 137 334 l 1,25,-1
 137 406 l 1,26,-1
 193 406 l 2,27,28
 263 406 263 406 304.5 420 c 128,-1,29
 346 434 346 434 346 467 c 0,30,31
 346 490 346 490 314.5 507 c 128,-1,32
 283 524 283 524 224 524 c 0,33,34
 178 524 178 524 143.5 515.5 c 128,-1,35
 109 507 109 507 76 494 c 1,36,-1
 43 559 l 1,37,38
 83 577 83 577 124.5 587 c 128,-1,39
 166 597 166 597 224 597 c 0,40,41
 315 597 315 597 372.5 565.5 c 128,-1,42
 430 534 430 534 430 476 c 0,43,44
 430 434 430 434 402.5 408.5 c 128,-1,45
 375 383 375 383 330 371 c 1,46,-1
 330 367 l 1,47,48
 378 356 378 356 413.5 331.5 c 128,-1,49
 449 307 449 307 449 255 c 0,50,51
 449 198 449 198 394 160 c 128,-1,52
 339 122 339 122 224 122 c 0,12,13
232 -10 m 0,53,54
 210 -10 210 -10 195 4 c 128,-1,55
 180 18 180 18 180 46 c 0,56,57
 180 75 180 75 195 88.5 c 128,-1,58
 210 102 210 102 232 102 c 0,59,60
 252 102 252 102 267.5 88.5 c 128,-1,61
 283 75 283 75 283 46 c 0,62,63
 283 18 283 18 267.5 4 c 128,-1,64
 252 -10 252 -10 232 -10 c 0,53,54
EndSplineSet
EndChar

StartChar: uniA6CD
Encoding: 49 42701 46
Width: 546
Flags: W
LayerCount: 2
Fore
SplineSet
229 0 m 1,0,-1
 229 144 l 1,1,-1
 75 144 l 1,2,-1
 75 215 l 1,3,-1
 229 215 l 1,4,-1
 229 362 l 1,5,-1
 272 362 l 2,6,7
 318 362 318 362 346 383 c 128,-1,8
 374 404 374 404 387 437 c 128,-1,9
 400 470 400 470 400 507 c 0,10,11
 400 567 400 567 368 609 c 128,-1,12
 336 651 336 651 272 651 c 0,13,14
 211 651 211 651 179 611 c 128,-1,15
 147 571 147 571 146 507 c 1,16,-1
 55 507 l 1,17,18
 56 575 56 575 84.5 623.5 c 128,-1,19
 113 672 113 672 162 698.5 c 128,-1,20
 211 725 211 725 274 725 c 0,21,22
 338 725 338 725 386.5 697.5 c 128,-1,23
 435 670 435 670 463 621 c 128,-1,24
 491 572 491 572 491 507 c 0,25,26
 491 426 491 426 446 366 c 128,-1,27
 401 306 401 306 317 292 c 1,28,-1
 317 215 l 1,29,-1
 471 215 l 1,30,-1
 471 144 l 1,31,-1
 317 144 l 1,32,-1
 317 0 l 1,33,-1
 229 0 l 1,0,-1
EndSplineSet
EndChar

StartChar: uniA6CE
Encoding: 50 42702 47
Width: 600
Flags: W
LayerCount: 2
Fore
SplineSet
0 0 m 1,0,-1
 255 714 l 1,1,-1
 345 714 l 1,2,-1
 600 0 l 1,3,-1
 506 0 l 1,4,-1
 345 458 l 2,5,6
 329 502 329 502 318.5 540.5 c 128,-1,7
 308 579 308 579 300 614 c 1,8,9
 293 579 293 579 282 540 c 128,-1,10
 271 501 271 501 255 456 c 2,11,-1
 95 0 l 1,12,-1
 0 0 l 1,0,-1
EndSplineSet
EndChar

StartChar: uniA6CF
Encoding: 51 42703 48
Width: 710
Flags: W
LayerCount: 2
Fore
SplineSet
205 643 m 1,0,-1
 205 714 l 1,1,-1
 502 714 l 1,2,-1
 502 643 l 1,3,-1
 205 643 l 1,0,-1
42 179 m 1,4,-1
 158 597 l 1,5,-1
 258 597 l 1,6,-1
 317 414 l 2,7,8
 327 383 327 383 337 341 c 128,-1,9
 347 299 347 299 353 271 c 1,10,-1
 357 271 l 1,11,12
 362 290 362 290 368 315.5 c 128,-1,13
 374 341 374 341 381 367 c 128,-1,14
 388 393 388 393 394 413 c 2,15,-1
 449 597 l 1,16,-1
 552 597 l 1,17,-1
 668 179 l 1,18,-1
 578 179 l 1,19,-1
 536 347 l 2,20,21
 525 393 525 393 514 437 c 128,-1,22
 503 481 503 481 500 506 c 1,23,-1
 496 506 l 1,24,25
 492 478 492 478 481.5 438 c 128,-1,26
 471 398 471 398 460 363 c 2,27,-1
 405 179 l 1,28,-1
 309 179 l 1,29,-1
 251 363 l 2,30,31
 244 385 244 385 237 412.5 c 128,-1,32
 230 440 230 440 224 465.5 c 128,-1,33
 218 491 218 491 214 507 c 1,34,-1
 211 507 l 1,35,36
 207 479 207 479 197 435 c 128,-1,37
 187 391 187 391 176 347 c 2,38,-1
 133 179 l 1,39,-1
 42 179 l 1,4,-1
311 0 m 1,40,-1
 311 126 l 1,41,-1
 400 126 l 1,42,-1
 400 0 l 1,43,-1
 311 0 l 1,40,-1
EndSplineSet
EndChar

StartChar: uniA6D0
Encoding: 52 42704 49
Width: 465
Flags: W
LayerCount: 2
Fore
SplineSet
297 395 m 2,0,1
 222 395 222 395 173.5 409 c 128,-1,2
 125 423 125 423 98 446 c 128,-1,3
 71 469 71 469 60 497.5 c 128,-1,4
 49 526 49 526 49 555 c 0,5,6
 49 600 49 600 70.5 636 c 128,-1,7
 92 672 92 672 146 693 c 128,-1,8
 200 714 200 714 297 714 c 2,9,-1
 378 714 l 1,10,-1
 378 635 l 1,11,-1
 297 635 l 2,12,13
 208 635 208 635 174 615 c 128,-1,14
 140 595 140 595 140 555 c 256,15,16
 140 515 140 515 176 494.5 c 128,-1,17
 212 474 212 474 297 474 c 2,18,-1
 378 474 l 1,19,-1
 378 395 l 1,20,-1
 297 395 l 2,0,1
194 0 m 1,21,-1
 194 334 l 1,22,-1
 284 334 l 1,23,-1
 284 0 l 1,24,-1
 194 0 l 1,21,-1
EndSplineSet
EndChar

StartChar: uniA6D1
Encoding: 53 42705 50
Width: 621
Flags: W
LayerCount: 2
Fore
SplineSet
112 -10 m 1,0,-1
 112 68 l 1,1,-1
 141 68 l 2,2,3
 241 68 241 68 300.5 103 c 128,-1,4
 360 138 360 138 386.5 203 c 128,-1,5
 413 268 413 268 413 358 c 256,6,7
 413 448 413 448 387 512.5 c 128,-1,8
 361 577 361 577 304 611.5 c 128,-1,9
 247 646 247 646 153 646 c 2,10,-1
 112 646 l 1,11,-1
 112 725 l 1,12,-1
 151 725 l 2,13,14
 273 725 273 725 352 679.5 c 128,-1,15
 431 634 431 634 469.5 551.5 c 128,-1,16
 508 469 508 469 508 358 c 256,17,18
 508 247 508 247 468.5 164.5 c 128,-1,19
 429 82 429 82 346.5 36 c 128,-1,20
 264 -10 264 -10 133 -10 c 2,21,-1
 112 -10 l 1,0,-1
570 548 m 0,22,23
 548 548 548 548 533 562 c 128,-1,24
 518 576 518 576 518 604 c 0,25,26
 518 633 518 633 533 646.5 c 128,-1,27
 548 660 548 660 570 660 c 0,28,29
 590 660 590 660 605.5 646.5 c 128,-1,30
 621 633 621 633 621 604 c 0,31,32
 621 576 621 576 605.5 562 c 128,-1,33
 590 548 590 548 570 548 c 0,22,23
EndSplineSet
EndChar

StartChar: uniA6D2
Encoding: 54 42706 51
Width: 520
Flags: W
LayerCount: 2
Fore
SplineSet
318 227 m 2,0,-1
 247 156 l 1,1,-1
 383 84 l 1,2,-1
 383 -10 l 1,3,-1
 25 181 l 1,4,-1
 25 275 l 1,5,-1
 181 192 l 1,6,-1
 242 257 l 2,7,8
 294 313 294 313 329.5 356 c 128,-1,9
 365 399 365 399 383 440 c 128,-1,10
 401 481 401 481 401 529 c 0,11,12
 401 581 401 581 371 615 c 128,-1,13
 341 649 341 649 286 649 c 0,14,15
 258 649 258 649 238 641.5 c 128,-1,16
 218 634 218 634 204 627 c 1,17,-1
 176 697 l 1,18,19
 192 707 192 707 220.5 715.5 c 128,-1,20
 249 724 249 724 291 724 c 0,21,22
 350 724 350 724 395 701 c 128,-1,23
 440 678 440 678 465.5 635.5 c 128,-1,24
 491 593 491 593 491 534 c 0,25,26
 491 450 491 450 442.5 376.5 c 128,-1,27
 394 303 394 303 318 227 c 2,0,-1
EndSplineSet
EndChar

StartChar: uniA6D3
Encoding: 55 42707 52
Width: 679
Flags: W
LayerCount: 2
Fore
SplineSet
239 0 m 1,0,-1
 239 380 l 1,1,2
 175 392 175 392 118 413 c 128,-1,3
 61 434 61 434 20 459 c 1,4,-1
 55 529 l 1,5,6
 98 508 98 508 143.5 490 c 128,-1,7
 189 472 189 472 239 460 c 1,8,-1
 239 493 l 2,9,10
 239 617 239 617 291.5 671 c 128,-1,11
 344 725 344 725 428 725 c 0,12,13
 520 725 520 725 568 675 c 128,-1,14
 616 625 616 625 616 548 c 0,15,16
 616 468 616 468 558.5 416 c 128,-1,17
 501 364 501 364 398 364 c 0,18,19
 363 364 363 364 328 367 c 1,20,-1
 328 0 l 1,21,-1
 239 0 l 1,0,-1
392 442 m 0,22,23
 459 442 459 442 493 472 c 128,-1,24
 527 502 527 502 527 552 c 0,25,26
 527 587 527 587 503.5 617 c 128,-1,27
 480 647 480 647 429 647 c 0,28,29
 403 647 403 647 379.5 634 c 128,-1,30
 356 621 356 621 342 587 c 128,-1,31
 328 553 328 553 328 489 c 2,32,-1
 328 445 l 1,33,34
 358 442 358 442 392 442 c 0,22,23
491 0 m 1,35,-1
 491 313 l 1,36,-1
 581 313 l 1,37,-1
 581 0 l 1,38,-1
 491 0 l 1,35,-1
EndSplineSet
EndChar

StartChar: uniA6D4
Encoding: 56 42708 53
Width: 713
Flags: W
LayerCount: 2
Fore
SplineSet
81 0 m 1,0,-1
 81 188 l 2,1,2
 81 254 81 254 101 310 c 128,-1,3
 121 366 121 366 170.5 402.5 c 128,-1,4
 220 439 220 439 309 445 c 1,5,-1
 309 714 l 1,6,-1
 399 714 l 1,7,-1
 399 445 l 1,8,9
 521 438 521 438 576.5 370 c 128,-1,10
 632 302 632 302 632 192 c 2,11,-1
 632 0 l 1,12,-1
 540 0 l 1,13,-1
 540 193 l 2,14,15
 540 260 540 260 522.5 296.5 c 128,-1,16
 505 333 505 333 473.5 349 c 128,-1,17
 442 365 442 365 399 368 c 1,18,-1
 399 0 l 1,19,-1
 309 0 l 1,20,-1
 309 368 l 1,21,22
 234 360 234 360 202.5 318.5 c 128,-1,23
 171 277 171 277 171 191 c 2,24,-1
 171 0 l 1,25,-1
 81 0 l 1,0,-1
579 523 m 0,26,27
 557 523 557 523 542 537 c 128,-1,28
 527 551 527 551 527 579 c 0,29,30
 527 608 527 608 542 621.5 c 128,-1,31
 557 635 557 635 579 635 c 0,32,33
 599 635 599 635 614.5 621.5 c 128,-1,34
 630 608 630 608 630 579 c 0,35,36
 630 551 630 551 614.5 537 c 128,-1,37
 599 523 599 523 579 523 c 0,26,27
EndSplineSet
EndChar

StartChar: uniA6D5
Encoding: 57 42709 54
Width: 520
Flags: W
LayerCount: 2
Fore
SplineSet
97 0 m 1,0,-1
 97 714 l 1,1,-1
 149 714 l 1,2,-1
 455 559 l 1,3,-1
 455 465 l 1,4,-1
 275 555 l 2,5,6
 253 566 253 566 230 578.5 c 128,-1,7
 207 591 207 591 185 604 c 1,8,9
 187 580 187 580 187 554 c 128,-1,10
 187 528 187 528 187 504 c 2,11,-1
 187 210 l 2,12,13
 187 186 187 186 187 160.5 c 128,-1,14
 187 135 187 135 185 110 c 1,15,16
 209 124 209 124 234.5 137 c 128,-1,17
 260 150 260 150 284 162 c 2,18,-1
 455 249 l 1,19,-1
 455 155 l 1,20,-1
 149 0 l 1,21,-1
 97 0 l 1,0,-1
EndSplineSet
EndChar

StartChar: uniA6D6
Encoding: 58 42710 55
Width: 579
Flags: W
LayerCount: 2
Fore
SplineSet
97 0 m 1,0,-1
 97 714 l 1,1,-1
 187 714 l 1,2,-1
 187 412 l 1,3,-1
 500 412 l 1,4,-1
 500 0 l 1,5,-1
 410 0 l 1,6,-1
 410 333 l 1,7,-1
 187 333 l 1,8,-1
 187 0 l 1,9,-1
 97 0 l 1,0,-1
EndSplineSet
EndChar

StartChar: uniA6D7
Encoding: 59 42711 56
Width: 719
Flags: W
LayerCount: 2
Fore
SplineSet
370 725 m 0,0,1
 452 725 452 725 512 699.5 c 128,-1,2
 572 674 572 674 605 617 c 128,-1,3
 638 560 638 560 638 463 c 2,4,-1
 638 333 l 1,5,-1
 549 333 l 1,6,-1
 549 474 l 2,7,8
 549 628 549 628 409 646 c 1,9,-1
 409 333 l 1,10,-1
 319 333 l 1,11,-1
 319 645 l 1,12,13
 256 636 256 636 224 602 c 128,-1,14
 192 568 192 568 181 516.5 c 128,-1,15
 170 465 170 465 170 400 c 0,16,17
 170 302 170 302 185.5 198.5 c 128,-1,18
 201 95 201 95 224 0 c 1,19,-1
 136 0 l 1,20,21
 120 59 120 59 107.5 126.5 c 128,-1,22
 95 194 95 194 88 264 c 128,-1,23
 81 334 81 334 81 400 c 0,24,25
 81 504 81 504 108 576.5 c 128,-1,26
 135 649 135 649 198.5 687 c 128,-1,27
 262 725 262 725 370 725 c 0,0,1
EndSplineSet
EndChar

StartChar: uniA6D8
Encoding: 60 42712 57
Width: 718
Flags: W
LayerCount: 2
Fore
SplineSet
602 714 m 1,0,-1
 684 714 l 1,1,-1
 583 0 l 1,2,-1
 491 0 l 1,3,-1
 548 378 l 2,4,5
 555 424 555 424 561 464.5 c 128,-1,6
 567 505 567 505 576 539 c 1,7,-1
 573 540 l 1,8,9
 557 508 557 508 537.5 472.5 c 128,-1,10
 518 437 518 437 492 398 c 2,11,-1
 227 0 l 1,12,-1
 135 0 l 1,13,-1
 34 714 l 1,14,-1
 117 714 l 1,15,-1
 317 592 l 1,16,-1
 317 494 l 1,17,-1
 136 603 l 1,18,-1
 190 243 l 2,19,20
 195 215 195 215 199.5 178 c 128,-1,21
 204 141 204 141 206 111 c 1,22,23
 222 143 222 143 241 175 c 128,-1,24
 260 207 260 207 277 232 c 2,25,-1
 602 714 l 1,0,-1
EndSplineSet
EndChar

StartChar: uniA6D9
Encoding: 61 42713 58
Width: 600
Flags: W
LayerCount: 2
Fore
SplineSet
600 496 m 1,0,-1
 413 397 l 1,1,-1
 357 0 l 1,2,-1
 265 0 l 1,3,-1
 317 347 l 1,4,-1
 163 266 l 1,5,-1
 131 329 l 1,6,-1
 330 434 l 1,7,-1
 334 459 l 2,8,9
 349 552 349 552 365 620 c 1,10,11
 340 595 340 595 307.5 574 c 128,-1,12
 275 553 275 553 234 527 c 2,13,-1
 82 431 l 1,14,-1
 37 506 l 1,15,-1
 372 714 l 1,16,-1
 458 714 l 1,17,-1
 425 484 l 1,18,-1
 568 559 l 1,19,-1
 600 496 l 1,0,-1
EndSplineSet
EndChar

StartChar: uniA6DA
Encoding: 62 42714 59
Width: 524
Flags: W
LayerCount: 2
Fore
SplineSet
97 0 m 1,0,-1
 97 714 l 1,1,-1
 187 714 l 1,2,-1
 187 78 l 1,3,-1
 499 78 l 1,4,-1
 499 0 l 1,5,-1
 97 0 l 1,0,-1
343 180 m 0,6,7
 321 180 321 180 306 194 c 128,-1,8
 291 208 291 208 291 236 c 0,9,10
 291 265 291 265 306 278.5 c 128,-1,11
 321 292 321 292 343 292 c 0,12,13
 363 292 363 292 378.5 278.5 c 128,-1,14
 394 265 394 265 394 236 c 0,15,16
 394 208 394 208 378.5 194 c 128,-1,17
 363 180 363 180 343 180 c 0,6,7
EndSplineSet
EndChar

StartChar: uniA6DB
Encoding: 63 42715 60
Width: 651
Flags: W
LayerCount: 2
Fore
SplineSet
97 0 m 1,0,-1
 97 714 l 1,1,-1
 554 714 l 1,2,-1
 554 0 l 1,3,-1
 465 0 l 1,4,-1
 465 635 l 1,5,-1
 187 635 l 1,6,-1
 187 0 l 1,7,-1
 97 0 l 1,0,-1
EndSplineSet
EndChar

StartChar: uniA6DC
Encoding: 64 42716 61
Width: 619
Flags: W
LayerCount: 2
Fore
SplineSet
300 613 m 0,0,1
 278 613 278 613 263 627 c 128,-1,2
 248 641 248 641 248 669 c 0,3,4
 248 698 248 698 263 711.5 c 128,-1,5
 278 725 278 725 300 725 c 0,6,7
 320 725 320 725 335.5 711.5 c 128,-1,8
 351 698 351 698 351 669 c 0,9,10
 351 641 351 641 335.5 627 c 128,-1,11
 320 613 320 613 300 613 c 0,0,1
360 0 m 1,12,13
 398 71 398 71 423.5 149 c 128,-1,14
 449 227 449 227 449 301 c 0,15,16
 449 358 449 358 435.5 406 c 128,-1,17
 422 454 422 454 390 483 c 128,-1,18
 358 512 358 512 300 512 c 0,19,20
 231 512 231 512 200.5 470.5 c 128,-1,21
 170 429 170 429 170 367 c 0,22,23
 170 318 170 318 187 287 c 128,-1,24
 204 256 204 256 228 256 c 0,25,26
 254 256 254 256 269 282 c 128,-1,27
 284 308 284 308 284 361 c 0,28,29
 284 378 284 378 283 384 c 1,30,-1
 372 384 l 1,31,32
 373 378 373 378 373.5 371.5 c 128,-1,33
 374 365 374 365 374 359 c 0,34,35
 374 293 374 293 353 254 c 128,-1,36
 332 215 332 215 299.5 198.5 c 128,-1,37
 267 182 267 182 232 182 c 0,38,39
 177 182 177 182 143.5 210.5 c 128,-1,40
 110 239 110 239 95.5 283 c 128,-1,41
 81 327 81 327 81 372 c 0,42,43
 81 444 81 444 111 491 c 128,-1,44
 141 538 141 538 190.5 561 c 128,-1,45
 240 584 240 584 300 584 c 0,46,47
 390 584 390 584 442 547.5 c 128,-1,48
 494 511 494 511 516 447.5 c 128,-1,49
 538 384 538 384 538 301 c 0,50,51
 538 227 538 227 512.5 146.5 c 128,-1,52
 487 66 487 66 448 0 c 1,53,-1
 360 0 l 1,12,13
EndSplineSet
EndChar

StartChar: uniA6DD
Encoding: 65 42717 62
Width: 668
Flags: W
LayerCount: 2
Fore
SplineSet
300 725 m 0,0,1
 390 725 390 725 442 683.5 c 128,-1,2
 494 642 494 642 516 568.5 c 128,-1,3
 538 495 538 495 538 400 c 0,4,5
 538 334 538 334 524 264 c 128,-1,6
 510 194 510 194 485.5 126.5 c 128,-1,7
 461 59 461 59 429 0 c 1,8,-1
 336 0 l 1,9,10
 374 75 374 75 403 156 c 128,-1,11
 432 237 432 237 443 317 c 1,12,13
 421 297 421 297 385.5 279 c 128,-1,14
 350 261 350 261 300 261 c 0,15,16
 232 261 232 261 183 292 c 128,-1,17
 134 323 134 323 107.5 375 c 128,-1,18
 81 427 81 427 81 490 c 0,19,20
 81 569 81 569 112 621 c 128,-1,21
 143 673 143 673 193 699 c 128,-1,22
 243 725 243 725 300 725 c 0,0,1
303 333 m 0,23,24
 346 333 346 333 383.5 355.5 c 128,-1,25
 421 378 421 378 449 413 c 1,26,27
 448 478 448 478 434 532.5 c 128,-1,28
 420 587 420 587 387.5 620 c 128,-1,29
 355 653 355 653 300 653 c 0,30,31
 243 653 243 653 206.5 610.5 c 128,-1,32
 170 568 170 568 170 491 c 0,33,34
 170 423 170 423 204 378 c 128,-1,35
 238 333 238 333 303 333 c 0,23,24
624 422 m 0,36,37
 602 422 602 422 587 436 c 128,-1,38
 572 450 572 450 572 478 c 0,39,40
 572 507 572 507 587 520.5 c 128,-1,41
 602 534 602 534 624 534 c 0,42,43
 644 534 644 534 659.5 520.5 c 128,-1,44
 675 507 675 507 675 478 c 0,45,46
 675 450 675 450 659.5 436 c 128,-1,47
 644 422 644 422 624 422 c 0,36,37
EndSplineSet
EndChar

StartChar: uniA6DE
Encoding: 66 42718 63
Width: 579
Flags: W
LayerCount: 2
Fore
SplineSet
97 0 m 1,0,-1
 97 412 l 1,1,-1
 410 412 l 1,2,-1
 410 635 l 1,3,-1
 97 635 l 1,4,-1
 97 714 l 1,5,-1
 500 714 l 1,6,-1
 500 333 l 1,7,-1
 187 333 l 1,8,-1
 187 0 l 1,9,-1
 97 0 l 1,0,-1
EndSplineSet
EndChar

StartChar: uniA6DF
Encoding: 67 42719 64
Width: 600
Flags: W
LayerCount: 2
Fore
SplineSet
255 0 m 1,0,-1
 0 714 l 1,1,-1
 94 714 l 1,2,-1
 255 256 l 2,3,4
 271 212 271 212 282 173.5 c 128,-1,5
 293 135 293 135 300 100 c 1,6,7
 307 135 307 135 318 174 c 128,-1,8
 329 213 329 213 345 258 c 2,9,-1
 505 714 l 1,10,-1
 600 714 l 1,11,-1
 345 0 l 1,12,-1
 255 0 l 1,0,-1
EndSplineSet
EndChar

StartChar: uniA6E0
Encoding: 68 42720 65
Width: 637
Flags: W
LayerCount: 2
Fore
SplineSet
596 531 m 1,0,-1
 596 458 l 1,1,-1
 313 279 l 1,2,-1
 313 0 l 1,3,-1
 223 0 l 1,4,-1
 223 224 l 1,5,-1
 52 117 l 1,6,-1
 7 192 l 1,7,-1
 223 327 l 1,8,-1
 223 714 l 1,9,-1
 301 714 l 1,10,-1
 596 531 l 1,0,-1
313 606 m 1,11,-1
 313 380 l 1,12,-1
 500 493 l 1,13,-1
 313 606 l 1,11,-1
EndSplineSet
EndChar

StartChar: uniA6E1
Encoding: 69 42721 66
Width: 919
Flags: W
LayerCount: 2
Fore
SplineSet
812 411 m 1,0,-1
 894 377 l 1,1,2
 873 315 873 315 820 276.5 c 128,-1,3
 767 238 767 238 700 238 c 0,4,5
 637 238 637 238 582.5 269 c 128,-1,6
 528 300 528 300 480 379 c 1,7,-1
 467 364 l 2,8,9
 447 339 447 339 419.5 309.5 c 128,-1,10
 392 280 392 280 352.5 259 c 128,-1,11
 313 238 313 238 256 238 c 0,12,13
 189 238 189 238 141.5 269.5 c 128,-1,14
 94 301 94 301 69.5 354.5 c 128,-1,15
 45 408 45 408 45 475 c 0,16,17
 45 554 45 554 74.5 607 c 128,-1,18
 104 660 104 660 153 687 c 128,-1,19
 202 714 202 714 260 714 c 0,20,21
 331 714 331 714 388 673 c 128,-1,22
 445 632 445 632 499 528 c 1,23,-1
 651 714 l 1,24,-1
 712 664 l 1,25,-1
 537 450 l 1,26,27
 568 392 568 392 605 351.5 c 128,-1,28
 642 311 642 311 700 311 c 0,29,30
 736 311 736 311 758.5 328 c 128,-1,31
 781 345 781 345 794 368.5 c 128,-1,32
 807 392 807 392 812 411 c 1,0,-1
440 454 m 1,33,-1
 440 456 l 1,34,35
 401 542 401 542 359.5 591.5 c 128,-1,36
 318 641 318 641 262 641 c 0,37,38
 215 641 215 641 187 617 c 128,-1,39
 159 593 159 593 146.5 555 c 128,-1,40
 134 517 134 517 134 475 c 0,41,42
 134 403 134 403 166.5 357 c 128,-1,43
 199 311 199 311 262 311 c 0,44,45
 296 311 296 311 319.5 324.5 c 128,-1,46
 343 338 343 338 362.5 360 c 128,-1,47
 382 382 382 382 404 409 c 2,48,-1
 440 454 l 1,33,-1
156 69 m 1,49,-1
 156 142 l 1,50,-1
 763 142 l 1,51,-1
 763 69 l 1,52,-1
 156 69 l 1,49,-1
EndSplineSet
EndChar

StartChar: uniA6E2
Encoding: 70 42722 67
Width: 531
Flags: W
LayerCount: 2
Fore
SplineSet
362 -10 m 0,0,1
 271 -10 271 -10 203 24 c 128,-1,2
 135 58 135 58 98 123 c 128,-1,3
 61 188 61 188 61 281 c 0,4,5
 61 356 61 356 91 415.5 c 128,-1,6
 121 475 121 475 175 514.5 c 128,-1,7
 229 554 229 554 300 568 c 1,8,-1
 300 570 l 1,9,10
 280 575 280 575 251 584 c 128,-1,11
 222 593 222 593 190 603 c 2,12,-1
 82 640 l 1,13,-1
 82 724 l 1,14,-1
 457 595 l 1,15,-1
 457 511 l 1,16,-1
 396 511 l 2,17,18
 285 511 285 511 220.5 452 c 128,-1,19
 156 393 156 393 156 282 c 0,20,21
 156 180 156 180 210.5 124 c 128,-1,22
 265 68 265 68 365 68 c 0,23,24
 402 68 402 68 437.5 76.5 c 128,-1,25
 473 85 473 85 492 93 c 1,26,-1
 492 15 l 1,27,28
 469 6 469 6 437.5 -2 c 128,-1,29
 406 -10 406 -10 362 -10 c 0,0,1
EndSplineSet
EndChar

StartChar: uniA6E3
Encoding: 71 42723 68
Width: 579
Flags: W
LayerCount: 2
Fore
SplineSet
392 0 m 1,0,-1
 392 510 l 1,1,-1
 169 510 l 1,2,-1
 169 380 l 1,3,-1
 79 380 l 1,4,-1
 79 714 l 1,5,-1
 169 714 l 1,6,-1
 169 589 l 1,7,-1
 482 589 l 1,8,-1
 482 0 l 1,9,-1
 392 0 l 1,0,-1
EndSplineSet
EndChar

StartChar: uniA6E4
Encoding: 72 42724 69
Width: 576
Flags: W
LayerCount: 2
Fore
SplineSet
104 0 m 1,0,1
 112 54 112 54 117 103 c 128,-1,2
 122 152 122 152 122 210 c 0,3,4
 122 311 122 311 108.5 395.5 c 128,-1,5
 95 480 95 480 71.5 557.5 c 128,-1,6
 48 635 48 635 16 714 c 1,7,-1
 104 714 l 1,8,9
 155 592 155 592 183 469 c 128,-1,10
 211 346 211 346 211 225 c 0,11,12
 211 166 211 166 206 108 c 128,-1,13
 201 50 201 50 192 0 c 1,14,-1
 104 0 l 1,0,1
233 337 m 1,15,-1
 233 410 l 1,16,-1
 269 410 l 2,17,18
 358 410 358 410 404 443.5 c 128,-1,19
 450 477 450 477 450 531 c 0,20,21
 450 581 450 581 407 611 c 128,-1,22
 364 641 364 641 269 641 c 2,23,-1
 233 641 l 1,24,-1
 233 714 l 1,25,-1
 277 714 l 2,26,27
 369 714 369 714 427 689 c 128,-1,28
 485 664 485 664 513 622 c 128,-1,29
 541 580 541 580 541 528 c 0,30,31
 541 479 541 479 511 435.5 c 128,-1,32
 481 392 481 392 419.5 364.5 c 128,-1,33
 358 337 358 337 262 337 c 2,34,-1
 233 337 l 1,15,-1
EndSplineSet
EndChar

StartChar: uniA6E5
Encoding: 73 42725 70
Width: 645
Flags: W
LayerCount: 2
Fore
SplineSet
97 0 m 1,0,-1
 97 596 l 1,1,-1
 281 596 l 1,2,3
 289 631 289 631 315 657.5 c 128,-1,4
 341 684 341 684 392 699 c 128,-1,5
 443 714 443 714 525 714 c 2,6,-1
 596 714 l 1,7,-1
 596 635 l 1,8,-1
 525 635 l 2,9,10
 436 635 436 635 402 615 c 128,-1,11
 368 595 368 595 368 555 c 256,12,13
 368 515 368 515 404 494.5 c 128,-1,14
 440 474 440 474 525 474 c 2,15,-1
 596 474 l 1,16,-1
 596 395 l 1,17,-1
 525 395 l 2,18,19
 441 395 441 395 390 412 c 128,-1,20
 339 429 339 429 314 457 c 128,-1,21
 289 485 289 485 281 517 c 1,22,-1
 187 517 l 1,23,-1
 187 0 l 1,24,-1
 97 0 l 1,0,-1
EndSplineSet
EndChar

StartChar: uniA6E6
Encoding: 74 42726 71
Width: 498
Flags: W
LayerCount: 2
Fore
SplineSet
50 294 m 1,0,-1
 50 367 l 1,1,-1
 204 367 l 1,2,-1
 204 641 l 1,3,-1
 50 641 l 1,4,-1
 50 714 l 1,5,-1
 448 714 l 1,6,-1
 448 641 l 1,7,-1
 294 641 l 1,8,-1
 294 367 l 1,9,10
 376 362 376 362 422.5 315 c 128,-1,11
 469 268 469 268 469 182 c 0,12,13
 469 133 469 133 448.5 88.5 c 128,-1,14
 428 44 428 44 393 0 c 1,15,-1
 305 0 l 1,16,17
 342 46 342 46 360.5 86.5 c 128,-1,18
 379 127 379 127 379 174 c 0,19,20
 379 229 379 229 346 261.5 c 128,-1,21
 313 294 313 294 237 294 c 2,22,-1
 50 294 l 1,0,-1
EndSplineSet
EndChar

StartChar: uniA6E7
Encoding: 75 42727 72
Width: 498
Flags: W
LayerCount: 2
Fore
SplineSet
305 0 m 1,0,1
 342 46 342 46 360.5 86.5 c 128,-1,2
 379 127 379 127 379 174 c 0,3,4
 379 229 379 229 346 261.5 c 128,-1,5
 313 294 313 294 237 294 c 2,6,-1
 50 294 l 1,7,-1
 50 367 l 1,8,-1
 204 367 l 1,9,-1
 204 641 l 1,10,-1
 50 641 l 1,11,-1
 50 714 l 1,12,-1
 294 714 l 1,13,-1
 294 367 l 1,14,15
 376 362 376 362 422.5 315 c 128,-1,16
 469 268 469 268 469 182 c 0,17,18
 469 133 469 133 448.5 88.5 c 128,-1,19
 428 44 428 44 393 0 c 1,20,-1
 305 0 l 1,0,1
EndSplineSet
EndChar

StartChar: uniA6E8
Encoding: 76 42728 73
Width: 490
Flags: W
LayerCount: 2
Fore
SplineSet
60 0 m 1,0,-1
 60 73 l 1,1,-1
 225 73 l 1,2,-1
 225 641 l 1,3,-1
 133 641 l 1,4,-1
 133 500 l 1,5,-1
 60 500 l 1,6,-1
 60 714 l 1,7,-1
 315 714 l 1,8,-1
 315 73 l 1,9,-1
 470 73 l 1,10,-1
 470 0 l 1,11,-1
 60 0 l 1,0,-1
EndSplineSet
EndChar

StartChar: uniA6E9
Encoding: 77 42729 74
Width: 498
Flags: W
LayerCount: 2
Fore
SplineSet
305 0 m 1,0,1
 342 46 342 46 360.5 86.5 c 128,-1,2
 379 127 379 127 379 174 c 0,3,4
 379 229 379 229 346 261.5 c 128,-1,5
 313 294 313 294 237 294 c 2,6,-1
 50 294 l 1,7,-1
 50 367 l 1,8,-1
 204 367 l 1,9,-1
 204 714 l 1,10,-1
 294 714 l 1,11,-1
 294 367 l 1,12,13
 376 362 376 362 422.5 315 c 128,-1,14
 469 268 469 268 469 182 c 0,15,16
 469 133 469 133 448.5 88.5 c 128,-1,17
 428 44 428 44 393 0 c 1,18,-1
 305 0 l 1,0,1
EndSplineSet
EndChar

StartChar: uniA6EA
Encoding: 78 42730 75
Width: 498
Flags: W
LayerCount: 2
Fore
SplineSet
305 0 m 1,0,1
 342 46 342 46 360.5 86.5 c 128,-1,2
 379 127 379 127 379 174 c 0,3,4
 379 229 379 229 346 261.5 c 128,-1,5
 313 294 313 294 237 294 c 2,6,-1
 50 294 l 1,7,-1
 50 367 l 1,8,-1
 204 367 l 1,9,-1
 204 616 l 1,10,11
 183 605 183 605 162 593.5 c 128,-1,12
 141 582 141 582 117 570 c 2,13,-1
 50 536 l 1,14,-1
 50 618 l 1,15,-1
 241 714 l 1,16,-1
 294 714 l 1,17,-1
 294 367 l 1,18,19
 376 362 376 362 422.5 315 c 128,-1,20
 469 268 469 268 469 182 c 0,21,22
 469 133 469 133 448.5 88.5 c 128,-1,23
 428 44 428 44 393 0 c 1,24,-1
 305 0 l 1,0,1
EndSplineSet
EndChar

StartChar: uniA6EB
Encoding: 79 42731 76
Width: 546
Flags: W
LayerCount: 2
Fore
SplineSet
229 0 m 1,0,-1
 229 362 l 1,1,-1
 275 362 l 2,2,3
 320 362 320 362 347.5 383 c 128,-1,4
 375 404 375 404 387.5 437 c 128,-1,5
 400 470 400 470 400 507 c 0,6,7
 400 567 400 567 368 609 c 128,-1,8
 336 651 336 651 265 651 c 0,9,10
 206 651 206 651 167.5 622.5 c 128,-1,11
 129 594 129 594 95 550 c 1,12,-1
 37 599 l 1,13,14
 63 634 63 634 94 662.5 c 128,-1,15
 125 691 125 691 166.5 708 c 128,-1,16
 208 725 208 725 264 725 c 0,17,18
 344 725 344 725 394 694 c 128,-1,19
 444 663 444 663 467.5 613.5 c 128,-1,20
 491 564 491 564 491 507 c 0,21,22
 491 426 491 426 446 366 c 128,-1,23
 401 306 401 306 317 292 c 1,24,-1
 317 0 l 1,25,-1
 229 0 l 1,0,-1
EndSplineSet
EndChar

StartChar: uniA6EC
Encoding: 80 42732 77
Width: 469
Flags: W
LayerCount: 2
Fore
SplineSet
20 0 m 1,0,-1
 20 73 l 1,1,-1
 175 73 l 1,2,-1
 175 714 l 1,3,-1
 228 714 l 1,4,-1
 419 618 l 1,5,-1
 419 536 l 1,6,-1
 352 570 l 2,7,8
 328 582 328 582 307 593.5 c 128,-1,9
 286 605 286 605 265 616 c 1,10,-1
 265 73 l 1,11,-1
 419 73 l 1,12,-1
 419 0 l 1,13,-1
 20 0 l 1,0,-1
EndSplineSet
EndChar

StartChar: uniA6ED
Encoding: 81 42733 78
Width: 546
Flags: W
LayerCount: 2
Fore
SplineSet
229 0 m 1,0,-1
 229 282 l 1,1,-1
 74 363 l 1,2,-1
 106 426 l 1,3,-1
 227 362 l 1,4,-1
 272 362 l 2,5,6
 317 362 317 362 345 382.5 c 128,-1,7
 373 403 373 403 386.5 436 c 128,-1,8
 400 469 400 469 400 507 c 0,9,10
 400 567 400 567 368 609 c 128,-1,11
 336 651 336 651 265 651 c 0,12,13
 206 651 206 651 167.5 622.5 c 128,-1,14
 129 594 129 594 95 550 c 1,15,-1
 37 599 l 1,16,17
 63 634 63 634 94 662.5 c 128,-1,18
 125 691 125 691 166.5 708 c 128,-1,19
 208 725 208 725 264 725 c 0,20,21
 344 725 344 725 394 694 c 128,-1,22
 444 663 444 663 467.5 613.5 c 128,-1,23
 491 564 491 564 491 507 c 0,24,25
 491 431 491 431 450.5 377 c 128,-1,26
 410 323 410 323 334 306 c 1,27,-1
 490 225 l 1,28,-1
 458 162 l 1,29,-1
 317 236 l 1,30,-1
 317 0 l 1,31,-1
 229 0 l 1,0,-1
EndSplineSet
EndChar

StartChar: uniA6EE
Encoding: 82 42734 79
Width: 580
Flags: W
LayerCount: 2
Fore
SplineSet
20 0 m 1,0,-1
 20 79 l 1,1,-1
 164 79 l 1,2,-1
 164 714 l 1,3,-1
 483 714 l 1,4,-1
 483 0 l 1,5,-1
 393 0 l 1,6,-1
 393 635 l 1,7,-1
 254 635 l 1,8,-1
 254 0 l 1,9,-1
 20 0 l 1,0,-1
EndSplineSet
EndChar

StartChar: uniA6EF
Encoding: 83 42735 80
Width: 549
Flags: W
LayerCount: 2
Fore
SplineSet
275 -9 m 0,0,1
 166 -9 166 -9 108.5 37.5 c 128,-1,2
 51 84 51 84 51 176 c 0,3,4
 51 262 51 262 101 312 c 128,-1,5
 151 362 151 362 234 395 c 0,6,7
 289 417 289 417 324.5 436.5 c 128,-1,8
 360 456 360 456 377.5 480.5 c 128,-1,9
 395 505 395 505 395 542 c 0,10,11
 395 592 395 592 365 618 c 128,-1,12
 335 644 335 644 284 644 c 0,13,14
 240 644 240 644 207 621.5 c 128,-1,15
 174 599 174 599 174 551 c 0,16,17
 174 548 174 548 174.5 541 c 128,-1,18
 175 534 175 534 176 528 c 1,19,-1
 86 528 l 1,20,21
 85 534 85 534 84.5 541 c 128,-1,22
 84 548 84 548 84 552 c 0,23,24
 84 598 84 598 106 637 c 128,-1,25
 128 676 128 676 172.5 700 c 128,-1,26
 217 724 217 724 284 724 c 0,27,28
 342 724 342 724 387.5 703.5 c 128,-1,29
 433 683 433 683 459 643 c 128,-1,30
 485 603 485 603 485 543 c 0,31,32
 485 461 485 461 435.5 412 c 128,-1,33
 386 363 386 363 299 328 c 0,34,35
 239 304 239 304 204.5 284.5 c 128,-1,36
 170 265 170 265 155.5 241.5 c 128,-1,37
 141 218 141 218 141 182 c 0,38,39
 141 128 141 128 175 98.5 c 128,-1,40
 209 69 209 69 276 69 c 0,41,42
 313 69 313 69 345 81.5 c 128,-1,43
 377 94 377 94 397 122.5 c 128,-1,44
 417 151 417 151 417 198 c 0,45,46
 417 209 417 209 415.5 217 c 128,-1,47
 414 225 414 225 412 234 c 1,48,-1
 502 234 l 1,49,50
 504 224 504 224 505.5 213.5 c 128,-1,51
 507 203 507 203 507 190 c 0,52,53
 507 102 507 102 447.5 46.5 c 128,-1,54
 388 -9 388 -9 275 -9 c 0,0,1
EndSplineSet
EndChar

StartChar: u16800
Encoding: 92 92160 81
Width: 744
Flags: W
LayerCount: 2
Fore
SplineSet
392 -158 m 1,0,1
 378 -154 378 -154 359.5 -149 c 128,-1,2
 341 -144 341 -144 327.5 -133 c 128,-1,3
 314 -122 314 -122 314 -102 c 0,4,5
 314 -84 314 -84 325.5 -75.5 c 128,-1,6
 337 -67 337 -67 348.5 -63 c 128,-1,7
 360 -59 360 -59 360 -57 c 0,8,9
 360 -54 360 -54 346 -52 c 128,-1,10
 332 -50 332 -50 318 -42 c 128,-1,11
 304 -34 304 -34 304 -16 c 0,12,13
 304 -5 304 -5 309 3 c 128,-1,14
 314 11 314 11 321 16 c 1,15,-1
 169 99 l 1,16,17
 162 83 162 83 147 73.5 c 128,-1,18
 132 64 132 64 113 64 c 0,19,20
 87 64 87 64 68.5 82.5 c 128,-1,21
 50 101 50 101 50 127 c 256,22,23
 50 153 50 153 68.5 171.5 c 128,-1,24
 87 190 87 190 113 190 c 0,25,26
 144 190 144 190 163 166 c 1,27,-1
 254 243 l 1,28,-1
 167 303 l 1,29,30
 159 290 159 290 144.5 281 c 128,-1,31
 130 272 130 272 113 272 c 0,32,33
 87 272 87 272 68.5 290.5 c 128,-1,34
 50 309 50 309 50 335 c 256,35,36
 50 361 50 361 68.5 379.5 c 128,-1,37
 87 398 87 398 113 398 c 0,38,39
 129 398 129 398 142 391 c 128,-1,40
 155 384 155 384 165 372 c 1,41,-1
 251 432 l 1,42,-1
 163 506 l 1,43,44
 144 482 144 482 113 482 c 0,45,46
 87 482 87 482 68.5 500.5 c 128,-1,47
 50 519 50 519 50 545 c 256,48,49
 50 571 50 571 68.5 589.5 c 128,-1,50
 87 608 87 608 113 608 c 0,51,52
 132 608 132 608 147 598.5 c 128,-1,53
 162 589 162 589 169 573 c 1,54,-1
 333 664 l 2,55,56
 348 672 348 672 360.5 679 c 128,-1,57
 373 686 373 686 373 690 c 0,58,59
 373 693 373 693 359.5 696.5 c 128,-1,60
 346 700 346 700 332.5 708.5 c 128,-1,61
 319 717 319 717 319 734 c 0,62,63
 319 748 319 748 326.5 754.5 c 128,-1,64
 334 761 334 761 343 765 c 0,65,66
 349 768 349 768 359.5 772 c 128,-1,67
 370 776 370 776 370 780 c 0,68,69
 370 782 370 782 362 789 c 128,-1,70
 354 796 354 796 340 801 c 1,71,-1
 363 839 l 1,72,73
 381 831 381 831 400.5 818 c 128,-1,74
 420 805 420 805 420 778 c 0,75,76
 420 761 420 761 409.5 752 c 128,-1,77
 399 743 399 743 388.5 739.5 c 128,-1,78
 378 736 378 736 378 733 c 0,79,80
 378 731 378 731 391 728.5 c 128,-1,81
 404 726 404 726 417 718.5 c 128,-1,82
 430 711 430 711 430 692 c 0,83,84
 430 674 430 674 413 657 c 1,85,-1
 573 570 l 1,86,87
 580 587 580 587 596 597.5 c 128,-1,88
 612 608 612 608 631 608 c 0,89,90
 657 608 657 608 675.5 589.5 c 128,-1,91
 694 571 694 571 694 545 c 256,92,93
 694 519 694 519 675.5 500.5 c 128,-1,94
 657 482 657 482 631 482 c 0,95,96
 596 482 596 482 578 511 c 1,97,-1
 483 432 l 1,98,-1
 576 367 l 1,99,100
 584 381 584 381 599 389.5 c 128,-1,101
 614 398 614 398 631 398 c 0,102,103
 657 398 657 398 675.5 379.5 c 128,-1,104
 694 361 694 361 694 335 c 256,105,106
 694 309 694 309 675.5 290.5 c 128,-1,107
 657 272 657 272 631 272 c 0,108,109
 590 272 590 272 574 308 c 1,110,-1
 480 244 l 1,111,-1
 578 162 l 1,112,113
 596 190 596 190 631 190 c 0,114,115
 657 190 657 190 675.5 171.5 c 128,-1,116
 694 153 694 153 694 127 c 256,117,118
 694 101 694 101 675.5 82.5 c 128,-1,119
 657 64 657 64 631 64 c 0,120,121
 611 64 611 64 595.5 75 c 128,-1,122
 580 86 580 86 573 103 c 1,123,-1
 366 -9 l 2,124,125
 363 -10 363 -10 363 -13 c 256,126,127
 363 -16 363 -16 376 -18.5 c 128,-1,128
 389 -21 389 -21 402 -28 c 128,-1,129
 415 -35 415 -35 415 -53 c 0,130,131
 415 -66 415 -66 408.5 -75 c 128,-1,132
 402 -84 402 -84 391 -89 c 0,133,134
 386 -92 386 -92 375 -95.5 c 128,-1,135
 364 -99 364 -99 364 -102 c 0,136,137
 364 -106 364 -106 376.5 -110 c 128,-1,138
 389 -114 389 -114 406 -119 c 1,139,-1
 392 -158 l 1,0,1
366 48 m 1,140,-1
 530 137 l 1,141,-1
 398 248 l 1,142,-1
 530 339 l 1,143,-1
 401 428 l 1,144,-1
 530 536 l 1,145,-1
 366 625 l 1,146,-1
 206 536 l 1,147,-1
 332 428 l 1,148,-1
 206 339 l 1,149,-1
 335 248 l 1,150,-1
 206 137 l 1,151,-1
 366 48 l 1,140,-1
368 457 m 256,152,153
 342 457 342 457 323.5 475.5 c 128,-1,154
 305 494 305 494 305 520 c 256,155,156
 305 546 305 546 323.5 564.5 c 128,-1,157
 342 583 342 583 368 583 c 256,158,159
 394 583 394 583 412.5 564.5 c 128,-1,160
 431 546 431 546 431 520 c 256,161,162
 431 494 431 494 412.5 475.5 c 128,-1,163
 394 457 394 457 368 457 c 256,152,153
113 527 m 0,164,165
 121 527 121 527 126 532.5 c 128,-1,166
 131 538 131 538 131 545 c 0,167,168
 131 553 131 553 126 558 c 128,-1,169
 121 563 121 563 113 563 c 0,170,171
 106 563 106 563 100.5 558 c 128,-1,172
 95 553 95 553 95 545 c 0,173,174
 95 538 95 538 100.5 532.5 c 128,-1,175
 106 527 106 527 113 527 c 0,164,165
631 527 m 0,176,177
 639 527 639 527 644 532.5 c 128,-1,178
 649 538 649 538 649 545 c 0,179,180
 649 553 649 553 644 558 c 128,-1,181
 639 563 639 563 631 563 c 0,182,183
 624 563 624 563 618.5 558 c 128,-1,184
 613 553 613 553 613 545 c 0,185,186
 613 538 613 538 618.5 532.5 c 128,-1,187
 624 527 624 527 631 527 c 0,176,177
368 502 m 0,188,189
 376 502 376 502 381 507.5 c 128,-1,190
 386 513 386 513 386 520 c 0,191,192
 386 528 386 528 381 533 c 128,-1,193
 376 538 376 538 368 538 c 0,194,195
 361 538 361 538 355.5 533 c 128,-1,196
 350 528 350 528 350 520 c 0,197,198
 350 513 350 513 355.5 507.5 c 128,-1,199
 361 502 361 502 368 502 c 0,188,189
368 272 m 256,200,201
 342 272 342 272 323.5 290.5 c 128,-1,202
 305 309 305 309 305 335 c 256,203,204
 305 361 305 361 323.5 379.5 c 128,-1,205
 342 398 342 398 368 398 c 256,206,207
 394 398 394 398 412.5 379.5 c 128,-1,208
 431 361 431 361 431 335 c 256,209,210
 431 309 431 309 412.5 290.5 c 128,-1,211
 394 272 394 272 368 272 c 256,200,201
113 317 m 0,212,213
 121 317 121 317 126 322.5 c 128,-1,214
 131 328 131 328 131 335 c 0,215,216
 131 343 131 343 126 348 c 128,-1,217
 121 353 121 353 113 353 c 0,218,219
 106 353 106 353 100.5 348 c 128,-1,220
 95 343 95 343 95 335 c 0,221,222
 95 328 95 328 100.5 322.5 c 128,-1,223
 106 317 106 317 113 317 c 0,212,213
368 317 m 0,224,225
 376 317 376 317 381 322.5 c 128,-1,226
 386 328 386 328 386 335 c 0,227,228
 386 343 386 343 381 348 c 128,-1,229
 376 353 376 353 368 353 c 0,230,231
 361 353 361 353 355.5 348 c 128,-1,232
 350 343 350 343 350 335 c 0,233,234
 350 328 350 328 355.5 322.5 c 128,-1,235
 361 317 361 317 368 317 c 0,224,225
631 317 m 0,236,237
 639 317 639 317 644 322.5 c 128,-1,238
 649 328 649 328 649 335 c 0,239,240
 649 343 649 343 644 348 c 128,-1,241
 639 353 639 353 631 353 c 0,242,243
 624 353 624 353 618.5 348 c 128,-1,244
 613 343 613 343 613 335 c 0,245,246
 613 328 613 328 618.5 322.5 c 128,-1,247
 624 317 624 317 631 317 c 0,236,237
368 89 m 256,248,249
 342 89 342 89 323.5 107.5 c 128,-1,250
 305 126 305 126 305 152 c 256,251,252
 305 178 305 178 323.5 196.5 c 128,-1,253
 342 215 342 215 368 215 c 256,254,255
 394 215 394 215 412.5 196.5 c 128,-1,256
 431 178 431 178 431 152 c 256,257,258
 431 126 431 126 412.5 107.5 c 128,-1,259
 394 89 394 89 368 89 c 256,248,249
368 134 m 0,260,261
 376 134 376 134 381 139.5 c 128,-1,262
 386 145 386 145 386 152 c 0,263,264
 386 160 386 160 381 165 c 128,-1,265
 376 170 376 170 368 170 c 0,266,267
 361 170 361 170 355.5 165 c 128,-1,268
 350 160 350 160 350 152 c 0,269,270
 350 145 350 145 355.5 139.5 c 128,-1,271
 361 134 361 134 368 134 c 0,260,261
113 109 m 0,272,273
 121 109 121 109 126 114.5 c 128,-1,274
 131 120 131 120 131 127 c 0,275,276
 131 135 131 135 126 140 c 128,-1,277
 121 145 121 145 113 145 c 0,278,279
 106 145 106 145 100.5 140 c 128,-1,280
 95 135 95 135 95 127 c 0,281,282
 95 120 95 120 100.5 114.5 c 128,-1,283
 106 109 106 109 113 109 c 0,272,273
631 109 m 0,284,285
 639 109 639 109 644 114.5 c 128,-1,286
 649 120 649 120 649 127 c 0,287,288
 649 135 649 135 644 140 c 128,-1,289
 639 145 639 145 631 145 c 0,290,291
 624 145 624 145 618.5 140 c 128,-1,292
 613 135 613 135 613 127 c 0,293,294
 613 120 613 120 618.5 114.5 c 128,-1,295
 624 109 624 109 631 109 c 0,284,285
EndSplineSet
EndChar

StartChar: u16801
Encoding: 93 92161 82
Width: 921
Flags: W
LayerCount: 2
Fore
SplineSet
461 -60 m 256,0,1
 403 -60 403 -60 360.5 -35.5 c 128,-1,2
 318 -11 318 -11 292 26.5 c 128,-1,3
 266 64 266 64 256 101 c 0,4,5
 252 115 252 115 247.5 127.5 c 128,-1,6
 243 140 243 140 217 145 c 0,7,8
 178 153 178 153 139.5 179 c 128,-1,9
 101 205 101 205 75.5 248 c 128,-1,10
 50 291 50 291 50 349 c 256,11,12
 50 407 50 407 74 449.5 c 128,-1,13
 98 492 98 492 135 518.5 c 128,-1,14
 172 545 172 545 209 554 c 0,15,16
 235 560 235 560 243 569.5 c 128,-1,17
 251 579 251 579 254 592 c 0,18,19
 264 633 264 633 290 671.5 c 128,-1,20
 316 710 316 710 359 735 c 128,-1,21
 402 760 402 760 461 760 c 0,22,23
 519 760 519 760 561 736 c 128,-1,24
 603 712 603 712 629.5 675 c 128,-1,25
 656 638 656 638 665 599 c 0,26,27
 669 583 669 583 676.5 570.5 c 128,-1,28
 684 558 684 558 710 553 c 0,29,30
 749 545 749 545 786 518.5 c 128,-1,31
 823 492 823 492 847 449.5 c 128,-1,32
 871 407 871 407 871 349 c 256,33,34
 871 291 871 291 845.5 248.5 c 128,-1,35
 820 206 820 206 782 180 c 128,-1,36
 744 154 744 154 704 145 c 0,37,38
 688 141 688 141 679.5 134 c 128,-1,39
 671 127 671 127 665 101 c 0,40,41
 656 64 656 64 629.5 26.5 c 128,-1,42
 603 -11 603 -11 561 -35.5 c 128,-1,43
 519 -60 519 -60 461 -60 c 256,0,1
461 -10 m 256,44,45
 504 -10 504 -10 536 9 c 128,-1,46
 568 28 568 28 588.5 56.5 c 128,-1,47
 609 85 609 85 617 113 c 0,48,49
 623 131 623 131 628 147.5 c 128,-1,50
 633 164 633 164 647.5 176.5 c 128,-1,51
 662 189 662 189 694 195 c 0,52,53
 724 201 724 201 753 221 c 128,-1,54
 782 241 782 241 801.5 273.5 c 128,-1,55
 821 306 821 306 821 349 c 256,56,57
 821 392 821 392 802 424.5 c 128,-1,58
 783 457 783 457 755 478 c 128,-1,59
 727 499 727 499 698 505 c 0,60,61
 667 512 667 512 648.5 526 c 128,-1,62
 630 540 630 540 617 587 c 0,63,64
 610 615 610 615 589.5 643.5 c 128,-1,65
 569 672 569 672 536.5 691 c 128,-1,66
 504 710 504 710 461 710 c 256,67,68
 418 710 418 710 385.5 691 c 128,-1,69
 353 672 353 672 332.5 643.5 c 128,-1,70
 312 615 312 615 304 587 c 0,71,72
 297 559 297 559 282 536.5 c 128,-1,73
 267 514 267 514 223 505 c 0,74,75
 195 499 195 499 166.5 478.5 c 128,-1,76
 138 458 138 458 119 425 c 128,-1,77
 100 392 100 392 100 349 c 256,78,79
 100 306 100 306 119.5 273.5 c 128,-1,80
 139 241 139 241 168.5 221 c 128,-1,81
 198 201 198 201 227 195 c 0,82,83
 259 189 259 189 273.5 177 c 128,-1,84
 288 165 288 165 293.5 149 c 128,-1,85
 299 133 299 133 304 113 c 0,86,87
 312 85 312 85 332.5 56.5 c 128,-1,88
 353 28 353 28 385.5 9 c 128,-1,89
 418 -10 418 -10 461 -10 c 256,44,45
462 50 m 256,90,91
 427 50 427 50 398.5 70 c 128,-1,92
 370 90 370 90 353.5 124.5 c 128,-1,93
 337 159 337 159 337 200 c 0,94,95
 337 207 337 207 337.5 215 c 128,-1,96
 338 223 338 223 339 229 c 1,97,98
 333 227 333 227 325 226 c 128,-1,99
 317 225 317 225 310 225 c 0,100,101
 269 225 269 225 234.5 241.5 c 128,-1,102
 200 258 200 258 180 286.5 c 128,-1,103
 160 315 160 315 160 350 c 256,104,105
 160 385 160 385 180 413.5 c 128,-1,106
 200 442 200 442 234.5 458.5 c 128,-1,107
 269 475 269 475 310 475 c 0,108,109
 316 475 316 475 324.5 474 c 128,-1,110
 333 473 333 473 339 470 c 1,111,112
 338 477 338 477 337.5 485 c 128,-1,113
 337 493 337 493 337 500 c 0,114,115
 337 542 337 542 353.5 576 c 128,-1,116
 370 610 370 610 398.5 630 c 128,-1,117
 427 650 427 650 462 650 c 256,118,119
 497 650 497 650 525.5 630 c 128,-1,120
 554 610 554 610 570.5 576 c 128,-1,121
 587 542 587 542 587 500 c 0,122,123
 587 486 587 486 585 472 c 1,124,125
 600 475 600 475 611 475 c 0,126,127
 653 475 653 475 687 458.5 c 128,-1,128
 721 442 721 442 741 413.5 c 128,-1,129
 761 385 761 385 761 350 c 256,130,131
 761 315 761 315 741 286.5 c 128,-1,132
 721 258 721 258 687 241.5 c 128,-1,133
 653 225 653 225 611 225 c 0,134,135
 596 225 596 225 584 228 c 1,136,137
 586 223 586 223 586.5 214.5 c 128,-1,138
 587 206 587 206 587 200 c 0,139,140
 587 159 587 159 570.5 124.5 c 128,-1,141
 554 90 554 90 525.5 70 c 128,-1,142
 497 50 497 50 462 50 c 256,90,91
435 425 m 1,143,-1
 435 593 l 1,144,145
 413 583 413 583 400 558.5 c 128,-1,146
 387 534 387 534 387 500 c 0,147,148
 387 474 387 474 400 453.5 c 128,-1,149
 413 433 413 433 435 425 c 1,143,-1
486 425 m 1,150,151
 509 433 509 433 523.5 453.5 c 128,-1,152
 538 474 538 474 538 500 c 0,153,154
 538 532 538 532 523.5 557.5 c 128,-1,155
 509 583 509 583 486 593 c 1,156,-1
 486 425 l 1,150,151
217 374 m 1,157,-1
 398 374 l 1,158,159
 391 397 391 397 363.5 411.5 c 128,-1,160
 336 426 336 426 310 426 c 0,161,162
 278 426 278 426 252.5 411.5 c 128,-1,163
 227 397 227 397 217 374 c 1,157,-1
525 374 m 1,164,-1
 704 374 l 1,165,166
 694 397 694 397 668.5 411.5 c 128,-1,167
 643 426 643 426 611 426 c 0,168,169
 585 426 585 426 559 411.5 c 128,-1,170
 533 397 533 397 525 374 c 1,164,-1
310 275 m 0,171,172
 336 275 336 275 363 288 c 128,-1,173
 390 301 390 301 398 323 c 1,174,-1
 217 323 l 1,175,176
 228 301 228 301 252 288 c 128,-1,177
 276 275 276 275 310 275 c 0,171,172
611 275 m 0,178,179
 645 275 645 275 669.5 288 c 128,-1,180
 694 301 694 301 704 323 c 1,181,-1
 525 323 l 1,182,183
 533 301 533 301 559 288 c 128,-1,184
 585 275 585 275 611 275 c 0,178,179
435 107 m 1,185,-1
 435 275 l 1,186,187
 413 267 413 267 400 246.5 c 128,-1,188
 387 226 387 226 387 200 c 0,189,190
 387 166 387 166 400 142 c 128,-1,191
 413 118 413 118 435 107 c 1,185,-1
486 107 m 1,192,193
 509 117 509 117 523.5 142.5 c 128,-1,194
 538 168 538 168 538 200 c 0,195,196
 538 226 538 226 523.5 247 c 128,-1,197
 509 268 509 268 486 275 c 1,198,-1
 486 107 l 1,192,193
EndSplineSet
EndChar

StartChar: u16802
Encoding: 94 92162 83
Width: 739
Flags: W
LayerCount: 2
Fore
SplineSet
384 46 m 0,0,1
 322 46 322 46 269.5 64.5 c 128,-1,2
 217 83 217 83 176.5 111 c 128,-1,3
 136 139 136 139 107.5 169.5 c 128,-1,4
 79 200 79 200 64.5 224.5 c 128,-1,5
 50 249 50 249 50 260 c 0,6,7
 50 273 50 273 56.5 280 c 128,-1,8
 63 287 63 287 80 287 c 0,9,10
 91 287 91 287 108.5 281.5 c 128,-1,11
 126 276 126 276 145 268 c 0,12,13
 167 259 167 259 198.5 246.5 c 128,-1,14
 230 234 230 234 262 223 c 1,15,16
 245 249 245 249 235 282.5 c 128,-1,17
 225 316 225 316 225 352 c 0,18,19
 225 431 225 431 267 489 c 1,20,21
 236 479 236 479 208.5 465 c 128,-1,22
 181 451 181 451 161 440 c 0,23,24
 143 430 143 430 126.5 423 c 128,-1,25
 110 416 110 416 99 416 c 0,26,27
 77 416 77 416 64 430 c 128,-1,28
 51 444 51 444 51 469 c 0,29,30
 51 513 51 513 87.5 556.5 c 128,-1,31
 124 600 124 600 192 629 c 128,-1,32
 260 658 260 658 355 658 c 0,33,34
 417 658 417 658 469.5 639.5 c 128,-1,35
 522 621 522 621 562.5 592.5 c 128,-1,36
 603 564 603 564 631.5 534.5 c 128,-1,37
 660 505 660 505 674.5 481 c 128,-1,38
 689 457 689 457 689 449 c 0,39,40
 689 433 689 433 681.5 425 c 128,-1,41
 674 417 674 417 663 417 c 0,42,43
 647 417 647 417 630.5 422.5 c 128,-1,44
 614 428 614 428 594 436 c 0,45,46
 572 445 572 445 540.5 458 c 128,-1,47
 509 471 509 471 477 481 c 1,48,49
 494 456 494 456 504 422 c 128,-1,50
 514 388 514 388 514 352 c 0,51,52
 514 274 514 274 472 215 c 1,53,54
 503 225 503 225 531 239.5 c 128,-1,55
 559 254 559 254 578 264 c 0,56,57
 596 274 596 274 612.5 281 c 128,-1,58
 629 288 629 288 640 288 c 0,59,60
 662 288 662 288 675 274.5 c 128,-1,61
 688 261 688 261 688 235 c 0,62,63
 688 191 688 191 651.5 147.5 c 128,-1,64
 615 104 615 104 547 75 c 128,-1,65
 479 46 479 46 384 46 c 0,0,1
107 467 m 0,66,67
 109 467 109 467 116 472 c 128,-1,68
 123 477 123 477 137 484 c 0,69,70
 161 497 161 497 194 512 c 128,-1,71
 227 527 227 527 269 538.5 c 128,-1,72
 311 550 311 550 363 550 c 0,73,74
 423 550 423 550 491 527.5 c 128,-1,75
 559 505 559 505 624 476 c 1,76,-1
 625 479 l 1,77,78
 612 495 612 495 587.5 517 c 128,-1,79
 563 539 563 539 529 559.5 c 128,-1,80
 495 580 495 580 451 594 c 128,-1,81
 407 608 407 608 355 608 c 0,82,83
 275 608 275 608 218 585.5 c 128,-1,84
 161 563 161 563 131 532 c 128,-1,85
 101 501 101 501 101 475 c 0,86,87
 101 467 101 467 107 467 c 0,66,67
372 204 m 0,88,89
 396 204 396 204 417 224.5 c 128,-1,90
 438 245 438 245 451 278.5 c 128,-1,91
 464 312 464 312 464 352 c 0,92,93
 464 373 464 373 459 398.5 c 128,-1,94
 454 424 454 424 442 447 c 128,-1,95
 430 470 430 470 411.5 485 c 128,-1,96
 393 500 393 500 366 500 c 0,97,98
 342 500 342 500 321 479.5 c 128,-1,99
 300 459 300 459 287.5 425.5 c 128,-1,100
 275 392 275 392 275 352 c 0,101,102
 275 331 275 331 280 305.5 c 128,-1,103
 285 280 285 280 296.5 257 c 128,-1,104
 308 234 308 234 326.5 219 c 128,-1,105
 345 204 345 204 372 204 c 0,88,89
384 96 m 0,106,107
 464 96 464 96 521 118.5 c 128,-1,108
 578 141 578 141 608 172.5 c 128,-1,109
 638 204 638 204 638 229 c 0,110,111
 638 237 638 237 632 237 c 0,112,113
 630 237 630 237 623 232.5 c 128,-1,114
 616 228 616 228 602 220 c 0,115,116
 578 208 578 208 545 192.5 c 128,-1,117
 512 177 512 177 470 165.5 c 128,-1,118
 428 154 428 154 376 154 c 0,119,120
 310 154 310 154 245 177 c 128,-1,121
 180 200 180 200 115 229 c 1,122,-1
 113 226 l 1,123,124
 126 210 126 210 150.5 188 c 128,-1,125
 175 166 175 166 209.5 145 c 128,-1,126
 244 124 244 124 288 110 c 128,-1,127
 332 96 332 96 384 96 c 0,106,107
EndSplineSet
EndChar

StartChar: u16803
Encoding: 95 92163 84
Width: 538
Flags: W
LayerCount: 2
Fore
SplineSet
179 -48 m 1,0,-1
 149 -8 l 1,1,2
 168 5 168 5 190 23.5 c 128,-1,3
 212 42 212 42 228 71.5 c 128,-1,4
 244 101 244 101 244 146 c 1,5,-1
 100 196 l 1,6,-1
 100 101 l 1,7,-1
 50 101 l 1,8,-1
 50 262 l 1,9,-1
 189 213 l 1,10,11
 174 245 174 245 168 278 c 128,-1,12
 162 311 162 311 162 341 c 0,13,14
 162 378 162 378 169 409 c 128,-1,15
 176 440 176 440 186 462 c 1,16,-1
 59 419 l 1,17,-1
 50 564 l 1,18,-1
 100 564 l 1,19,-1
 105 484 l 1,20,-1
 199 511 l 1,21,22
 184 523 184 523 177.5 538 c 128,-1,23
 171 553 171 553 171 570 c 0,24,25
 171 593 171 593 196.5 627.5 c 128,-1,26
 222 662 222 662 269 686 c 1,27,28
 316 662 316 662 341.5 627.5 c 128,-1,29
 367 593 367 593 367 570 c 0,30,31
 367 553 367 553 360.5 538 c 128,-1,32
 354 523 354 523 339 511 c 1,33,-1
 433 484 l 1,34,-1
 438 564 l 1,35,-1
 488 564 l 1,36,-1
 479 419 l 1,37,-1
 352 462 l 1,38,39
 363 438 363 438 369.5 408 c 128,-1,40
 376 378 376 378 376 341 c 0,41,42
 376 311 376 311 370 278 c 128,-1,43
 364 245 364 245 349 213 c 1,44,-1
 488 262 l 1,45,-1
 488 101 l 1,46,-1
 438 101 l 1,47,-1
 438 196 l 1,48,-1
 302 149 l 1,49,50
 299 89 299 89 277 51 c 128,-1,51
 255 13 255 13 228 -9.5 c 128,-1,52
 201 -32 201 -32 179 -48 c 1,0,-1
270 534 m 0,53,54
 299 534 299 534 308 548.5 c 128,-1,55
 317 563 317 563 317 570 c 0,56,57
 317 581 317 581 305 598.5 c 128,-1,58
 293 616 293 616 269 630 c 1,59,60
 245 616 245 616 233 598.5 c 128,-1,61
 221 581 221 581 221 570 c 0,62,63
 221 563 221 563 230.5 548.5 c 128,-1,64
 240 534 240 534 270 534 c 0,53,54
267 194 m 0,65,66
 275 194 275 194 289 207.5 c 128,-1,67
 303 221 303 221 314.5 253 c 128,-1,68
 326 285 326 285 326 340 c 0,69,70
 326 392 326 392 314 425 c 128,-1,71
 302 458 302 458 288.5 474.5 c 128,-1,72
 275 491 275 491 268 491 c 0,73,74
 263 491 263 491 249 474.5 c 128,-1,75
 235 458 235 458 223.5 425 c 128,-1,76
 212 392 212 392 212 340 c 0,77,78
 212 285 212 285 223 253 c 128,-1,79
 234 221 234 221 247.5 207.5 c 128,-1,80
 261 194 261 194 267 194 c 0,65,66
EndSplineSet
EndChar

StartChar: u16804
Encoding: 96 92164 85
Width: 1020
Flags: W
LayerCount: 2
Fore
SplineSet
510 -44 m 1,0,-1
 496 -12 l 1,1,-1
 486 315 l 1,2,-1
 212 75 l 1,3,-1
 179 62 l 1,4,-1
 50 375 l 1,5,-1
 82 389 l 1,6,-1
 451 389 l 1,7,-1
 222 617 l 1,8,-1
 208 650 l 1,9,-1
 510 775 l 1,10,-1
 524 743 l 1,11,-1
 534 420 l 1,12,-1
 808 660 l 1,13,-1
 841 674 l 1,14,-1
 970 354 l 1,15,-1
 938 339 l 1,16,-1
 572 339 l 1,17,-1
 798 114 l 1,18,-1
 812 81 l 1,19,-1
 510 -44 l 1,0,-1
483 429 m 1,20,-1
 475 706 l 1,21,-1
 284 627 l 1,22,-1
 483 429 l 1,20,-1
433 610 m 256,23,24
 421 610 421 610 413 618 c 128,-1,25
 405 626 405 626 405 638 c 256,26,27
 405 650 405 650 413 658.5 c 128,-1,28
 421 667 421 667 433 667 c 256,29,30
 445 667 445 667 453.5 658.5 c 128,-1,31
 462 650 462 650 462 638 c 256,32,33
 462 626 462 626 453.5 618 c 128,-1,34
 445 610 445 610 433 610 c 256,23,24
365 581 m 256,35,36
 353 581 353 581 345 589 c 128,-1,37
 337 597 337 597 337 609 c 256,38,39
 337 621 337 621 345 629.5 c 128,-1,40
 353 638 353 638 365 638 c 256,41,42
 377 638 377 638 385.5 629.5 c 128,-1,43
 394 621 394 621 394 609 c 256,44,45
 394 597 394 597 385.5 589 c 128,-1,46
 377 581 377 581 365 581 c 256,35,36
573 389 m 1,47,-1
 901 389 l 1,48,49
 879 443 879 443 860 492.5 c 128,-1,50
 841 542 841 542 817 600 c 1,51,-1
 573 389 l 1,47,-1
433 518 m 256,52,53
 421 518 421 518 413 526 c 128,-1,54
 405 534 405 534 405 546 c 256,55,56
 405 558 405 558 413 566.5 c 128,-1,57
 421 575 421 575 433 575 c 256,58,59
 445 575 445 575 453.5 566.5 c 128,-1,60
 462 558 462 558 462 546 c 256,61,62
 462 534 462 534 453.5 526 c 128,-1,63
 445 518 445 518 433 518 c 256,52,53
793 483 m 256,64,65
 781 483 781 483 773 491.5 c 128,-1,66
 765 500 765 500 765 512 c 256,67,68
 765 524 765 524 773 532 c 128,-1,69
 781 540 781 540 793 540 c 256,70,71
 805 540 805 540 813.5 532 c 128,-1,72
 822 524 822 524 822 512 c 256,73,74
 822 500 822 500 813.5 491.5 c 128,-1,75
 805 483 805 483 793 483 c 256,64,65
730 415 m 256,76,77
 718 415 718 415 710 423.5 c 128,-1,78
 702 432 702 432 702 444 c 256,79,80
 702 456 702 456 710 464 c 128,-1,81
 718 472 718 472 730 472 c 256,82,83
 742 472 742 472 750.5 464 c 128,-1,84
 759 456 759 456 759 444 c 256,85,86
 759 432 759 432 750.5 423.5 c 128,-1,87
 742 415 742 415 730 415 c 256,76,77
822 415 m 256,88,89
 810 415 810 415 802 423.5 c 128,-1,90
 794 432 794 432 794 444 c 256,91,92
 794 456 794 456 802 464 c 128,-1,93
 810 472 810 472 822 472 c 256,94,95
 834 472 834 472 842.5 464 c 128,-1,96
 851 456 851 456 851 444 c 256,97,98
 851 432 851 432 842.5 423.5 c 128,-1,99
 834 415 834 415 822 415 c 256,88,89
203 134 m 1,100,-1
 439 339 l 1,101,-1
 120 339 l 1,102,-1
 203 134 l 1,100,-1
195 265 m 256,103,104
 183 265 183 265 174.5 273 c 128,-1,105
 166 281 166 281 166 293 c 256,106,107
 166 305 166 305 174.5 313.5 c 128,-1,108
 183 322 183 322 195 322 c 256,109,110
 207 322 207 322 215 313.5 c 128,-1,111
 223 305 223 305 223 293 c 256,112,113
 223 281 223 281 215 273 c 128,-1,114
 207 265 207 265 195 265 c 256,103,104
287 265 m 256,115,116
 275 265 275 265 266.5 273 c 128,-1,117
 258 281 258 281 258 293 c 256,118,119
 258 305 258 305 266.5 313.5 c 128,-1,120
 275 322 275 322 287 322 c 256,121,122
 299 322 299 322 307 313.5 c 128,-1,123
 315 305 315 305 315 293 c 256,124,125
 315 281 315 281 307 273 c 128,-1,126
 299 265 299 265 287 265 c 256,115,116
545 25 m 1,127,-1
 736 104 l 1,128,-1
 537 302 l 1,129,-1
 545 25 l 1,127,-1
224 197 m 256,130,131
 212 197 212 197 203.5 205 c 128,-1,132
 195 213 195 213 195 225 c 256,133,134
 195 237 195 237 203.5 245.5 c 128,-1,135
 212 254 212 254 224 254 c 256,136,137
 236 254 236 254 244 245.5 c 128,-1,138
 252 237 252 237 252 225 c 256,139,140
 252 213 252 213 244 205 c 128,-1,141
 236 197 236 197 224 197 c 256,130,131
588 161 m 256,142,143
 576 161 576 161 567.5 169.5 c 128,-1,144
 559 178 559 178 559 190 c 256,145,146
 559 202 559 202 567.5 210 c 128,-1,147
 576 218 576 218 588 218 c 256,148,149
 600 218 600 218 608 210 c 128,-1,150
 616 202 616 202 616 190 c 256,151,152
 616 178 616 178 608 169.5 c 128,-1,153
 600 161 600 161 588 161 c 256,142,143
656 98 m 256,154,155
 644 98 644 98 635.5 106.5 c 128,-1,156
 627 115 627 115 627 127 c 256,157,158
 627 139 627 139 635.5 147 c 128,-1,159
 644 155 644 155 656 155 c 256,160,161
 668 155 668 155 676 147 c 128,-1,162
 684 139 684 139 684 127 c 256,163,164
 684 115 684 115 676 106.5 c 128,-1,165
 668 98 668 98 656 98 c 256,154,155
588 69 m 256,166,167
 576 69 576 69 567.5 77.5 c 128,-1,168
 559 86 559 86 559 98 c 256,169,170
 559 110 559 110 567.5 118 c 128,-1,171
 576 126 576 126 588 126 c 256,172,173
 600 126 600 126 608 118 c 128,-1,174
 616 110 616 110 616 98 c 256,175,176
 616 86 616 86 608 77.5 c 128,-1,177
 600 69 600 69 588 69 c 256,166,167
EndSplineSet
EndChar

StartChar: u16805
Encoding: 97 92165 86
Width: 748
Flags: W
LayerCount: 2
Fore
SplineSet
84 0 m 1,0,-1
 84 35 l 1,1,2
 118 112 118 112 156 188 c 128,-1,3
 194 264 194 264 241 338 c 1,4,5
 176 342 176 342 133.5 360 c 128,-1,6
 91 378 91 378 70.5 404 c 128,-1,7
 50 430 50 430 50 456 c 0,8,9
 50 489 50 489 74.5 513.5 c 128,-1,10
 99 538 99 538 139 549 c 1,11,12
 125 572 125 572 115.5 599.5 c 128,-1,13
 106 627 106 627 106 664 c 0,14,15
 106 689 106 689 114 718 c 128,-1,16
 122 747 122 747 140 773.5 c 128,-1,17
 158 800 158 800 189.5 817.5 c 128,-1,18
 221 835 221 835 269 836 c 1,19,-1
 287 810 l 1,20,21
 262 766 262 766 253 735 c 128,-1,22
 244 704 244 704 244 671 c 0,23,24
 244 636 244 636 260.5 604.5 c 128,-1,25
 277 573 277 573 301.5 548 c 128,-1,26
 326 523 326 523 349 505 c 2,27,-1
 374 486 l 1,28,-1
 399 505 l 2,29,30
 422 523 422 523 446.5 548 c 128,-1,31
 471 573 471 573 487.5 604.5 c 128,-1,32
 504 636 504 636 504 671 c 256,33,34
 504 706 504 706 494 737.5 c 128,-1,35
 484 769 484 769 461 810 c 1,36,-1
 484 836 l 1,37,38
 529 834 529 834 559.5 816.5 c 128,-1,39
 590 799 590 799 608 773 c 128,-1,40
 626 747 626 747 634 718.5 c 128,-1,41
 642 690 642 690 642 664 c 0,42,43
 642 627 642 627 632.5 599.5 c 128,-1,44
 623 572 623 572 609 549 c 1,45,46
 650 538 650 538 674 513.5 c 128,-1,47
 698 489 698 489 698 456 c 0,48,49
 698 413 698 413 649.5 377 c 128,-1,50
 601 341 601 341 507 338 c 1,51,52
 554 265 554 265 591.5 188 c 128,-1,53
 629 111 629 111 663 35 c 1,54,-1
 663 0 l 1,55,-1
 84 0 l 1,0,-1
233 555 m 1,56,57
 211 587 211 587 202.5 614.5 c 128,-1,58
 194 642 194 642 194 670 c 0,59,60
 194 689 194 689 198 717 c 128,-1,61
 202 745 202 745 218 777 c 1,62,-1
 216 779 l 1,63,64
 185 760 185 760 170.5 726.5 c 128,-1,65
 156 693 156 693 156 664 c 0,66,67
 156 629 156 629 167 603 c 128,-1,68
 178 577 178 577 193 558 c 1,69,-1
 203 558 l 2,70,71
 211 558 211 558 218.5 557 c 128,-1,72
 226 556 226 556 233 555 c 1,56,57
515 555 m 1,73,74
 523 556 523 556 530.5 557 c 128,-1,75
 538 558 538 558 545 558 c 2,76,-1
 555 558 l 1,77,78
 570 577 570 577 581 603 c 128,-1,79
 592 629 592 629 592 664 c 0,80,81
 592 693 592 693 578 726.5 c 128,-1,82
 564 760 564 760 532 779 c 1,83,-1
 530 777 l 1,84,85
 547 745 547 745 550.5 717 c 128,-1,86
 554 689 554 689 554 670 c 0,87,88
 554 642 554 642 546 614.5 c 128,-1,89
 538 587 538 587 515 555 c 1,73,74
274 387 m 1,90,91
 288 406 288 406 303.5 425 c 128,-1,92
 319 444 319 444 334 459 c 1,93,94
 307 479 307 479 275.5 493.5 c 128,-1,95
 244 508 244 508 203 508 c 0,96,97
 158 508 158 508 129 493.5 c 128,-1,98
 100 479 100 479 100 456 c 0,99,100
 100 432 100 432 144.5 409.5 c 128,-1,101
 189 387 189 387 274 387 c 1,90,91
474 387 m 1,102,103
 560 387 560 387 604 409.5 c 128,-1,104
 648 432 648 432 648 456 c 0,105,106
 648 479 648 479 619 493.5 c 128,-1,107
 590 508 590 508 545 508 c 0,108,109
 505 508 505 508 473 493.5 c 128,-1,110
 441 479 441 479 414 459 c 1,111,112
 429 444 429 444 445 425 c 128,-1,113
 461 406 461 406 474 387 c 1,102,103
365 50 m 1,114,-1
 383 50 l 1,115,116
 394 93 394 93 431.5 120.5 c 128,-1,117
 469 148 469 148 518 148 c 0,118,119
 529 148 529 148 540 145.5 c 128,-1,120
 551 143 551 143 561 137 c 1,121,122
 523 215 523 215 476 294.5 c 128,-1,123
 429 374 429 374 374 429 c 1,124,125
 319 374 319 374 272 294.5 c 128,-1,126
 225 215 225 215 187 137 c 1,127,128
 197 143 197 143 208.5 145.5 c 128,-1,129
 220 148 220 148 230 148 c 0,130,131
 280 148 280 148 317.5 120.5 c 128,-1,132
 355 93 355 93 365 50 c 1,114,-1
308 207 m 0,133,134
 295 207 295 207 285.5 216.5 c 128,-1,135
 276 226 276 226 276 239 c 0,136,137
 276 253 276 253 285.5 262.5 c 128,-1,138
 295 272 295 272 308 272 c 0,139,140
 322 272 322 272 331.5 262.5 c 128,-1,141
 341 253 341 253 341 239 c 0,142,143
 341 226 341 226 331.5 216.5 c 128,-1,144
 322 207 322 207 308 207 c 0,133,134
441 207 m 0,145,146
 428 207 428 207 418.5 216.5 c 128,-1,147
 409 226 409 226 409 239 c 0,148,149
 409 253 409 253 418.5 262.5 c 128,-1,150
 428 272 428 272 441 272 c 0,151,152
 455 272 455 272 464.5 262.5 c 128,-1,153
 474 253 474 253 474 239 c 0,154,155
 474 226 474 226 464.5 216.5 c 128,-1,156
 455 207 455 207 441 207 c 0,145,146
148 50 m 1,157,-1
 313 50 l 1,158,159
 303 71 303 71 280.5 84.5 c 128,-1,160
 258 98 258 98 230 98 c 256,161,162
 202 98 202 98 180 84.5 c 128,-1,163
 158 71 158 71 148 50 c 1,157,-1
435 50 m 1,164,-1
 600 50 l 1,165,166
 590 71 590 71 568 84.5 c 128,-1,167
 546 98 546 98 518 98 c 256,168,169
 490 98 490 98 467.5 84.5 c 128,-1,170
 445 71 445 71 435 50 c 1,164,-1
EndSplineSet
EndChar

StartChar: u16806
Encoding: 98 92166 87
Width: 937
Flags: W
LayerCount: 2
Fore
SplineSet
163 0 m 1,0,-1
 163 35 l 1,1,2
 179 70 179 70 206 128 c 128,-1,3
 233 186 233 186 266 255.5 c 128,-1,4
 299 325 299 325 332 392 c 1,5,6
 290 398 290 398 272 425.5 c 128,-1,7
 254 453 254 453 254 481 c 0,8,9
 254 516 254 516 276.5 541.5 c 128,-1,10
 299 567 299 567 345 567 c 0,11,12
 366 567 366 567 382.5 561 c 128,-1,13
 399 555 399 555 412 546 c 1,14,-1
 438 594 l 1,15,16
 420 597 420 597 393 598 c 128,-1,17
 366 599 366 599 342 599 c 0,18,19
 286 599 286 599 250.5 573 c 128,-1,20
 215 547 215 547 199 507 c 128,-1,21
 183 467 183 467 183 424 c 0,22,23
 183 394 183 394 187.5 360 c 128,-1,24
 192 326 192 326 206 276 c 1,25,-1
 175 258 l 1,26,27
 140 273 140 273 111.5 304.5 c 128,-1,28
 83 336 83 336 66.5 378.5 c 128,-1,29
 50 421 50 421 50 469 c 0,30,31
 50 547 50 547 80 604 c 128,-1,32
 110 661 110 661 163.5 692.5 c 128,-1,33
 217 724 217 724 289 724 c 0,34,35
 347 724 347 724 389.5 701.5 c 128,-1,36
 432 679 432 679 469 645 c 1,37,38
 505 680 505 680 548.5 702 c 128,-1,39
 592 724 592 724 648 724 c 0,40,41
 720 724 720 724 774 692.5 c 128,-1,42
 828 661 828 661 857.5 604 c 128,-1,43
 887 547 887 547 887 469 c 0,44,45
 887 418 887 418 869.5 376 c 128,-1,46
 852 334 852 334 823.5 303.5 c 128,-1,47
 795 273 795 273 762 258 c 1,48,-1
 731 276 l 1,49,50
 746 327 746 327 750 360.5 c 128,-1,51
 754 394 754 394 754 424 c 0,52,53
 754 467 754 467 738 507 c 128,-1,54
 722 547 722 547 687 573 c 128,-1,55
 652 599 652 599 595 599 c 0,56,57
 571 599 571 599 543.5 597.5 c 128,-1,58
 516 596 516 596 499 594 c 1,59,-1
 525 546 l 1,60,61
 539 555 539 555 555 561 c 128,-1,62
 571 567 571 567 592 567 c 0,63,64
 639 567 639 567 661 541.5 c 128,-1,65
 683 516 683 516 683 481 c 0,66,67
 683 453 683 453 665.5 426 c 128,-1,68
 648 399 648 399 605 392 c 1,69,70
 639 322 639 322 672.5 252.5 c 128,-1,71
 706 183 706 183 733 125.5 c 128,-1,72
 760 68 760 68 774 35 c 1,73,-1
 774 0 l 1,74,-1
 163 0 l 1,0,-1
141 339 m 1,75,-1
 145 340 l 1,76,77
 141 357 141 357 137 382 c 128,-1,78
 133 407 133 407 133 424 c 0,79,80
 133 479 133 479 154 530.5 c 128,-1,81
 175 582 175 582 221.5 615.5 c 128,-1,82
 268 649 268 649 342 649 c 0,83,84
 353 649 353 649 373 645.5 c 128,-1,85
 393 642 393 642 403 639 c 1,86,-1
 404 641 l 1,87,88
 385 654 385 654 356.5 664 c 128,-1,89
 328 674 328 674 300 674 c 0,90,91
 231 674 231 674 186.5 644.5 c 128,-1,92
 142 615 142 615 121 568.5 c 128,-1,93
 100 522 100 522 100 469 c 0,94,95
 100 442 100 442 110.5 405.5 c 128,-1,96
 121 369 121 369 141 339 c 1,75,-1
796 339 m 1,97,98
 816 369 816 369 826.5 405.5 c 128,-1,99
 837 442 837 442 837 469 c 0,100,101
 837 522 837 522 816 568.5 c 128,-1,102
 795 615 795 615 751 644.5 c 128,-1,103
 707 674 707 674 637 674 c 0,104,105
 609 674 609 674 579 664 c 128,-1,106
 549 654 549 654 529 641 c 1,107,-1
 530 639 l 1,108,109
 543 644 543 644 563 646.5 c 128,-1,110
 583 649 583 649 595 649 c 0,111,112
 670 649 670 649 716 615.5 c 128,-1,113
 762 582 762 582 783 530.5 c 128,-1,114
 804 479 804 479 804 424 c 0,115,116
 804 407 804 407 800 382 c 128,-1,117
 796 357 796 357 792 340 c 1,118,-1
 796 339 l 1,97,98
466 50 m 1,119,-1
 469 50 l 1,120,121
 471 137 471 137 505.5 189.5 c 128,-1,122
 540 242 540 242 608 242 c 0,123,124
 613 242 613 242 617.5 241.5 c 128,-1,125
 622 241 622 241 626 240 c 1,126,127
 599 296 599 296 570.5 353 c 128,-1,128
 542 410 542 410 516 461 c 128,-1,129
 490 512 490 512 469 549 c 1,130,131
 451 516 451 516 424.5 465.5 c 128,-1,132
 398 415 398 415 369 357 c 128,-1,133
 340 299 340 299 311 241 c 1,134,135
 315 242 315 242 319 242 c 128,-1,136
 323 242 323 242 327 242 c 0,137,138
 395 242 395 242 429.5 189.5 c 128,-1,139
 464 137 464 137 466 50 c 1,119,-1
357 439 m 1,140,-1
 388 501 l 1,141,142
 379 508 379 508 369 512.5 c 128,-1,143
 359 517 359 517 345 517 c 0,144,145
 324 517 324 517 314 506 c 128,-1,146
 304 495 304 495 304 481 c 0,147,148
 304 466 304 466 316 452.5 c 128,-1,149
 328 439 328 439 357 439 c 1,140,-1
580 440 m 1,150,151
 606 440 606 440 619.5 453 c 128,-1,152
 633 466 633 466 633 481 c 0,153,154
 633 495 633 495 623 506 c 128,-1,155
 613 517 613 517 592 517 c 0,156,157
 579 517 579 517 568.5 512.5 c 128,-1,158
 558 508 558 508 549 501 c 1,159,-1
 580 440 l 1,150,151
409 273 m 0,160,161
 396 273 396 273 386.5 282.5 c 128,-1,162
 377 292 377 292 377 305 c 0,163,164
 377 319 377 319 386.5 328.5 c 128,-1,165
 396 338 396 338 409 338 c 0,166,167
 423 338 423 338 432.5 328.5 c 128,-1,168
 442 319 442 319 442 305 c 0,169,170
 442 292 442 292 432.5 282.5 c 128,-1,171
 423 273 423 273 409 273 c 0,160,161
522 273 m 0,172,173
 509 273 509 273 499.5 282.5 c 128,-1,174
 490 292 490 292 490 305 c 0,175,176
 490 319 490 319 499.5 328.5 c 128,-1,177
 509 338 509 338 522 338 c 0,178,179
 536 338 536 338 545.5 328.5 c 128,-1,180
 555 319 555 319 555 305 c 0,181,182
 555 292 555 292 545.5 282.5 c 128,-1,183
 536 273 536 273 522 273 c 0,172,173
221 50 m 1,184,-1
 416 50 l 1,185,186
 415 82 415 82 407 114.5 c 128,-1,187
 399 147 399 147 380 169.5 c 128,-1,188
 361 192 361 192 326 192 c 0,189,190
 319 192 319 192 306 189.5 c 128,-1,191
 293 187 293 187 282 179 c 1,192,193
 263 141 263 141 247.5 108 c 128,-1,194
 232 75 232 75 221 50 c 1,184,-1
519 50 m 1,195,-1
 716 50 l 1,196,197
 706 73 706 73 690.5 106 c 128,-1,198
 675 139 675 139 656 176 c 0,199,200
 646 187 646 187 631.5 189.5 c 128,-1,201
 617 192 617 192 609 192 c 0,202,203
 575 192 575 192 555.5 169.5 c 128,-1,204
 536 147 536 147 528 114.5 c 128,-1,205
 520 82 520 82 519 50 c 1,195,-1
EndSplineSet
EndChar

StartChar: u16807
Encoding: 99 92167 88
Width: 777
Flags: W
LayerCount: 2
Fore
SplineSet
405 2 m 1,0,-1
 206 55 l 1,1,-1
 215 88 l 1,2,-1
 319 271 l 1,3,-1
 138 167 l 1,4,-1
 104 158 l 1,5,-1
 50 356 l 1,6,-1
 84 365 l 1,7,-1
 291 364 l 1,8,-1
 112 469 l 1,9,-1
 87 494 l 1,10,-1
 232 640 l 1,11,-1
 257 615 l 1,12,-1
 363 430 l 1,13,-1
 362 643 l 1,14,-1
 371 677 l 1,15,-1
 570 624 l 1,16,-1
 561 590 l 1,17,-1
 455 407 l 1,18,-1
 639 512 l 1,19,-1
 673 521 l 1,20,-1
 727 322 l 1,21,-1
 693 313 l 1,22,-1
 477 313 l 1,23,-1
 663 207 l 1,24,-1
 688 182 l 1,25,-1
 542 36 l 1,26,-1
 518 61 l 1,27,-1
 413 243 l 1,28,-1
 414 36 l 1,29,-1
 405 2 l 1,0,-1
412 434 m 1,30,-1
 502 590 l 1,31,-1
 412 615 l 1,32,-1
 412 434 l 1,30,-1
320 405 m 1,33,-1
 228 564 l 1,34,-1
 161 499 l 1,35,-1
 320 405 l 1,33,-1
481 363 m 1,36,-1
 664 364 l 1,37,-1
 639 454 l 1,38,-1
 481 363 l 1,36,-1
136 224 m 1,39,-1
 294 314 l 1,40,-1
 114 315 l 1,41,-1
 136 224 l 1,39,-1
547 112 m 1,42,-1
 613 178 l 1,43,-1
 455 269 l 1,44,-1
 547 112 l 1,42,-1
364 64 m 1,45,-1
 363 245 l 1,46,-1
 274 89 l 1,47,-1
 364 64 l 1,45,-1
EndSplineSet
EndChar

StartChar: u16808
Encoding: 100 92168 89
Width: 713
Flags: W
LayerCount: 2
Fore
SplineSet
84 0 m 1,0,-1
 84 35 l 1,1,2
 117 109 117 109 156 188 c 128,-1,3
 195 267 195 267 241 338 c 1,4,5
 146 345 146 345 98 377.5 c 128,-1,6
 50 410 50 410 50 456 c 0,7,8
 50 489 50 489 74.5 513.5 c 128,-1,9
 99 538 99 538 139 549 c 1,10,11
 125 572 125 572 115.5 599.5 c 128,-1,12
 106 627 106 627 106 664 c 0,13,14
 106 689 106 689 114 718 c 128,-1,15
 122 747 122 747 140 773.5 c 128,-1,16
 158 800 158 800 189.5 817.5 c 128,-1,17
 221 835 221 835 269 836 c 1,18,-1
 287 810 l 1,19,20
 262 767 262 767 253 735 c 128,-1,21
 244 703 244 703 244 671 c 0,22,23
 244 635 244 635 259.5 606.5 c 128,-1,24
 275 578 275 578 306.5 548.5 c 128,-1,25
 338 519 338 519 386 480 c 0,26,27
 424 450 424 450 461.5 400 c 128,-1,28
 499 350 499 350 535 288.5 c 128,-1,29
 571 227 571 227 603.5 162 c 128,-1,30
 636 97 636 97 663 35 c 1,31,-1
 663 0 l 1,32,-1
 84 0 l 1,0,-1
233 555 m 1,33,34
 211 587 211 587 202.5 614.5 c 128,-1,35
 194 642 194 642 194 670 c 0,36,37
 194 689 194 689 198 717 c 128,-1,38
 202 745 202 745 218 777 c 1,39,-1
 216 779 l 1,40,41
 185 760 185 760 170.5 726.5 c 128,-1,42
 156 693 156 693 156 664 c 0,43,44
 156 629 156 629 167 603 c 128,-1,45
 178 577 178 577 193 558 c 1,46,-1
 203 558 l 2,47,48
 211 558 211 558 218.5 557 c 128,-1,49
 226 556 226 556 233 555 c 1,33,34
274 387 m 1,50,51
 288 406 288 406 303.5 425 c 128,-1,52
 319 444 319 444 334 459 c 1,53,54
 307 479 307 479 275.5 493.5 c 128,-1,55
 244 508 244 508 203 508 c 0,56,57
 158 508 158 508 129 493.5 c 128,-1,58
 100 479 100 479 100 456 c 0,59,60
 100 432 100 432 144.5 409.5 c 128,-1,61
 189 387 189 387 274 387 c 1,50,51
365 50 m 1,62,-1
 383 50 l 1,63,64
 394 93 394 93 431.5 120.5 c 128,-1,65
 469 148 469 148 518 148 c 0,66,67
 529 148 529 148 540 145.5 c 128,-1,68
 551 143 551 143 561 137 c 1,69,70
 523 215 523 215 474.5 293 c 128,-1,71
 426 371 426 371 371 426 c 1,72,73
 316 371 316 371 270.5 293 c 128,-1,74
 225 215 225 215 187 137 c 1,75,76
 197 143 197 143 208.5 145.5 c 128,-1,77
 220 148 220 148 230 148 c 0,78,79
 280 148 280 148 317.5 120.5 c 128,-1,80
 355 93 355 93 365 50 c 1,62,-1
308 207 m 0,81,82
 295 207 295 207 285.5 216.5 c 128,-1,83
 276 226 276 226 276 239 c 0,84,85
 276 253 276 253 285.5 262.5 c 128,-1,86
 295 272 295 272 308 272 c 0,87,88
 322 272 322 272 331.5 262.5 c 128,-1,89
 341 253 341 253 341 239 c 0,90,91
 341 226 341 226 331.5 216.5 c 128,-1,92
 322 207 322 207 308 207 c 0,81,82
441 207 m 0,93,94
 428 207 428 207 418.5 216.5 c 128,-1,95
 409 226 409 226 409 239 c 0,96,97
 409 253 409 253 418.5 262.5 c 128,-1,98
 428 272 428 272 441 272 c 0,99,100
 455 272 455 272 464.5 262.5 c 128,-1,101
 474 253 474 253 474 239 c 0,102,103
 474 226 474 226 464.5 216.5 c 128,-1,104
 455 207 455 207 441 207 c 0,93,94
148 50 m 1,105,-1
 313 50 l 1,106,107
 303 71 303 71 280.5 84.5 c 128,-1,108
 258 98 258 98 230 98 c 256,109,110
 202 98 202 98 180 84.5 c 128,-1,111
 158 71 158 71 148 50 c 1,105,-1
435 50 m 1,112,-1
 600 50 l 1,113,114
 590 71 590 71 568 84.5 c 128,-1,115
 546 98 546 98 518 98 c 256,116,117
 490 98 490 98 467.5 84.5 c 128,-1,118
 445 71 445 71 435 50 c 1,112,-1
EndSplineSet
EndChar

StartChar: u16809
Encoding: 101 92169 90
Width: 739
Flags: W
LayerCount: 2
Fore
SplineSet
311 57 m 0,0,1
 271 57 271 57 232.5 74 c 128,-1,2
 194 91 194 91 161 117 c 128,-1,3
 128 143 128 143 103 171 c 128,-1,4
 78 199 78 199 64 223.5 c 128,-1,5
 50 248 50 248 50 260 c 0,6,7
 50 273 50 273 56.5 280 c 128,-1,8
 63 287 63 287 80 287 c 0,9,10
 91 287 91 287 108.5 281.5 c 128,-1,11
 126 276 126 276 145 268 c 0,12,13
 167 259 167 259 198.5 246.5 c 128,-1,14
 230 234 230 234 262 223 c 1,15,16
 245 249 245 249 235 282.5 c 128,-1,17
 225 316 225 316 225 352 c 0,18,19
 225 431 225 431 267 489 c 1,20,21
 236 479 236 479 208.5 465 c 128,-1,22
 181 451 181 451 161 440 c 0,23,24
 143 430 143 430 126.5 423 c 128,-1,25
 110 416 110 416 99 416 c 0,26,27
 77 416 77 416 64 430 c 128,-1,28
 51 444 51 444 51 469 c 0,29,30
 51 513 51 513 87.5 556.5 c 128,-1,31
 124 600 124 600 192 629 c 128,-1,32
 260 658 260 658 355 658 c 0,33,34
 417 658 417 658 469.5 639.5 c 128,-1,35
 522 621 522 621 562.5 592.5 c 128,-1,36
 603 564 603 564 631.5 534.5 c 128,-1,37
 660 505 660 505 674.5 481 c 128,-1,38
 689 457 689 457 689 449 c 0,39,40
 689 433 689 433 681.5 425 c 128,-1,41
 674 417 674 417 663 417 c 0,42,43
 647 417 647 417 630.5 422.5 c 128,-1,44
 614 428 614 428 594 436 c 0,45,46
 572 445 572 445 540.5 458 c 128,-1,47
 509 471 509 471 477 481 c 1,48,49
 494 456 494 456 504 422 c 128,-1,50
 514 388 514 388 514 352 c 0,51,52
 514 315 514 315 506.5 278.5 c 128,-1,53
 499 242 499 242 480 212.5 c 128,-1,54
 461 183 461 183 425 166 c 1,55,56
 404 57 404 57 311 57 c 0,0,1
107 467 m 0,57,58
 109 467 109 467 116 472 c 128,-1,59
 123 477 123 477 137 484 c 0,60,61
 161 497 161 497 194 512 c 128,-1,62
 227 527 227 527 269 538.5 c 128,-1,63
 311 550 311 550 363 550 c 0,64,65
 423 550 423 550 491 527.5 c 128,-1,66
 559 505 559 505 624 476 c 1,67,-1
 625 479 l 1,68,69
 612 495 612 495 587.5 517 c 128,-1,70
 563 539 563 539 529 559.5 c 128,-1,71
 495 580 495 580 451 594 c 128,-1,72
 407 608 407 608 355 608 c 0,73,74
 275 608 275 608 218 585.5 c 128,-1,75
 161 563 161 563 131 532 c 128,-1,76
 101 501 101 501 101 475 c 0,77,78
 101 467 101 467 107 467 c 0,57,58
371 204 m 0,79,80
 398 204 398 204 419 224.5 c 128,-1,81
 440 245 440 245 452 279 c 128,-1,82
 464 313 464 313 464 352 c 0,83,84
 464 373 464 373 459 398.5 c 128,-1,85
 454 424 454 424 442.5 447 c 128,-1,86
 431 470 431 470 412.5 485 c 128,-1,87
 394 500 394 500 367 500 c 0,88,89
 342 500 342 500 321 479.5 c 128,-1,90
 300 459 300 459 287.5 425.5 c 128,-1,91
 275 392 275 392 275 352 c 0,92,93
 275 331 275 331 280 305.5 c 128,-1,94
 285 280 285 280 296.5 257 c 128,-1,95
 308 234 308 234 326.5 219 c 128,-1,96
 345 204 345 204 371 204 c 0,79,80
313 106 m 0,97,98
 336 106 336 106 350.5 121 c 128,-1,99
 365 136 365 136 371 154 c 1,100,101
 311 156 311 156 245.5 178 c 128,-1,102
 180 200 180 200 115 229 c 1,103,-1
 113 226 l 1,104,105
 169 162 169 162 224 134 c 128,-1,106
 279 106 279 106 313 106 c 0,97,98
EndSplineSet
EndChar

StartChar: u1680A
Encoding: 102 92170 91
Width: 770
Flags: W
LayerCount: 2
Fore
SplineSet
72 -33 m 1,0,-1
 56 5 l 1,1,-1
 119 39 l 1,2,3
 103 51 103 51 84 67.5 c 128,-1,4
 65 84 65 84 50 100 c 1,5,-1
 79 128 l 1,6,7
 92 115 92 115 109 99.5 c 128,-1,8
 126 84 126 84 141 73 c 1,9,-1
 141 148 l 1,10,-1
 182 148 l 1,11,-1
 182 60 l 1,12,13
 195 56 195 56 211.5 53 c 128,-1,14
 228 50 228 50 244 50 c 0,15,16
 301 50 301 50 351 92 c 1,17,18
 317 136 317 136 297 197 c 128,-1,19
 277 258 277 258 277 334 c 0,20,21
 277 371 277 371 284.5 405.5 c 128,-1,22
 292 440 292 440 302 462 c 1,23,-1
 178 421 l 1,24,-1
 150 481 l 1,25,-1
 60 514 l 1,26,-1
 74 551 l 1,27,-1
 135 527 l 1,28,-1
 107 585 l 1,29,-1
 144 603 l 1,30,-1
 169 543 l 1,31,-1
 191 599 l 1,32,-1
 228 585 l 1,33,-1
 194 501 l 1,34,-1
 204 478 l 1,35,-1
 315 511 l 1,36,37
 300 523 300 523 293.5 538 c 128,-1,38
 287 553 287 553 287 570 c 0,39,40
 287 593 287 593 312.5 627.5 c 128,-1,41
 338 662 338 662 385 686 c 1,42,43
 432 662 432 662 457.5 627.5 c 128,-1,44
 483 593 483 593 483 570 c 0,45,46
 483 553 483 553 476.5 538 c 128,-1,47
 470 523 470 523 455 511 c 1,48,-1
 566 478 l 1,49,-1
 576 501 l 1,50,-1
 542 585 l 1,51,-1
 579 599 l 1,52,-1
 601 543 l 1,53,-1
 626 603 l 1,54,-1
 663 585 l 1,55,-1
 635 527 l 1,56,-1
 696 551 l 1,57,-1
 710 514 l 1,58,-1
 620 481 l 1,59,-1
 592 421 l 1,60,-1
 468 462 l 1,61,62
 479 438 479 438 486 404.5 c 128,-1,63
 493 371 493 371 493 334 c 0,64,65
 493 258 493 258 473 197 c 128,-1,66
 453 136 453 136 420 92 c 1,67,68
 468 50 468 50 527 50 c 0,69,70
 543 50 543 50 559 53 c 128,-1,71
 575 56 575 56 588 60 c 1,72,-1
 588 148 l 1,73,-1
 629 148 l 1,74,-1
 629 73 l 1,75,76
 660 96 660 96 691 128 c 1,77,-1
 720 100 l 1,78,79
 702 82 702 82 686.5 67.5 c 128,-1,80
 671 53 671 53 651 39 c 1,81,-1
 714 5 l 1,82,-1
 698 -33 l 1,83,-1
 607 12 l 1,84,85
 591 7 591 7 570 3.5 c 128,-1,86
 549 0 549 0 527 0 c 0,87,88
 448 0 448 0 385 55 c 1,89,90
 322 0 322 0 244 0 c 0,91,92
 222 0 222 0 200.5 3.5 c 128,-1,93
 179 7 179 7 163 12 c 1,94,-1
 72 -33 l 1,0,-1
386 534 m 0,95,96
 415 534 415 534 424 548.5 c 128,-1,97
 433 563 433 563 433 570 c 0,98,99
 433 581 433 581 421 598.5 c 128,-1,100
 409 616 409 616 385 630 c 1,101,102
 361 616 361 616 349 598.5 c 128,-1,103
 337 581 337 581 337 570 c 0,104,105
 337 563 337 563 346.5 548.5 c 128,-1,106
 356 534 356 534 386 534 c 0,95,96
385 130 m 1,107,108
 411 167 411 167 427 218.5 c 128,-1,109
 443 270 443 270 443 334 c 0,110,111
 443 386 443 386 431 420.5 c 128,-1,112
 419 455 419 455 405 473 c 128,-1,113
 391 491 391 491 384 491 c 0,114,115
 379 491 379 491 365 473 c 128,-1,116
 351 455 351 455 339 420.5 c 128,-1,117
 327 386 327 386 327 334 c 0,118,119
 327 270 327 270 343 218.5 c 128,-1,120
 359 167 359 167 385 130 c 1,107,108
EndSplineSet
EndChar

StartChar: u1680B
Encoding: 103 92171 92
Width: 627
Flags: W
LayerCount: 2
Fore
SplineSet
83 0 m 1,0,-1
 83 50 l 1,1,-1
 197 50 l 1,2,-1
 226 143 l 1,3,4
 188 148 188 148 157.5 152.5 c 128,-1,5
 127 157 127 157 86 165 c 1,6,-1
 86 200 l 1,7,-1
 239 516 l 1,8,9
 235 516 235 516 231 516.5 c 128,-1,10
 227 517 227 517 222 517 c 0,11,12
 194 517 194 517 158.5 505 c 128,-1,13
 123 493 123 493 86 456 c 1,14,-1
 50 492 l 1,15,16
 95 537 95 537 140 552 c 128,-1,17
 185 567 185 567 222 567 c 0,18,19
 233 567 233 567 243 566 c 128,-1,20
 253 565 253 565 262 563 c 1,21,-1
 277 593 l 1,22,23
 257 606 257 606 244.5 632 c 128,-1,24
 232 658 232 658 232 689 c 0,25,26
 232 733 232 733 255.5 764 c 128,-1,27
 279 795 279 795 313 795 c 256,28,29
 347 795 347 795 371 764 c 128,-1,30
 395 733 395 733 395 689 c 0,31,32
 395 658 395 658 382.5 632.5 c 128,-1,33
 370 607 370 607 350 594 c 1,34,-1
 365 563 l 1,35,36
 374 565 374 565 384 566 c 128,-1,37
 394 567 394 567 405 567 c 0,38,39
 442 567 442 567 487 552 c 128,-1,40
 532 537 532 537 577 492 c 1,41,-1
 541 456 l 1,42,43
 504 493 504 493 468.5 505 c 128,-1,44
 433 517 433 517 405 517 c 0,45,46
 401 517 401 517 397 517 c 128,-1,47
 393 517 393 517 389 516 c 1,48,-1
 550 200 l 1,49,-1
 550 165 l 1,50,51
 468 148 468 148 409 142 c 1,52,-1
 439 50 l 1,53,-1
 553 50 l 1,54,-1
 553 0 l 1,55,-1
 403 0 l 1,56,-1
 317 272 l 1,57,-1
 233 0 l 1,58,-1
 83 0 l 1,0,-1
313 633 m 256,59,60
 326 633 326 633 335.5 649.5 c 128,-1,61
 345 666 345 666 345 689 c 256,62,63
 345 712 345 712 335.5 728.5 c 128,-1,64
 326 745 326 745 313 745 c 256,65,66
 300 745 300 745 291 728.5 c 128,-1,67
 282 712 282 712 282 689 c 256,68,69
 282 666 282 666 291 649.5 c 128,-1,70
 300 633 300 633 313 633 c 256,59,60
242 190 m 1,71,72
 256 232 256 232 270.5 275.5 c 128,-1,73
 285 319 285 319 293 344 c 1,74,-1
 343 344 l 1,75,-1
 393 191 l 1,76,77
 417 193 417 193 439.5 196 c 128,-1,78
 462 199 462 199 492 204 c 1,79,80
 462 267 462 267 433 322.5 c 128,-1,81
 404 378 404 378 375 435 c 128,-1,82
 346 492 346 492 314 557 c 1,83,-1
 144 204 l 1,84,85
 167 200 167 200 189.5 196 c 128,-1,86
 212 192 212 192 242 190 c 1,71,72
EndSplineSet
EndChar

StartChar: u1680C
Encoding: 104 92172 93
Width: 887
Flags: W
LayerCount: 2
Fore
SplineSet
108 0 m 1,0,-1
 108 125 l 2,1,2
 108 201 108 201 124.5 254 c 128,-1,3
 141 307 141 307 171 349 c 1,4,5
 152 353 152 353 133 362.5 c 128,-1,6
 114 372 114 372 97 388 c 0,7,8
 74 411 74 411 62 438.5 c 128,-1,9
 50 466 50 466 50 491 c 0,10,11
 50 508 50 508 55.5 524 c 128,-1,12
 61 540 61 540 72 551 c 256,13,14
 83 562 83 562 99 567.5 c 128,-1,15
 115 573 115 573 132 573 c 0,16,17
 158 573 158 573 185 561 c 128,-1,18
 212 549 212 549 235 526 c 0,19,20
 253 508 253 508 262.5 486.5 c 128,-1,21
 272 465 272 465 275 443 c 1,22,23
 351 488 351 488 443 488 c 0,24,25
 489 488 489 488 531.5 476 c 128,-1,26
 574 464 574 464 611 442 c 1,27,28
 614 464 614 464 624 486 c 128,-1,29
 634 508 634 508 652 526 c 0,30,31
 675 549 675 549 702.5 561 c 128,-1,32
 730 573 730 573 755 573 c 0,33,34
 772 573 772 573 788 567.5 c 128,-1,35
 804 562 804 562 815 551 c 256,36,37
 826 540 826 540 831.5 524 c 128,-1,38
 837 508 837 508 837 491 c 0,39,40
 837 466 837 466 825 438.5 c 128,-1,41
 813 411 813 411 790 388 c 0,42,43
 774 372 774 372 754.5 362.5 c 128,-1,44
 735 353 735 353 715 349 c 1,45,46
 745 308 745 308 762 255 c 128,-1,47
 779 202 779 202 779 128 c 2,48,-1
 779 0 l 1,49,-1
 108 0 l 1,0,-1
197 395 m 0,50,51
 208 395 208 395 215 399 c 2,52,-1
 224 407 l 2,53,54
 228 414 228 414 228 426 c 0,55,56
 228 440 228 440 219.5 458 c 128,-1,57
 211 476 211 476 196 491 c 256,58,59
 181 506 181 506 163 514.5 c 128,-1,60
 145 523 145 523 131 523 c 0,61,62
 116 523 116 523 108 515 c 256,63,64
 100 507 100 507 100 492 c 0,65,66
 100 478 100 478 108.5 460 c 128,-1,67
 117 442 117 442 132 427 c 256,68,69
 147 412 147 412 165 403.5 c 128,-1,70
 183 395 183 395 197 395 c 0,50,51
690 395 m 256,71,72
 704 395 704 395 722 403.5 c 128,-1,73
 740 412 740 412 755 427 c 256,74,75
 770 442 770 442 778.5 460 c 128,-1,76
 787 478 787 478 787 492 c 0,77,78
 787 507 787 507 779 515 c 256,79,80
 771 523 771 523 756 523 c 0,81,82
 742 523 742 523 724 514.5 c 128,-1,83
 706 506 706 506 691 491 c 256,84,85
 676 476 676 476 667.5 458 c 128,-1,86
 659 440 659 440 659 426 c 0,87,88
 659 409 659 409 667 402 c 0,89,90
 676 395 676 395 690 395 c 256,71,72
158 50 m 1,91,-1
 729 50 l 1,92,-1
 729 124 l 2,93,94
 729 221 729 221 690.5 291.5 c 128,-1,95
 652 362 652 362 587 400 c 128,-1,96
 522 438 522 438 443 438 c 256,97,98
 364 438 364 438 299.5 400 c 128,-1,99
 235 362 235 362 196.5 292.5 c 128,-1,100
 158 223 158 223 158 128 c 2,101,-1
 158 50 l 1,91,-1
313 92 m 1,102,-1
 258 273 l 1,103,-1
 258 309 l 1,104,-1
 417 309 l 1,105,-1
 417 273 l 1,106,-1
 363 92 l 1,107,-1
 313 92 l 1,102,-1
524 92 m 1,108,-1
 469 273 l 1,109,-1
 469 309 l 1,110,-1
 628 309 l 1,111,-1
 628 273 l 1,112,-1
 574 92 l 1,113,-1
 524 92 l 1,108,-1
338 163 m 1,114,-1
 368 264 l 1,115,-1
 308 264 l 1,116,-1
 338 163 l 1,114,-1
549 163 m 1,117,-1
 579 264 l 1,118,-1
 519 264 l 1,119,-1
 549 163 l 1,117,-1
EndSplineSet
EndChar

StartChar: u1680D
Encoding: 105 92173 94
Width: 634
Flags: W
LayerCount: 2
Fore
SplineSet
456 -45 m 0,0,1
 421 -45 421 -45 387 -30.5 c 128,-1,2
 353 -16 353 -16 327.5 10 c 128,-1,3
 302 36 302 36 290 70 c 1,4,-1
 183 -35 l 1,5,-1
 81 54 l 1,6,-1
 113 92 l 1,7,-1
 181 32 l 1,8,-1
 258 107 l 1,9,10
 243 128 243 128 235 149 c 1,11,-1
 160 92 l 1,12,-1
 61 194 l 1,13,-1
 97 228 l 1,14,-1
 165 158 l 1,15,-1
 220 200 l 1,16,17
 218 213 218 213 216.5 226.5 c 128,-1,18
 215 240 215 240 215 253 c 1,19,-1
 151 221 l 1,20,-1
 62 328 l 1,21,-1
 100 360 l 1,22,-1
 165 283 l 1,23,-1
 219 311 l 1,24,25
 221 325 221 325 225 338 c 128,-1,26
 229 351 229 351 233 364 c 1,27,-1
 175 333 l 1,28,-1
 94 471 l 1,29,-1
 138 497 l 1,30,-1
 194 401 l 1,31,-1
 306 462 l 1,32,-1
 307 463 l 1,33,34
 326 475 326 475 347 480 c 1,35,-1
 347 596 l 1,36,37
 333 588 333 588 316.5 582 c 128,-1,38
 300 576 300 576 280 576 c 0,39,40
 251 576 251 576 226.5 587 c 128,-1,41
 202 598 202 598 182 617 c 1,42,-1
 120 555 l 1,43,-1
 88 588 l 1,44,-1
 147 647 l 1,45,-1
 50 647 l 1,46,-1
 50 687 l 1,47,-1
 147 687 l 1,48,-1
 88 747 l 1,49,-1
 120 779 l 1,50,-1
 183 715 l 1,51,52
 204 734 204 734 227.5 745 c 128,-1,53
 251 756 251 756 280 756 c 0,54,55
 304 756 304 756 326.5 745 c 128,-1,56
 349 734 349 734 367.5 718.5 c 128,-1,57
 386 703 386 703 397 688 c 1,58,-1
 397 481 l 1,59,60
 436 474 436 474 467.5 442.5 c 128,-1,61
 499 411 499 411 517 363.5 c 128,-1,62
 535 316 535 316 535 260 c 0,63,64
 535 207 535 207 518.5 162 c 128,-1,65
 502 117 502 117 475 86 c 1,66,67
 486 81 486 81 498.5 79 c 128,-1,68
 511 77 511 77 524 77 c 256,69,70
 537 77 537 77 557.5 82.5 c 128,-1,71
 578 88 578 88 592 93 c 1,72,-1
 614 71 l 1,73,74
 602 21 602 21 559.5 -12 c 128,-1,75
 517 -45 517 -45 456 -45 c 0,0,1
280 626 m 0,76,77
 299 626 299 626 314.5 635 c 128,-1,78
 330 644 330 644 339.5 654 c 128,-1,79
 349 664 349 664 351 666 c 2,80,-1
 352 667 l 1,81,82
 340 680 340 680 321.5 693 c 128,-1,83
 303 706 303 706 280 706 c 0,84,85
 258 706 258 706 239.5 695 c 128,-1,86
 221 684 221 684 204 667 c 1,87,88
 221 649 221 649 239.5 637.5 c 128,-1,89
 258 626 258 626 280 626 c 0,76,77
374 86 m 0,90,91
 405 86 405 86 430 109.5 c 128,-1,92
 455 133 455 133 470 172.5 c 128,-1,93
 485 212 485 212 485 260 c 256,94,95
 485 308 485 308 470 347.5 c 128,-1,96
 455 387 455 387 430 410.5 c 128,-1,97
 405 434 405 434 374 434 c 0,98,99
 344 434 344 434 319.5 410.5 c 128,-1,100
 295 387 295 387 280 347.5 c 128,-1,101
 265 308 265 308 265 260 c 256,102,103
 265 212 265 212 280 172.5 c 128,-1,104
 295 133 295 133 319.5 109.5 c 128,-1,105
 344 86 344 86 374 86 c 0,90,91
458 4 m 0,106,107
 484 4 484 4 502 11 c 128,-1,108
 520 18 520 18 536 31 c 1,109,-1
 535 33 l 1,110,111
 527 32 527 32 522.5 31 c 128,-1,112
 518 30 518 30 507 30 c 0,113,114
 482 30 482 30 465 37 c 128,-1,115
 448 44 448 44 434 52 c 1,116,117
 424 46 424 46 411 42 c 128,-1,118
 398 38 398 38 381 38 c 2,119,-1
 372 38 l 1,120,121
 390 21 390 21 412.5 12.5 c 128,-1,122
 435 4 435 4 458 4 c 0,106,107
EndSplineSet
EndChar

StartChar: u1680E
Encoding: 106 92174 95
Width: 434
Flags: W
LayerCount: 2
Fore
SplineSet
59 0 m 1,0,-1
 59 35 l 1,1,-1
 139 258 l 1,2,3
 99 275 99 275 74.5 305 c 128,-1,4
 50 335 50 335 50 372 c 0,5,6
 50 404 50 404 70 431.5 c 128,-1,7
 90 459 90 459 127 475 c 1,8,9
 88 492 88 492 69 519.5 c 128,-1,10
 50 547 50 547 50 579 c 0,11,12
 50 627 50 627 90.5 663 c 128,-1,13
 131 699 131 699 192 706 c 1,14,-1
 192 781 l 1,15,-1
 242 781 l 1,16,-1
 242 706 l 1,17,18
 282 702 282 702 314 683.5 c 128,-1,19
 346 665 346 665 365 638 c 128,-1,20
 384 611 384 611 384 579 c 256,21,22
 384 547 384 547 363.5 518.5 c 128,-1,23
 343 490 343 490 306 476 c 1,24,25
 341 463 341 463 362.5 433.5 c 128,-1,26
 384 404 384 404 384 372 c 0,27,28
 384 335 384 335 359.5 305 c 128,-1,29
 335 275 335 275 294 258 c 1,30,-1
 375 35 l 1,31,-1
 375 0 l 1,32,-1
 59 0 l 1,0,-1
EndSplineSet
EndChar

StartChar: u1680F
Encoding: 107 92175 96
Width: 721
Flags: W
LayerCount: 2
Fore
SplineSet
532 -87 m 1,0,-1
 435 32 l 1,1,2
 411 22 411 22 381 16.5 c 128,-1,3
 351 11 351 11 316 11 c 2,4,-1
 196 11 l 1,5,-1
 129 -85 l 1,6,-1
 89 -57 l 1,7,-1
 155 35 l 1,8,9
 144 50 144 50 124 78 c 128,-1,10
 104 106 104 106 89 127 c 1,11,-1
 129 157 l 1,12,-1
 198 61 l 1,13,-1
 316 61 l 2,14,15
 382 61 382 61 423 82.5 c 128,-1,16
 464 104 464 104 483.5 138.5 c 128,-1,17
 503 173 503 173 503 212 c 0,18,19
 503 263 503 263 472 293.5 c 128,-1,20
 441 324 441 324 376 340 c 0,21,22
 340 349 340 349 308 361.5 c 128,-1,23
 276 374 276 374 256.5 401 c 128,-1,24
 237 428 237 428 237 479 c 0,25,26
 237 524 237 524 267.5 559.5 c 128,-1,27
 298 595 298 595 350 604 c 1,28,-1
 350 665 l 1,29,-1
 268 665 l 1,30,31
 260 628 260 628 229.5 604 c 128,-1,32
 199 580 199 580 160 580 c 0,33,34
 114 580 114 580 82 612 c 128,-1,35
 50 644 50 644 50 690 c 256,36,37
 50 736 50 736 82 768.5 c 128,-1,38
 114 801 114 801 160 801 c 0,39,40
 199 801 199 801 229.5 776.5 c 128,-1,41
 260 752 260 752 268 715 c 1,42,-1
 400 715 l 1,43,-1
 400 605 l 1,44,45
 444 601 444 601 473 578 c 128,-1,46
 502 555 502 555 502 515 c 0,47,48
 502 487 502 487 485 463.5 c 128,-1,49
 468 440 468 440 433 440 c 0,50,51
 397 440 397 440 373.5 461.5 c 128,-1,52
 350 483 350 483 350 535 c 2,53,-1
 350 557 l 1,54,55
 319 550 319 550 303 527.5 c 128,-1,56
 287 505 287 505 287 479 c 0,57,58
 287 448 287 448 301 430.5 c 128,-1,59
 315 413 315 413 338.5 404 c 128,-1,60
 362 395 362 395 388 388 c 0,61,62
 411 382 411 382 434 374 c 1,63,-1
 535 473 l 1,64,-1
 571 437 l 1,65,-1
 483 349 l 1,66,67
 494 342 494 342 504.5 333 c 128,-1,68
 515 324 515 324 522 314 c 1,69,-1
 626 377 l 1,70,-1
 652 335 l 1,71,-1
 545 270 l 1,72,73
 548 260 548 260 549.5 248.5 c 128,-1,74
 551 237 551 237 552 225 c 1,75,-1
 671 225 l 1,76,-1
 671 175 l 1,77,-1
 550 175 l 1,78,79
 548 165 548 165 545.5 154.5 c 128,-1,80
 543 144 543 144 538 134 c 1,81,-1
 651 66 l 1,82,-1
 625 22 l 1,83,-1
 512 89 l 1,84,85
 498 70 498 70 479 57 c 1,86,-1
 570 -55 l 1,87,-1
 532 -87 l 1,0,-1
160 630 m 256,88,89
 185 630 185 630 203 647.5 c 128,-1,90
 221 665 221 665 221 690 c 256,91,92
 221 715 221 715 203 733 c 128,-1,93
 185 751 185 751 160 751 c 256,94,95
 135 751 135 751 117.5 733 c 128,-1,96
 100 715 100 715 100 690 c 256,97,98
 100 665 100 665 117.5 647.5 c 128,-1,99
 135 630 135 630 160 630 c 256,88,89
435 487 m 0,100,101
 446 487 446 487 451.5 495.5 c 128,-1,102
 457 504 457 504 457 512 c 0,103,104
 457 532 457 532 440.5 544 c 128,-1,105
 424 556 424 556 400 559 c 1,106,-1
 400 532 l 2,107,108
 400 505 400 505 409.5 496 c 128,-1,109
 419 487 419 487 435 487 c 0,100,101
EndSplineSet
EndChar

StartChar: u16810
Encoding: 108 92176 97
Width: 754
Flags: W
LayerCount: 2
Fore
SplineSet
352 0 m 1,0,-1
 352 152 l 1,1,2
 315 197 315 197 276.5 260 c 128,-1,3
 238 323 238 323 218 390 c 1,4,5
 209 388 209 388 200 386.5 c 128,-1,6
 191 385 191 385 182 385 c 0,7,8
 146 385 146 385 116 403 c 128,-1,9
 86 421 86 421 68 451 c 128,-1,10
 50 481 50 481 50 517 c 0,11,12
 50 554 50 554 68 583.5 c 128,-1,13
 86 613 86 613 116 631 c 128,-1,14
 146 649 146 649 182 649 c 0,15,16
 208 649 208 649 231.5 639 c 128,-1,17
 255 629 255 629 273 612 c 1,18,19
 295 629 295 629 321.5 638 c 128,-1,20
 348 647 348 647 377 647 c 0,21,22
 435 647 435 647 480 612 c 1,23,24
 519 649 519 649 572 649 c 0,25,26
 609 649 609 649 638.5 631 c 128,-1,27
 668 613 668 613 686 583.5 c 128,-1,28
 704 554 704 554 704 517 c 0,29,30
 704 481 704 481 686 451 c 128,-1,31
 668 421 668 421 638.5 403 c 128,-1,32
 609 385 609 385 572 385 c 0,33,34
 562 385 562 385 553 386 c 128,-1,35
 544 387 544 387 535 390 c 1,36,37
 520 338 520 338 487.5 277.5 c 128,-1,38
 455 217 455 217 402 152 c 1,39,-1
 402 0 l 1,40,-1
 352 0 l 1,0,-1
182 435 m 0,41,42
 196 435 196 435 207 439 c 1,43,44
 206 448 206 448 205.5 456.5 c 128,-1,45
 205 465 205 465 205 474 c 0,46,47
 205 531 205 531 238 577 c 1,48,49
 214 599 214 599 182 599 c 0,50,51
 148 599 148 599 124 575 c 128,-1,52
 100 551 100 551 100 517 c 256,53,54
 100 483 100 483 124 459 c 128,-1,55
 148 435 148 435 182 435 c 0,41,42
572 435 m 0,56,57
 606 435 606 435 630 459 c 128,-1,58
 654 483 654 483 654 517 c 256,59,60
 654 551 654 551 630 575 c 128,-1,61
 606 599 606 599 572 599 c 256,62,63
 538 599 538 599 516 577 c 1,64,65
 549 531 549 531 549 474 c 0,66,67
 549 457 549 457 546 439 c 1,68,69
 557 435 557 435 572 435 c 0,56,57
377 196 m 1,70,71
 403 229 403 229 431.5 276 c 128,-1,72
 460 323 460 323 479.5 375 c 128,-1,73
 499 427 499 427 499 474 c 0,74,75
 499 508 499 508 482.5 536 c 128,-1,76
 466 564 466 564 438.5 580.5 c 128,-1,77
 411 597 411 597 377 597 c 256,78,79
 343 597 343 597 315.5 580.5 c 128,-1,80
 288 564 288 564 271.5 536 c 128,-1,81
 255 508 255 508 255 474 c 0,82,83
 255 424 255 424 275 372.5 c 128,-1,84
 295 321 295 321 323.5 275 c 128,-1,85
 352 229 352 229 377 196 c 1,70,71
EndSplineSet
EndChar

StartChar: u16811
Encoding: 109 92177 98
Width: 1100
Flags: W
LayerCount: 2
Fore
SplineSet
527 0 m 1,0,1
 505 50 505 50 481.5 109 c 128,-1,2
 458 168 458 168 439 228 c 1,3,4
 375 175 375 175 287 175 c 0,5,6
 222 175 222 175 168 207 c 128,-1,7
 114 239 114 239 82 293 c 128,-1,8
 50 347 50 347 50 412 c 0,9,10
 50 479 50 479 82 533 c 128,-1,11
 114 587 114 587 168 619 c 128,-1,12
 222 651 222 651 287 651 c 0,13,14
 327 651 327 651 363 638.5 c 128,-1,15
 399 626 399 626 429 604 c 1,16,17
 452 636 452 636 484 649.5 c 128,-1,18
 516 663 516 663 550 663 c 256,19,20
 584 663 584 663 616.5 649.5 c 128,-1,21
 649 636 649 636 671 604 c 1,22,23
 701 626 701 626 737 638.5 c 128,-1,24
 773 651 773 651 813 651 c 0,25,26
 879 651 879 651 932.5 619 c 128,-1,27
 986 587 986 587 1018 533 c 128,-1,28
 1050 479 1050 479 1050 412 c 0,29,30
 1050 347 1050 347 1018 293 c 128,-1,31
 986 239 986 239 932.5 207 c 128,-1,32
 879 175 879 175 813 175 c 0,33,34
 725 175 725 175 661 228 c 1,35,36
 642 169 642 169 619 109.5 c 128,-1,37
 596 50 596 50 573 0 c 1,38,-1
 527 0 l 1,0,1
550 60 m 1,39,40
 570 104 570 104 589 156.5 c 128,-1,41
 608 209 608 209 624 263 c 128,-1,42
 640 317 640 317 649.5 368 c 128,-1,43
 659 419 659 419 659 459 c 0,44,45
 659 518 659 518 643 551.5 c 128,-1,46
 627 585 627 585 602.5 599 c 128,-1,47
 578 613 578 613 550 613 c 0,48,49
 523 613 523 613 498 599 c 128,-1,50
 473 585 473 585 457 551.5 c 128,-1,51
 441 518 441 518 441 459 c 0,52,53
 441 419 441 419 450.5 368 c 128,-1,54
 460 317 460 317 476 263 c 128,-1,55
 492 209 492 209 511.5 156.5 c 128,-1,56
 531 104 531 104 550 60 c 1,39,40
287 225 m 0,57,58
 327 225 327 225 362 240 c 128,-1,59
 397 255 397 255 422 281 c 1,60,61
 419 292 419 292 416.5 302 c 128,-1,62
 414 312 414 312 412 322 c 1,63,64
 378 296 378 296 333 296 c 0,65,66
 297 296 297 296 267.5 313.5 c 128,-1,67
 238 331 238 331 220.5 360.5 c 128,-1,68
 203 390 203 390 203 426 c 256,69,70
 203 462 203 462 220.5 491.5 c 128,-1,71
 238 521 238 521 267.5 538.5 c 128,-1,72
 297 556 297 556 333 556 c 256,73,74
 369 556 369 556 399 537 c 1,75,76
 401 543 401 543 402.5 549 c 128,-1,77
 404 555 404 555 406 560 c 1,78,79
 356 601 356 601 287 601 c 0,80,81
 236 601 236 601 193.5 575.5 c 128,-1,82
 151 550 151 550 125.5 507.5 c 128,-1,83
 100 465 100 465 100 412 c 0,84,85
 100 361 100 361 125.5 318.5 c 128,-1,86
 151 276 151 276 193.5 250.5 c 128,-1,87
 236 225 236 225 287 225 c 0,57,58
813 225 m 0,88,89
 865 225 865 225 907 250.5 c 128,-1,90
 949 276 949 276 974.5 318.5 c 128,-1,91
 1000 361 1000 361 1000 412 c 0,92,93
 1000 465 1000 465 974.5 507.5 c 128,-1,94
 949 550 949 550 907 575.5 c 128,-1,95
 865 601 865 601 813 601 c 0,96,97
 779 601 779 601 748.5 590 c 128,-1,98
 718 579 718 579 694 559 c 1,99,100
 696 555 696 555 697.5 549 c 128,-1,101
 699 543 699 543 700 538 c 1,102,103
 714 546 714 546 731 551 c 128,-1,104
 748 556 748 556 767 556 c 0,105,106
 803 556 803 556 832.5 538.5 c 128,-1,107
 862 521 862 521 879.5 491.5 c 128,-1,108
 897 462 897 462 897 426 c 256,109,110
 897 390 897 390 879.5 360.5 c 128,-1,111
 862 331 862 331 832.5 313.5 c 128,-1,112
 803 296 803 296 767 296 c 0,113,114
 720 296 720 296 688 322 c 1,115,-1
 677 281 l 1,116,117
 703 255 703 255 738 240 c 128,-1,118
 773 225 773 225 813 225 c 0,88,89
333 346 m 0,119,120
 353 346 353 346 370.5 355.5 c 128,-1,121
 388 365 388 365 399 381 c 1,122,123
 395 402 395 402 393 422 c 128,-1,124
 391 442 391 442 391 459 c 2,125,-1
 391 481 l 1,126,127
 369 506 369 506 333 506 c 0,128,129
 300 506 300 506 276.5 482.5 c 128,-1,130
 253 459 253 459 253 426 c 256,131,132
 253 393 253 393 276.5 369.5 c 128,-1,133
 300 346 300 346 333 346 c 0,119,120
767 346 m 0,134,135
 800 346 800 346 823.5 369.5 c 128,-1,136
 847 393 847 393 847 426 c 256,137,138
 847 459 847 459 823.5 482.5 c 128,-1,139
 800 506 800 506 767 506 c 0,140,141
 750 506 750 506 734.5 499 c 128,-1,142
 719 492 719 492 708 481 c 1,143,144
 709 476 709 476 709 470 c 128,-1,145
 709 464 709 464 709 459 c 0,146,147
 709 442 709 442 707 422 c 128,-1,148
 705 402 705 402 701 381 c 1,149,150
 712 365 712 365 729.5 355.5 c 128,-1,151
 747 346 747 346 767 346 c 0,134,135
EndSplineSet
EndChar

StartChar: u16812
Encoding: 110 92178 99
Width: 942
Flags: W
LayerCount: 2
Fore
SplineSet
465 -65 m 1,0,-1
 429 -29 l 1,1,2
 446 -12 446 -12 455 11.5 c 128,-1,3
 464 35 464 35 464 55 c 0,4,5
 464 66 464 66 461 77 c 128,-1,6
 458 88 458 88 454 101 c 0,7,8
 450 115 450 115 447 126.5 c 128,-1,9
 444 138 444 138 443 151 c 0,10,11
 443 156 443 156 443.5 161 c 128,-1,12
 444 166 444 166 445 171 c 0,13,14
 427 199 427 199 408 231 c 128,-1,15
 389 263 389 263 371 297 c 1,16,17
 347 283 347 283 319 275 c 128,-1,18
 291 267 291 267 260 267 c 0,19,20
 202 267 202 267 154.5 295.5 c 128,-1,21
 107 324 107 324 78.5 371.5 c 128,-1,22
 50 419 50 419 50 477 c 0,23,24
 50 536 50 536 78.5 584 c 128,-1,25
 107 632 107 632 154.5 660.5 c 128,-1,26
 202 689 202 689 260 689 c 0,27,28
 307 689 307 689 349 669 c 1,29,30
 397 725 397 725 471 725 c 0,31,32
 544 725 544 725 592 669 c 1,33,34
 634 689 634 689 682 689 c 0,35,36
 740 689 740 689 787.5 660.5 c 128,-1,37
 835 632 835 632 863.5 584 c 128,-1,38
 892 536 892 536 892 477 c 0,39,40
 892 419 892 419 863.5 371.5 c 128,-1,41
 835 324 835 324 787.5 295.5 c 128,-1,42
 740 267 740 267 682 267 c 0,43,44
 621 267 621 267 572 296 c 1,45,46
 553 259 553 259 533 225 c 128,-1,47
 513 191 513 191 495 162 c 1,48,-1
 495 154 l 2,49,50
 495 144 495 144 497.5 134 c 128,-1,51
 500 124 500 124 502 115 c 0,52,53
 506 102 506 102 510 87 c 128,-1,54
 514 72 514 72 514 55 c 0,55,56
 514 26 514 26 501 -8 c 128,-1,57
 488 -42 488 -42 465 -65 c 1,0,-1
472 214 m 1,58,59
 500 260 500 260 527.5 314.5 c 128,-1,60
 555 369 555 369 573.5 423 c 128,-1,61
 592 477 592 477 592 519 c 0,62,63
 592 591 592 591 557 633 c 128,-1,64
 522 675 522 675 471 675 c 256,65,66
 420 675 420 675 385 633 c 128,-1,67
 350 591 350 591 350 519 c 0,68,69
 350 476 350 476 369 422.5 c 128,-1,70
 388 369 388 369 416 314.5 c 128,-1,71
 444 260 444 260 472 214 c 1,58,59
260 317 m 0,72,73
 310 317 310 317 348 343 c 1,74,75
 343 355 343 355 337.5 367.5 c 128,-1,76
 332 380 332 380 327 392 c 1,77,78
 300 373 300 373 266 373 c 0,79,80
 222 373 222 373 190.5 404.5 c 128,-1,81
 159 436 159 436 159 480 c 0,82,83
 159 525 159 525 190.5 556.5 c 128,-1,84
 222 588 222 588 266 588 c 0,85,86
 287 588 287 588 306 580 c 1,87,88
 309 593 309 593 313.5 605 c 128,-1,89
 318 617 318 617 322 627 c 1,90,91
 294 639 294 639 260 639 c 0,92,93
 216 639 216 639 179.5 617.5 c 128,-1,94
 143 596 143 596 121.5 559 c 128,-1,95
 100 522 100 522 100 477 c 0,96,97
 100 433 100 433 121.5 396.5 c 128,-1,98
 143 360 143 360 179.5 338.5 c 128,-1,99
 216 317 216 317 260 317 c 0,72,73
682 317 m 0,100,101
 726 317 726 317 762.5 338.5 c 128,-1,102
 799 360 799 360 820.5 396.5 c 128,-1,103
 842 433 842 433 842 477 c 0,104,105
 842 522 842 522 820.5 559 c 128,-1,106
 799 596 799 596 762.5 617.5 c 128,-1,107
 726 639 726 639 682 639 c 0,108,109
 648 639 648 639 619 627 c 1,110,111
 629 606 629 606 635 580 c 1,112,113
 656 588 656 588 676 588 c 0,114,115
 720 588 720 588 751.5 556.5 c 128,-1,116
 783 525 783 525 783 480 c 0,117,118
 783 436 783 436 751.5 404.5 c 128,-1,119
 720 373 720 373 676 373 c 0,120,121
 640 373 640 373 614 391 c 1,122,123
 610 379 610 379 605 367 c 128,-1,124
 600 355 600 355 594 342 c 1,125,126
 633 317 633 317 682 317 c 0,100,101
266 423 m 0,127,128
 293 423 293 423 311 443 c 1,129,130
 300 484 300 484 300 519 c 2,131,-1
 300 527 l 1,132,133
 284 538 284 538 266 538 c 0,134,135
 243 538 243 538 226 521 c 128,-1,136
 209 504 209 504 209 480 c 0,137,138
 209 457 209 457 226 440 c 128,-1,139
 243 423 243 423 266 423 c 0,127,128
676 423 m 0,140,141
 699 423 699 423 716 440 c 128,-1,142
 733 457 733 457 733 480 c 0,143,144
 733 504 733 504 716 521 c 128,-1,145
 699 538 699 538 676 538 c 0,146,147
 657 538 657 538 642 526 c 1,148,-1
 642 519 l 2,149,150
 642 501 642 501 639 482 c 128,-1,151
 636 463 636 463 631 443 c 1,152,153
 646 423 646 423 676 423 c 0,140,141
EndSplineSet
EndChar

StartChar: u16813
Encoding: 111 92179 100
Width: 553
Flags: W
LayerCount: 2
Fore
SplineSet
90 0 m 1,0,-1
 90 255 l 1,1,-1
 121 255 l 1,2,-1
 241 188 l 1,3,-1
 241 472 l 1,4,-1
 121 408 l 1,5,-1
 90 408 l 1,6,-1
 90 682 l 1,7,-1
 140 682 l 1,8,-1
 140 474 l 1,9,-1
 241 529 l 1,10,-1
 241 768 l 1,11,-1
 276 768 l 2,12,13
 296 768 296 768 322 757.5 c 128,-1,14
 348 747 348 747 372.5 729 c 128,-1,15
 397 711 397 711 413.5 688 c 128,-1,16
 430 665 430 665 430 639 c 0,17,18
 430 611 430 611 414 586.5 c 128,-1,19
 398 562 398 562 355 537 c 2,20,-1
 331 523 l 1,21,22
 367 506 367 506 400 477 c 128,-1,23
 433 448 433 448 454 410 c 128,-1,24
 475 372 475 372 475 326 c 0,25,26
 475 279 475 279 459 246 c 128,-1,27
 443 213 443 213 412 187.5 c 128,-1,28
 381 162 381 162 335 136 c 1,29,-1
 503 44 l 1,30,-1
 479 0 l 1,31,-1
 140 188 l 1,32,-1
 140 0 l 1,33,-1
 90 0 l 1,0,-1
291 556 m 1,34,-1
 341 586 l 2,35,36
 380 610 380 610 380 635 c 0,37,38
 380 655 380 655 353.5 679.5 c 128,-1,39
 327 704 327 704 291 714 c 1,40,-1
 291 556 l 1,34,-1
291 167 m 1,41,42
 339 193 339 193 368.5 215 c 128,-1,43
 398 237 398 237 411.5 263 c 128,-1,44
 425 289 425 289 425 326 c 0,45,46
 425 380 425 380 385.5 422 c 128,-1,47
 346 464 346 464 291 486 c 1,48,-1
 291 167 l 1,41,42
EndSplineSet
EndChar

StartChar: u16814
Encoding: 112 92180 101
Width: 823
Flags: W
LayerCount: 2
Fore
SplineSet
90 0 m 1,0,-1
 90 409 l 2,1,2
 90 492 90 492 115 564.5 c 128,-1,3
 140 637 140 637 184.5 692.5 c 128,-1,4
 229 748 229 748 287.5 779 c 128,-1,5
 346 810 346 810 412 810 c 256,6,7
 478 810 478 810 536.5 779 c 128,-1,8
 595 748 595 748 639 692.5 c 128,-1,9
 683 637 683 637 708 564.5 c 128,-1,10
 733 492 733 492 733 409 c 2,11,-1
 733 0 l 1,12,-1
 90 0 l 1,0,-1
435 672 m 1,13,-1
 511 735 l 1,14,15
 475 754 475 754 435 759 c 1,16,-1
 435 672 l 1,13,-1
385 675 m 1,17,-1
 385 758 l 1,18,19
 348 754 348 754 312 735 c 1,20,-1
 385 675 l 1,17,-1
311 50 m 1,21,-1
 512 50 l 1,22,-1
 683 221 l 1,23,-1
 683 409 l 2,24,25
 683 503 683 503 648 581 c 128,-1,26
 613 659 613 659 555 706 c 1,27,-1
 435 605 l 1,28,-1
 435 440 l 1,29,-1
 467 440 l 1,30,31
 475 467 475 467 498 484.5 c 128,-1,32
 521 502 521 502 551 502 c 0,33,34
 588 502 588 502 613 476.5 c 128,-1,35
 638 451 638 451 638 415 c 0,36,37
 638 378 638 378 613 353 c 128,-1,38
 588 328 588 328 551 328 c 0,39,40
 521 328 521 328 498 345 c 128,-1,41
 475 362 475 362 467 390 c 1,42,-1
 435 390 l 1,43,-1
 435 298 l 1,44,45
 462 291 462 291 480 267.5 c 128,-1,46
 498 244 498 244 498 215 c 0,47,48
 498 178 498 178 472.5 153 c 128,-1,49
 447 128 447 128 411 128 c 0,50,51
 374 128 374 128 349 153 c 128,-1,52
 324 178 324 178 324 215 c 0,53,54
 324 244 324 244 341 267 c 128,-1,55
 358 290 358 290 385 298 c 1,56,-1
 385 390 l 1,57,-1
 355 390 l 1,58,59
 348 362 348 362 324.5 345 c 128,-1,60
 301 328 301 328 272 328 c 0,61,62
 235 328 235 328 210 353 c 128,-1,63
 185 378 185 378 185 415 c 0,64,65
 185 451 185 451 210 476.5 c 128,-1,66
 235 502 235 502 272 502 c 0,67,68
 301 502 301 502 324.5 484.5 c 128,-1,69
 348 467 348 467 355 440 c 1,70,-1
 385 440 l 1,71,-1
 385 608 l 1,72,-1
 268 705 l 1,73,74
 210 659 210 659 175 580.5 c 128,-1,75
 140 502 140 502 140 409 c 2,76,-1
 140 221 l 1,77,-1
 311 50 l 1,21,-1
272 378 m 0,78,79
 287 378 287 378 298 388.5 c 128,-1,80
 309 399 309 399 309 415 c 0,81,82
 309 430 309 430 298 441 c 128,-1,83
 287 452 287 452 272 452 c 0,84,85
 256 452 256 452 245.5 441 c 128,-1,86
 235 430 235 430 235 415 c 0,87,88
 235 399 235 399 245.5 388.5 c 128,-1,89
 256 378 256 378 272 378 c 0,78,79
551 378 m 0,90,91
 567 378 567 378 577.5 388.5 c 128,-1,92
 588 399 588 399 588 415 c 0,93,94
 588 430 588 430 577.5 441 c 128,-1,95
 567 452 567 452 551 452 c 0,96,97
 536 452 536 452 525 441 c 128,-1,98
 514 430 514 430 514 415 c 0,99,100
 514 399 514 399 525 388.5 c 128,-1,101
 536 378 536 378 551 378 c 0,90,91
411 178 m 0,102,103
 426 178 426 178 437 188.5 c 128,-1,104
 448 199 448 199 448 215 c 0,105,106
 448 230 448 230 437 241 c 128,-1,107
 426 252 426 252 411 252 c 0,108,109
 395 252 395 252 384.5 241 c 128,-1,110
 374 230 374 230 374 215 c 0,111,112
 374 199 374 199 384.5 188.5 c 128,-1,113
 395 178 395 178 411 178 c 0,102,103
140 50 m 1,114,-1
 239 50 l 1,115,-1
 140 149 l 1,116,-1
 140 50 l 1,114,-1
584 50 m 1,117,-1
 683 50 l 1,118,-1
 683 149 l 1,119,-1
 584 50 l 1,117,-1
EndSplineSet
EndChar

StartChar: u16815
Encoding: 113 92181 102
Width: 633
Flags: W
LayerCount: 2
Fore
SplineSet
295 -50 m 1,0,-1
 295 -41 l 2,1,2
 295 -3 295 -3 278.5 34 c 128,-1,3
 262 71 262 71 238 104 c 128,-1,4
 214 137 214 137 193 162 c 0,5,6
 158 205 158 205 125 251 c 128,-1,7
 92 297 92 297 71 349 c 128,-1,8
 50 401 50 401 50 463 c 0,9,10
 50 542 50 542 83 600.5 c 128,-1,11
 116 659 116 659 175.5 692 c 128,-1,12
 235 725 235 725 316 725 c 0,13,14
 396 725 396 725 456 691.5 c 128,-1,15
 516 658 516 658 549.5 599 c 128,-1,16
 583 540 583 540 583 463 c 0,17,18
 583 403 583 403 562 348.5 c 128,-1,19
 541 294 541 294 508.5 244.5 c 128,-1,20
 476 195 476 195 443 149 c 0,21,22
 404 95 404 95 374.5 46 c 128,-1,23
 345 -3 345 -3 345 -50 c 1,24,-1
 295 -50 l 1,0,-1
130 341 m 1,25,-1
 292 398 l 1,26,-1
 292 674 l 1,27,28
 235 670 235 670 192 642.5 c 128,-1,29
 149 615 149 615 124.5 569 c 128,-1,30
 100 523 100 523 100 463 c 0,31,32
 100 430 100 430 108 400 c 128,-1,33
 116 370 116 370 130 341 c 1,25,-1
504 341 m 1,34,35
 517 370 517 370 525 401 c 128,-1,36
 533 432 533 432 533 463 c 0,37,38
 533 521 533 521 508.5 567 c 128,-1,39
 484 613 484 613 441 641.5 c 128,-1,40
 398 670 398 670 342 674 c 1,41,-1
 342 398 l 1,42,-1
 504 341 l 1,34,35
323 55 m 1,43,44
 339 87 339 87 359.5 116.5 c 128,-1,45
 380 146 380 146 403 179 c 0,46,47
 423 207 423 207 443 236 c 128,-1,48
 463 265 463 265 480 295 c 1,49,-1
 317 354 l 1,50,-1
 155 296 l 1,51,52
 172 269 172 269 192 244 c 128,-1,53
 212 219 212 219 231 194 c 0,54,55
 256 162 256 162 281 127.5 c 128,-1,56
 306 93 306 93 323 55 c 1,43,44
EndSplineSet
EndChar

StartChar: u16816
Encoding: 114 92182 103
Width: 727
Flags: W
LayerCount: 2
Fore
SplineSet
596 -95 m 1,0,1
 530 -95 530 -95 464 -76 c 128,-1,2
 398 -57 398 -57 338.5 -21.5 c 128,-1,3
 279 14 279 14 232.5 62 c 128,-1,4
 186 110 186 110 159.5 168 c 128,-1,5
 133 226 133 226 133 291 c 0,6,7
 133 362 133 362 156 420 c 1,8,9
 104 432 104 432 77 461.5 c 128,-1,10
 50 491 50 491 50 534 c 0,11,12
 50 584 50 584 81.5 607 c 128,-1,13
 113 630 113 630 150 630 c 0,14,15
 182 630 182 630 213.5 608.5 c 128,-1,16
 245 587 245 587 270 555 c 1,17,18
 297 569 297 569 323 575 c 1,19,-1
 255 682 l 1,20,-1
 293 706 l 1,21,-1
 341 625 l 1,22,-1
 341 725 l 1,23,-1
 386 725 l 1,24,-1
 386 625 l 1,25,-1
 434 706 l 1,26,-1
 472 682 l 1,27,-1
 403 574 l 1,28,29
 429 567 429 567 455 553 c 1,30,31
 481 587 481 587 513 608.5 c 128,-1,32
 545 630 545 630 577 630 c 0,33,34
 614 630 614 630 645.5 607 c 128,-1,35
 677 584 677 584 677 534 c 0,36,37
 677 448 677 448 579 422 c 1,38,39
 592 396 592 396 599 367 c 128,-1,40
 606 338 606 338 606 309 c 0,41,42
 606 241 606 241 577.5 180.5 c 128,-1,43
 549 120 549 120 507 71.5 c 128,-1,44
 465 23 465 23 425 -10 c 1,45,46
 466 -26 466 -26 509.5 -35.5 c 128,-1,47
 553 -45 553 -45 596 -45 c 1,48,-1
 596 -95 l 1,0,1
180 467 m 1,49,50
 191 484 191 484 203 499 c 128,-1,51
 215 514 215 514 229 526 c 1,52,53
 212 549 212 549 191 564.5 c 128,-1,54
 170 580 170 580 150 580 c 0,55,56
 131 580 131 580 115.5 569 c 128,-1,57
 100 558 100 558 100 534 c 0,58,59
 100 509 100 509 121 492 c 128,-1,60
 142 475 142 475 180 467 c 1,49,50
551 468 m 1,61,62
 587 476 587 476 607 493 c 128,-1,63
 627 510 627 510 627 534 c 256,64,65
 627 558 627 558 611.5 569 c 128,-1,66
 596 580 596 580 577 580 c 256,67,68
 558 580 558 580 537.5 565 c 128,-1,69
 517 550 517 550 497 525 c 1,70,71
 527 501 527 501 551 468 c 1,61,62
376 13 m 1,72,73
 411 40 411 40 451.5 83.5 c 128,-1,74
 492 127 492 127 520 179 c 1,75,76
 478 201 478 201 448.5 227 c 128,-1,77
 419 253 419 253 419 304 c 0,78,79
 419 348 419 348 438 381.5 c 128,-1,80
 457 415 457 415 504 450 c 1,81,82
 475 486 475 486 436.5 508 c 128,-1,83
 398 530 398 530 360 530 c 0,84,85
 323 530 323 530 287.5 508 c 128,-1,86
 252 486 252 486 226 447 c 1,87,88
 271 413 271 413 289.5 380.5 c 128,-1,89
 308 348 308 348 308 304 c 0,90,91
 308 254 308 254 279 227.5 c 128,-1,92
 250 201 250 201 208 180 c 1,93,94
 233 128 233 128 277 85.5 c 128,-1,95
 321 43 321 43 376 13 c 1,72,73
540 224 m 1,96,97
 548 244 548 244 552 265.5 c 128,-1,98
 556 287 556 287 556 309 c 0,99,100
 556 335 556 335 549 360 c 128,-1,101
 542 385 542 385 531 407 c 1,102,103
 498 382 498 382 483.5 357.5 c 128,-1,104
 469 333 469 333 469 304 c 256,105,106
 469 275 469 275 490 257 c 128,-1,107
 511 239 511 239 540 224 c 1,96,97
191 227 m 1,108,109
 220 241 220 241 239 258.5 c 128,-1,110
 258 276 258 276 258 304 c 256,111,112
 258 332 258 332 245 355 c 128,-1,113
 232 378 232 378 203 402 c 1,114,115
 183 351 183 351 183 291 c 0,116,117
 183 259 183 259 191 227 c 1,108,109
EndSplineSet
EndChar

StartChar: u16817
Encoding: 115 92183 104
Width: 483
Flags: W
LayerCount: 2
Fore
SplineSet
205 -10 m 0,0,1
 137 -10 137 -10 101 28 c 128,-1,2
 65 66 65 66 65 127 c 0,3,4
 65 168 65 168 82 197.5 c 128,-1,5
 99 227 99 227 118 252 c 0,6,7
 132 272 132 272 143.5 290.5 c 128,-1,8
 155 309 155 309 155 329 c 0,9,10
 155 355 155 355 140 375.5 c 128,-1,11
 125 396 125 396 108 415 c 0,12,13
 86 439 86 439 68 465.5 c 128,-1,14
 50 492 50 492 50 531 c 0,15,16
 50 579 50 579 72 609 c 128,-1,17
 94 639 94 639 128.5 653 c 128,-1,18
 163 667 163 667 202 667 c 0,19,20
 283 667 283 667 334 623 c 128,-1,21
 385 579 385 579 409 506 c 128,-1,22
 433 433 433 433 433 345 c 0,23,24
 433 237 433 237 401.5 157.5 c 128,-1,25
 370 78 370 78 318.5 34 c 128,-1,26
 267 -10 267 -10 205 -10 c 0,0,1
205 40 m 0,27,28
 253 40 253 40 293.5 80.5 c 128,-1,29
 334 121 334 121 358 190.5 c 128,-1,30
 382 260 382 260 382 347 c 0,31,32
 382 397 382 397 371.5 445 c 128,-1,33
 361 493 361 493 339.5 532 c 128,-1,34
 318 571 318 571 284 594 c 128,-1,35
 250 617 250 617 202 617 c 0,36,37
 163 617 163 617 131.5 596.5 c 128,-1,38
 100 576 100 576 100 531 c 0,39,40
 100 507 100 507 114.5 487.5 c 128,-1,41
 129 468 129 468 146 449 c 0,42,43
 168 425 168 425 186.5 397.5 c 128,-1,44
 205 370 205 370 205 329 c 0,45,46
 205 296 205 296 191 271.5 c 128,-1,47
 177 247 177 247 158 222 c 0,48,49
 142 201 142 201 128.5 178 c 128,-1,50
 115 155 115 155 115 127 c 0,51,52
 115 89 115 89 138 64.5 c 128,-1,53
 161 40 161 40 205 40 c 0,27,28
EndSplineSet
EndChar

StartChar: u16818
Encoding: 116 92184 105
Width: 573
Flags: W
LayerCount: 2
Fore
SplineSet
274 -10 m 0,0,1
 206 -10 206 -10 170 28 c 128,-1,2
 134 66 134 66 134 127 c 0,3,4
 134 168 134 168 151 197.5 c 128,-1,5
 168 227 168 227 187 252 c 0,6,7
 201 272 201 272 212.5 290.5 c 128,-1,8
 224 309 224 309 224 329 c 0,9,10
 224 355 224 355 209 375.5 c 128,-1,11
 194 396 194 396 177 415 c 0,12,13
 155 439 155 439 137 465.5 c 128,-1,14
 119 492 119 492 119 531 c 0,15,16
 119 541 119 541 120.5 550 c 128,-1,17
 122 559 122 559 123 567 c 1,18,-1
 20 658 l 1,19,-1
 56 701 l 1,20,-1
 149 619 l 1,21,22
 154 625 154 625 160 630 c 128,-1,23
 166 635 166 635 172 639 c 1,24,-1
 118 751 l 1,25,-1
 168 776 l 1,26,-1
 223 661 l 1,27,28
 229 663 229 663 235 664 c 128,-1,29
 241 665 241 665 247 666 c 1,30,-1
 247 790 l 1,31,-1
 303 790 l 1,32,-1
 303 665 l 1,33,34
 308 664 308 664 313 663.5 c 128,-1,35
 318 663 318 663 322 661 c 1,36,-1
 381 776 l 1,37,-1
 430 750 l 1,38,-1
 375 641 l 1,39,40
 380 639 380 639 385 636 c 128,-1,41
 390 633 390 633 394 629 c 1,42,-1
 487 711 l 1,43,-1
 523 668 l 1,44,-1
 434 590 l 1,45,46
 469 546 469 546 485.5 482 c 128,-1,47
 502 418 502 418 502 345 c 0,48,49
 502 237 502 237 470.5 157.5 c 128,-1,50
 439 78 439 78 387.5 34 c 128,-1,51
 336 -10 336 -10 274 -10 c 0,0,1
274 40 m 0,52,53
 322 40 322 40 362.5 80.5 c 128,-1,54
 403 121 403 121 427 190.5 c 128,-1,55
 451 260 451 260 451 347 c 0,56,57
 451 397 451 397 440.5 445 c 128,-1,58
 430 493 430 493 408.5 532 c 128,-1,59
 387 571 387 571 353 594 c 128,-1,60
 319 617 319 617 271 617 c 0,61,62
 232 617 232 617 200.5 596.5 c 128,-1,63
 169 576 169 576 169 531 c 0,64,65
 169 507 169 507 183.5 487.5 c 128,-1,66
 198 468 198 468 215 449 c 0,67,68
 237 425 237 425 255.5 397.5 c 128,-1,69
 274 370 274 370 274 329 c 0,70,71
 274 296 274 296 260 271.5 c 128,-1,72
 246 247 246 247 227 222 c 0,73,74
 211 201 211 201 197.5 178 c 128,-1,75
 184 155 184 155 184 127 c 0,76,77
 184 89 184 89 207 64.5 c 128,-1,78
 230 40 230 40 274 40 c 0,52,53
EndSplineSet
EndChar

StartChar: u16819
Encoding: 117 92185 106
Width: 445
Flags: W
LayerCount: 2
Fore
SplineSet
201 -54 m 1,0,-1
 69 117 l 1,1,-1
 69 146 l 1,2,-1
 193 146 l 1,3,-1
 193 200 l 1,4,5
 152 207 152 207 119.5 231 c 128,-1,6
 87 255 87 255 68.5 291 c 128,-1,7
 50 327 50 327 50 370 c 256,8,9
 50 413 50 413 68.5 449 c 128,-1,10
 87 485 87 485 119.5 509.5 c 128,-1,11
 152 534 152 534 193 540 c 1,12,-1
 193 593 l 1,13,-1
 69 593 l 1,14,-1
 69 622 l 1,15,-1
 201 787 l 1,16,-1
 236 787 l 1,17,-1
 367 622 l 1,18,-1
 367 593 l 1,19,-1
 243 593 l 1,20,-1
 243 541 l 1,21,22
 286 536 286 536 320.5 512 c 128,-1,23
 355 488 355 488 375 451.5 c 128,-1,24
 395 415 395 415 395 370 c 0,25,26
 395 326 395 326 375 289 c 128,-1,27
 355 252 355 252 320.5 228 c 128,-1,28
 286 204 286 204 243 199 c 1,29,-1
 243 146 l 1,30,-1
 367 146 l 1,31,-1
 367 117 l 1,32,-1
 236 -54 l 1,33,-1
 201 -54 l 1,0,-1
130 633 m 1,34,-1
 193 633 l 1,35,-1
 193 714 l 1,36,-1
 130 633 l 1,34,-1
243 633 m 1,37,-1
 306 633 l 1,38,-1
 243 714 l 1,39,-1
 243 633 l 1,37,-1
243 249 m 1,40,41
 287 257 287 257 316 290.5 c 128,-1,42
 345 324 345 324 345 370 c 256,43,44
 345 416 345 416 316 450 c 128,-1,45
 287 484 287 484 243 491 c 1,46,-1
 243 249 l 1,40,41
193 251 m 1,47,-1
 193 489 l 1,48,49
 153 479 153 479 126.5 446.5 c 128,-1,50
 100 414 100 414 100 370 c 0,51,52
 100 327 100 327 126.5 294 c 128,-1,53
 153 261 153 261 193 251 c 1,47,-1
193 21 m 1,54,-1
 193 106 l 1,55,-1
 130 106 l 1,56,-1
 193 21 l 1,54,-1
243 21 m 1,57,-1
 306 106 l 1,58,-1
 243 106 l 1,59,-1
 243 21 l 1,57,-1
EndSplineSet
EndChar

StartChar: u1681A
Encoding: 118 92186 107
Width: 644
Flags: W
LayerCount: 2
Fore
SplineSet
149 0 m 1,0,-1
 149 38 l 2,1,2
 149 145 149 145 135 246 c 128,-1,3
 121 347 121 347 99 430.5 c 128,-1,4
 77 514 77 514 52 567 c 0,5,6
 51 570 51 570 50.5 573 c 128,-1,7
 50 576 50 576 50 579 c 0,8,9
 50 602 50 602 78.5 620.5 c 128,-1,10
 107 639 107 639 155 650 c 128,-1,11
 203 661 203 661 262 661 c 256,12,13
 321 661 321 661 369.5 650 c 128,-1,14
 418 639 418 639 446.5 620.5 c 128,-1,15
 475 602 475 602 475 579 c 0,16,17
 475 573 475 573 472 567 c 0,18,19
 465 548 465 548 459.5 526.5 c 128,-1,20
 454 505 454 505 449 483 c 1,21,22
 490 481 490 481 522.5 459.5 c 128,-1,23
 555 438 555 438 574.5 404 c 128,-1,24
 594 370 594 370 594 329 c 0,25,26
 594 286 594 286 573 251 c 128,-1,27
 552 216 552 216 517 195 c 128,-1,28
 482 174 482 174 439 174 c 0,29,30
 429 174 429 174 419.5 175 c 128,-1,31
 410 176 410 176 401 178 c 1,32,33
 397 136 397 136 394.5 99.5 c 128,-1,34
 392 63 392 63 390 34 c 1,35,-1
 322 30 l 2,36,37
 283 28 283 28 252 24.5 c 128,-1,38
 221 21 221 21 199 0 c 1,39,-1
 149 0 l 1,0,-1
262 547 m 0,40,41
 330 547 330 547 375 556.5 c 128,-1,42
 420 566 420 566 420 579 c 256,43,44
 420 592 420 592 375 601.5 c 128,-1,45
 330 611 330 611 262 611 c 0,46,47
 195 611 195 611 150.5 601.5 c 128,-1,48
 106 592 106 592 106 579 c 256,49,50
 106 566 106 566 150.5 556.5 c 128,-1,51
 195 547 195 547 262 547 c 0,40,41
199 59 m 1,52,53
 227 73 227 73 263 76 c 128,-1,54
 299 79 299 79 342 80 c 1,55,56
 346 132 346 132 352.5 205 c 128,-1,57
 359 278 359 278 372 360 c 128,-1,58
 385 442 385 442 407 519 c 1,59,60
 347 497 347 497 262 497 c 0,61,62
 184 497 184 497 127 516 c 1,63,64
 152 433 152 433 174.5 316.5 c 128,-1,65
 197 200 197 200 199 59 c 1,52,53
439 224 m 0,66,67
 483 224 483 224 513.5 255 c 128,-1,68
 544 286 544 286 544 329 c 0,69,70
 544 373 544 373 513.5 403.5 c 128,-1,71
 483 434 483 434 439 434 c 2,72,-1
 438 434 l 1,73,74
 434 417 434 417 431 399.5 c 128,-1,75
 428 382 428 382 425 364 c 1,76,77
 431 367 431 367 439 367 c 0,78,79
 455 367 455 367 466 356 c 128,-1,80
 477 345 477 345 477 329 c 256,81,82
 477 313 477 313 466 302 c 128,-1,83
 455 291 455 291 439 291 c 0,84,85
 425 291 425 291 415 299 c 1,86,87
 409 262 409 262 406 229 c 1,88,89
 423 224 423 224 439 224 c 0,66,67
EndSplineSet
EndChar

StartChar: u1681B
Encoding: 119 92187 108
Width: 575
Flags: W
LayerCount: 2
Fore
SplineSet
344 -45 m 1,0,1
 327 67 327 67 291 183 c 128,-1,2
 255 299 255 299 196.5 410 c 128,-1,3
 138 521 138 521 50 617 c 1,4,-1
 50 652 l 1,5,6
 92 668 92 668 145.5 681 c 128,-1,7
 199 694 199 694 254 704 c 128,-1,8
 309 714 309 714 358.5 719.5 c 128,-1,9
 408 725 408 725 442 725 c 2,10,-1
 464 725 l 1,11,12
 475 680 475 680 480 624.5 c 128,-1,13
 485 569 485 569 485 523 c 0,14,15
 485 398 485 398 460 256 c 128,-1,16
 435 114 435 114 394 -45 c 1,17,-1
 344 -45 l 1,0,1
197 514 m 1,18,19
 252 552 252 552 308.5 580.5 c 128,-1,20
 365 609 365 609 428 621 c 1,21,22
 425 649 425 649 419 674 c 1,23,24
 377 673 377 673 321 666 c 128,-1,25
 265 659 265 659 210 648.5 c 128,-1,26
 155 638 155 638 112 624 c 1,27,28
 135 598 135 598 156.5 570.5 c 128,-1,29
 178 543 178 543 197 514 c 1,18,19
372 53 m 1,30,31
 392 170 392 170 413.5 289 c 128,-1,32
 435 408 435 408 435 523 c 0,33,34
 435 535 435 535 434.5 547 c 128,-1,35
 434 559 434 559 433 570 c 1,36,37
 375 559 375 559 324 533 c 128,-1,38
 273 507 273 507 223 472 c 1,39,40
 282 372 282 372 319.5 263.5 c 128,-1,41
 357 155 357 155 372 53 c 1,30,31
EndSplineSet
EndChar

StartChar: u1681C
Encoding: 120 92188 109
Width: 425
Flags: W
LayerCount: 2
Fore
SplineSet
219 -55 m 256,0,1
 178 -55 178 -55 148.5 -25.5 c 128,-1,2
 119 4 119 4 119 45 c 0,3,4
 119 65 119 65 127 84 c 1,5,6
 93 104 93 104 73 140 c 128,-1,7
 53 176 53 176 53 225 c 0,8,9
 53 270 53 270 66 309.5 c 128,-1,10
 79 349 79 349 92 381 c 0,11,12
 103 409 103 409 113.5 440 c 128,-1,13
 124 471 124 471 124 503 c 0,14,15
 124 551 124 551 104.5 601.5 c 128,-1,16
 85 652 85 652 50 692 c 1,17,-1
 85 725 l 1,18,19
 180 676 180 676 244.5 603.5 c 128,-1,20
 309 531 309 531 342 447 c 128,-1,21
 375 363 375 363 375 278 c 0,22,23
 375 210 375 210 357 163.5 c 128,-1,24
 339 117 339 117 307 92 c 1,25,26
 319 71 319 71 319 45 c 0,27,28
 319 4 319 4 289.5 -25.5 c 128,-1,29
 260 -55 260 -55 219 -55 c 256,0,1
214 111 m 0,30,31
 263 111 263 111 294 152 c 128,-1,32
 325 193 325 193 325 278 c 0,33,34
 325 345 325 345 302 410.5 c 128,-1,35
 279 476 279 476 237.5 534 c 128,-1,36
 196 592 196 592 140 636 c 1,37,38
 157 605 157 605 165.5 570 c 128,-1,39
 174 535 174 535 174 503 c 0,40,41
 174 462 174 462 163 427.5 c 128,-1,42
 152 393 152 393 138 361 c 0,43,44
 125 330 125 330 114 297 c 128,-1,45
 103 264 103 264 103 225 c 0,46,47
 103 173 103 173 135 142 c 128,-1,48
 167 111 167 111 214 111 c 0,30,31
219 -5 m 256,49,50
 239 -5 239 -5 254 10 c 128,-1,51
 269 25 269 25 269 45 c 0,52,53
 269 56 269 56 262 68 c 1,54,55
 241 61 241 61 214 61 c 0,56,57
 204 61 204 61 193.5 62 c 128,-1,58
 183 63 183 63 173 65 c 1,59,60
 169 57 169 57 169 45 c 0,61,62
 169 25 169 25 184 10 c 128,-1,63
 199 -5 199 -5 219 -5 c 256,49,50
EndSplineSet
EndChar

StartChar: u1681D
Encoding: 121 92189 110
Width: 771
Flags: W
LayerCount: 2
Fore
SplineSet
66 0 m 1,0,-1
 66 321 l 1,1,-1
 251 321 l 1,2,-1
 360 503 l 1,3,4
 338 533 338 533 305 550 c 128,-1,5
 272 567 272 567 233 567 c 0,6,7
 190 567 190 567 162 549.5 c 128,-1,8
 134 532 134 532 119 506.5 c 128,-1,9
 104 481 104 481 98 457 c 1,10,-1
 50 467 l 1,11,12
 56 497 56 497 77 532 c 128,-1,13
 98 567 98 567 136.5 592 c 128,-1,14
 175 617 175 617 233 617 c 0,15,16
 280 617 280 617 320 598.5 c 128,-1,17
 360 580 360 580 388 547 c 1,18,19
 420 588 420 588 458 602.5 c 128,-1,20
 496 617 496 617 537 617 c 0,21,22
 596 617 596 617 634.5 591.5 c 128,-1,23
 673 566 673 566 694 531 c 128,-1,24
 715 496 715 496 721 467 c 1,25,-1
 673 457 l 1,26,27
 668 480 668 480 652.5 505.5 c 128,-1,28
 637 531 637 531 608.5 549 c 128,-1,29
 580 567 580 567 537 567 c 0,30,31
 504 567 504 567 474 553.5 c 128,-1,32
 444 540 444 540 419 504 c 1,33,-1
 528 321 l 1,34,-1
 713 321 l 1,35,-1
 713 0 l 1,36,-1
 663 0 l 1,37,-1
 501 271 l 1,38,-1
 279 271 l 1,39,-1
 116 0 l 1,40,-1
 66 0 l 1,0,-1
309 321 m 1,41,-1
 471 321 l 1,42,-1
 390 456 l 1,43,-1
 309 321 l 1,41,-1
113 85 m 1,44,45
 124 106 124 106 134.5 125.5 c 128,-1,46
 145 145 145 145 155 161 c 2,47,-1
 221 271 l 1,48,-1
 116 271 l 1,49,-1
 116 161 l 2,50,51
 116 145 116 145 115.5 124.5 c 128,-1,52
 115 104 115 104 113 85 c 1,44,45
666 85 m 1,53,54
 664 106 664 106 663.5 125 c 128,-1,55
 663 144 663 144 663 161 c 2,56,-1
 663 271 l 1,57,-1
 558 271 l 1,58,-1
 624 161 l 2,59,60
 634 145 634 145 646 124 c 128,-1,61
 658 103 658 103 666 85 c 1,53,54
EndSplineSet
EndChar

StartChar: u1681E
Encoding: 122 92190 111
Width: 535
Flags: W
LayerCount: 2
Fore
SplineSet
267 -10 m 0,0,1
 207 -10 207 -10 157.5 12.5 c 128,-1,2
 108 35 108 35 79 73.5 c 128,-1,3
 50 112 50 112 50 158 c 0,4,5
 50 214 50 214 92 258 c 128,-1,6
 134 302 134 302 199 318 c 1,7,-1
 199 714 l 1,8,-1
 335 714 l 1,9,-1
 335 427 l 1,10,11
 346 430 346 430 357 430 c 0,12,13
 394 430 394 430 420 404 c 128,-1,14
 446 378 446 378 446 341 c 0,15,16
 446 322 446 322 439 306.5 c 128,-1,17
 432 291 432 291 420 279 c 1,18,19
 450 256 450 256 467.5 224.5 c 128,-1,20
 485 193 485 193 485 158 c 0,21,22
 485 112 485 112 455.5 73.5 c 128,-1,23
 426 35 426 35 377 12.5 c 128,-1,24
 328 -10 328 -10 267 -10 c 0,0,1
249 326 m 1,25,26
 254 327 254 327 258.5 327 c 128,-1,27
 263 327 263 327 267 327 c 0,28,29
 272 327 272 327 276.5 327 c 128,-1,30
 281 327 281 327 285 326 c 1,31,-1
 285 664 l 1,32,-1
 249 664 l 1,33,-1
 249 326 l 1,25,26
372 306 m 1,34,35
 396 315 396 315 396 341 c 0,36,37
 396 357 396 357 384.5 368.5 c 128,-1,38
 373 380 373 380 357 380 c 0,39,40
 345 380 345 380 335 372 c 1,41,-1
 335 318 l 1,42,43
 353 314 353 314 372 306 c 1,34,35
267 40 m 0,44,45
 314 40 314 40 352 56 c 128,-1,46
 390 72 390 72 412.5 99 c 128,-1,47
 435 126 435 126 435 158 c 0,48,49
 435 191 435 191 412.5 218 c 128,-1,50
 390 245 390 245 352 261 c 128,-1,51
 314 277 314 277 267 277 c 0,52,53
 221 277 221 277 183 261 c 128,-1,54
 145 245 145 245 122.5 218 c 128,-1,55
 100 191 100 191 100 158 c 0,56,57
 100 126 100 126 122.5 99 c 128,-1,58
 145 72 145 72 183 56 c 128,-1,59
 221 40 221 40 267 40 c 0,44,45
EndSplineSet
EndChar

StartChar: u1681F
Encoding: 123 92191 112
Width: 804
Flags: W
LayerCount: 2
Fore
SplineSet
402 -10 m 256,0,1
 329 -10 329 -10 265.5 14.5 c 128,-1,2
 202 39 202 39 153.5 82.5 c 128,-1,3
 105 126 105 126 77.5 183.5 c 128,-1,4
 50 241 50 241 50 307 c 256,5,6
 50 373 50 373 77.5 430.5 c 128,-1,7
 105 488 105 488 153.5 532 c 128,-1,8
 202 576 202 576 265.5 600.5 c 128,-1,9
 329 625 329 625 402 625 c 256,10,11
 475 625 475 625 538.5 600.5 c 128,-1,12
 602 576 602 576 650.5 532 c 128,-1,13
 699 488 699 488 726.5 430.5 c 128,-1,14
 754 373 754 373 754 307 c 256,15,16
 754 241 754 241 726.5 183.5 c 128,-1,17
 699 126 699 126 650.5 82.5 c 128,-1,18
 602 39 602 39 538.5 14.5 c 128,-1,19
 475 -10 475 -10 402 -10 c 256,0,1
402 40 m 256,20,21
 464 40 464 40 519 60.5 c 128,-1,22
 574 81 574 81 615.5 118 c 128,-1,23
 657 155 657 155 680.5 203.5 c 128,-1,24
 704 252 704 252 704 307 c 0,25,26
 704 363 704 363 680.5 411.5 c 128,-1,27
 657 460 657 460 615.5 496.5 c 128,-1,28
 574 533 574 533 519 554 c 128,-1,29
 464 575 464 575 402 575 c 256,30,31
 340 575 340 575 285 554 c 128,-1,32
 230 533 230 533 188.5 496.5 c 128,-1,33
 147 460 147 460 123.5 411.5 c 128,-1,34
 100 363 100 363 100 307 c 0,35,36
 100 252 100 252 123.5 203.5 c 128,-1,37
 147 155 147 155 188.5 118 c 128,-1,38
 230 81 230 81 285 60.5 c 128,-1,39
 340 40 340 40 402 40 c 256,20,21
194 247 m 1,40,-1
 155 272 l 1,41,42
 174 361 174 361 239.5 412.5 c 128,-1,43
 305 464 305 464 399 464 c 0,44,45
 505 464 505 464 568 410 c 128,-1,46
 631 356 631 356 649 272 c 1,47,-1
 610 247 l 1,48,49
 572 274 572 274 519.5 289.5 c 128,-1,50
 467 305 467 305 406 305 c 0,51,52
 358 305 358 305 306 295 c 128,-1,53
 254 285 254 285 194 247 c 1,40,-1
219 316 m 1,54,55
 252 331 252 331 295 343 c 128,-1,56
 338 355 338 355 398 355 c 0,57,58
 452 355 452 355 499.5 344.5 c 128,-1,59
 547 334 547 334 584 316 c 1,60,61
 559 363 559 363 511 388.5 c 128,-1,62
 463 414 463 414 400 414 c 0,63,64
 349 414 349 414 313.5 399 c 128,-1,65
 278 384 278 384 255.5 361.5 c 128,-1,66
 233 339 233 339 219 316 c 1,54,55
EndSplineSet
EndChar

StartChar: u16820
Encoding: 124 92192 113
Width: 1086
Flags: W
LayerCount: 2
Fore
SplineSet
518 229 m 1,0,-1
 518 536 l 1,1,-1
 568 536 l 1,2,-1
 568 229 l 1,3,-1
 518 229 l 1,0,-1
757 -10 m 256,4,5
 711 -10 711 -10 678.5 22 c 128,-1,6
 646 54 646 54 646 100 c 0,7,8
 646 133 646 133 663.5 160 c 128,-1,9
 681 187 681 187 709 200 c 1,10,-1
 614 296 l 1,11,-1
 614 331 l 1,12,-1
 739 456 l 1,13,-1
 774 456 l 1,14,-1
 892 338 l 1,15,-1
 1036 338 l 1,16,-1
 1036 288 l 1,17,-1
 892 288 l 1,18,-1
 804 200 l 1,19,20
 832 187 832 187 849.5 160 c 128,-1,21
 867 133 867 133 867 100 c 0,22,23
 867 54 867 54 835 22 c 128,-1,24
 803 -10 803 -10 757 -10 c 256,4,5
329 -10 m 256,25,26
 283 -10 283 -10 251 22 c 128,-1,27
 219 54 219 54 219 100 c 0,28,29
 219 133 219 133 236 160 c 128,-1,30
 253 187 253 187 281 200 c 1,31,-1
 194 288 l 1,32,-1
 50 288 l 1,33,-1
 50 338 l 1,34,-1
 194 338 l 1,35,-1
 311 456 l 1,36,-1
 346 456 l 1,37,-1
 472 331 l 1,38,-1
 472 296 l 1,39,-1
 376 200 l 1,40,41
 405 187 405 187 422.5 160 c 128,-1,42
 440 133 440 133 440 100 c 0,43,44
 440 54 440 54 407.5 22 c 128,-1,45
 375 -10 375 -10 329 -10 c 256,25,26
329 225 m 1,46,-1
 417 313 l 1,47,-1
 329 401 l 1,48,-1
 241 313 l 1,49,-1
 329 225 l 1,46,-1
757 225 m 1,50,-1
 845 313 l 1,51,-1
 757 401 l 1,52,-1
 669 313 l 1,53,-1
 757 225 l 1,50,-1
329 40 m 256,54,55
 354 40 354 40 372 57.5 c 128,-1,56
 390 75 390 75 390 100 c 256,57,58
 390 125 390 125 372 143 c 128,-1,59
 354 161 354 161 329 161 c 256,60,61
 304 161 304 161 286.5 143 c 128,-1,62
 269 125 269 125 269 100 c 256,63,64
 269 75 269 75 286.5 57.5 c 128,-1,65
 304 40 304 40 329 40 c 256,54,55
757 40 m 256,66,67
 782 40 782 40 799.5 57.5 c 128,-1,68
 817 75 817 75 817 100 c 256,69,70
 817 125 817 125 799.5 143 c 128,-1,71
 782 161 782 161 757 161 c 256,72,73
 732 161 732 161 714 143 c 128,-1,74
 696 125 696 125 696 100 c 256,75,76
 696 75 696 75 714 57.5 c 128,-1,77
 732 40 732 40 757 40 c 256,66,67
EndSplineSet
EndChar

StartChar: u16821
Encoding: 125 92193 114
Width: 994
Flags: W
LayerCount: 2
Fore
SplineSet
497 -67 m 256,0,1
 404 -67 404 -67 323 -35 c 128,-1,2
 242 -3 242 -3 180.5 53 c 128,-1,3
 119 109 119 109 84.5 184 c 128,-1,4
 50 259 50 259 50 344 c 0,5,6
 50 430 50 430 84.5 504.5 c 128,-1,7
 119 579 119 579 180.5 635.5 c 128,-1,8
 242 692 242 692 323 724 c 128,-1,9
 404 756 404 756 497 756 c 256,10,11
 590 756 590 756 671 724 c 128,-1,12
 752 692 752 692 813.5 635.5 c 128,-1,13
 875 579 875 579 909.5 504.5 c 128,-1,14
 944 430 944 430 944 344 c 0,15,16
 944 259 944 259 909.5 184 c 128,-1,17
 875 109 875 109 813.5 53 c 128,-1,18
 752 -3 752 -3 671 -35 c 128,-1,19
 590 -67 590 -67 497 -67 c 256,0,1
497 -17 m 256,20,21
 579 -17 579 -17 651 11 c 128,-1,22
 723 39 723 39 777.5 88.5 c 128,-1,23
 832 138 832 138 863 203.5 c 128,-1,24
 894 269 894 269 894 344 c 256,25,26
 894 419 894 419 863 484.5 c 128,-1,27
 832 550 832 550 777.5 600 c 128,-1,28
 723 650 723 650 651 678 c 128,-1,29
 579 706 579 706 497 706 c 256,30,31
 415 706 415 706 343 678 c 128,-1,32
 271 650 271 650 216.5 600 c 128,-1,33
 162 550 162 550 131 484.5 c 128,-1,34
 100 419 100 419 100 344 c 256,35,36
 100 269 100 269 131 203.5 c 128,-1,37
 162 138 162 138 216.5 88.5 c 128,-1,38
 271 39 271 39 343 11 c 128,-1,39
 415 -17 415 -17 497 -17 c 256,20,21
386 70 m 0,40,41
 337 70 337 70 302 104.5 c 128,-1,42
 267 139 267 139 249 201.5 c 128,-1,43
 231 264 231 264 231 347 c 0,44,45
 231 431 231 431 249.5 493.5 c 128,-1,46
 268 556 268 556 301.5 590 c 128,-1,47
 335 624 335 624 378 624 c 0,48,49
 407 624 407 624 429.5 613.5 c 128,-1,50
 452 603 452 603 470 574 c 1,51,-1
 432 544 l 1,52,53
 420 562 420 562 406 568 c 128,-1,54
 392 574 392 574 378 574 c 0,55,56
 359 574 359 574 342.5 558.5 c 128,-1,57
 326 543 326 543 313 516 c 1,58,-1
 462 516 l 1,59,-1
 462 466 l 1,60,-1
 295 466 l 1,61,-1
 286 422 l 1,62,-1
 462 422 l 1,63,-1
 462 372 l 1,64,-1
 281 372 l 1,65,-1
 281 328 l 1,66,-1
 462 328 l 1,67,-1
 462 278 l 1,68,-1
 285 278 l 1,69,70
 287 267 287 267 289 256 c 128,-1,71
 291 245 291 245 293 234 c 1,72,-1
 462 234 l 1,73,-1
 462 184 l 1,74,-1
 310 184 l 1,75,76
 322 156 322 156 340 138 c 128,-1,77
 358 120 358 120 382 120 c 0,78,79
 397 120 397 120 410 128 c 128,-1,80
 423 136 423 136 435 156 c 1,81,-1
 474 129 l 1,82,83
 455 98 455 98 432 84 c 128,-1,84
 409 70 409 70 386 70 c 0,40,41
642 70 m 0,85,86
 593 70 593 70 558 104.5 c 128,-1,87
 523 139 523 139 505 201.5 c 128,-1,88
 487 264 487 264 487 347 c 0,89,90
 487 431 487 431 505.5 493.5 c 128,-1,91
 524 556 524 556 557.5 590 c 128,-1,92
 591 624 591 624 634 624 c 0,93,94
 663 624 663 624 685.5 613.5 c 128,-1,95
 708 603 708 603 726 574 c 1,96,-1
 688 544 l 1,97,98
 676 562 676 562 662 568 c 128,-1,99
 648 574 648 574 634 574 c 0,100,101
 615 574 615 574 598.5 558.5 c 128,-1,102
 582 543 582 543 569 516 c 1,103,-1
 718 516 l 1,104,-1
 718 466 l 1,105,-1
 551 466 l 1,106,-1
 542 422 l 1,107,-1
 718 422 l 1,108,-1
 718 372 l 1,109,-1
 537 372 l 1,110,-1
 537 328 l 1,111,-1
 718 328 l 1,112,-1
 718 278 l 1,113,-1
 541 278 l 1,114,115
 543 267 543 267 545 256 c 128,-1,116
 547 245 547 245 549 234 c 1,117,-1
 718 234 l 1,118,-1
 718 184 l 1,119,-1
 566 184 l 1,120,121
 578 156 578 156 596 138 c 128,-1,122
 614 120 614 120 638 120 c 0,123,124
 653 120 653 120 666 128 c 128,-1,125
 679 136 679 136 691 156 c 1,126,-1
 730 129 l 1,127,128
 711 98 711 98 688 84 c 128,-1,129
 665 70 665 70 642 70 c 0,85,86
EndSplineSet
EndChar

StartChar: u16822
Encoding: 126 92194 115
Width: 575
Flags: W
LayerCount: 2
Fore
SplineSet
90 -10 m 1,0,-1
 90 729 l 1,1,-1
 119 729 l 1,2,-1
 525 617 l 1,3,-1
 525 581 l 1,4,-1
 217 470 l 1,5,-1
 525 383 l 1,6,-1
 525 347 l 1,7,-1
 231 245 l 1,8,-1
 525 157 l 1,9,-1
 525 121 l 1,10,-1
 119 -10 l 1,11,-1
 90 -10 l 1,0,-1
EndSplineSet
EndChar

StartChar: u16823
Encoding: 127 92195 116
Width: 406
Flags: W
LayerCount: 2
Fore
SplineSet
127 -72 m 1,0,-1
 87 -42 l 1,1,2
 97 -28 97 -28 105.5 -15.5 c 128,-1,3
 114 -3 114 -3 122 9 c 1,4,-1
 50 58 l 1,5,-1
 79 99 l 1,6,-1
 146 53 l 1,7,8
 162 83 162 83 173 115 c 1,9,-1
 91 149 l 1,10,-1
 110 194 l 1,11,-1
 189 161 l 1,12,13
 194 178 194 178 197.5 193.5 c 128,-1,14
 201 209 201 209 204 224 c 1,15,-1
 119 239 l 1,16,-1
 128 288 l 1,17,-1
 211 274 l 1,18,19
 213 291 213 291 213.5 306.5 c 128,-1,20
 214 322 214 322 215 336 c 1,21,-1
 128 336 l 1,22,-1
 128 386 l 1,23,-1
 215 386 l 1,24,25
 214 401 214 401 213.5 416.5 c 128,-1,26
 213 432 213 432 211 448 c 1,27,-1
 128 434 l 1,28,-1
 119 483 l 1,29,-1
 204 497 l 1,30,31
 198 527 198 527 189 561 c 1,32,-1
 110 528 l 1,33,-1
 91 573 l 1,34,-1
 174 607 l 1,35,36
 168 622 168 622 161.5 637.5 c 128,-1,37
 155 653 155 653 147 668 c 1,38,-1
 79 622 l 1,39,-1
 50 664 l 1,40,-1
 122 712 l 1,41,42
 115 726 115 726 106 738.5 c 128,-1,43
 97 751 97 751 87 764 c 1,44,-1
 127 794 l 1,45,46
 137 781 137 781 146.5 767.5 c 128,-1,47
 156 754 156 754 164 740 c 1,48,-1
 239 791 l 1,49,-1
 268 750 l 1,50,-1
 189 696 l 1,51,52
 198 679 198 679 206 661 c 128,-1,53
 214 643 214 643 220 626 c 1,54,-1
 302 660 l 1,55,-1
 321 615 l 1,56,-1
 236 580 l 1,57,58
 241 561 241 561 245 542.5 c 128,-1,59
 249 524 249 524 253 505 c 1,60,-1
 344 521 l 1,61,-1
 353 472 l 1,62,-1
 260 456 l 1,63,64
 262 438 262 438 263 420.5 c 128,-1,65
 264 403 264 403 265 386 c 1,66,-1
 356 386 l 1,67,-1
 356 336 l 1,68,-1
 265 336 l 1,69,70
 264 320 264 320 263 302.5 c 128,-1,71
 262 285 262 285 260 265 c 1,72,-1
 353 250 l 1,73,-1
 344 201 l 1,74,-1
 253 216 l 1,75,76
 250 198 250 198 246 180 c 128,-1,77
 242 162 242 162 236 142 c 1,78,-1
 321 107 l 1,79,-1
 302 62 l 1,80,-1
 220 95 l 1,81,82
 214 78 214 78 206 60.5 c 128,-1,83
 198 43 198 43 188 25 c 1,84,-1
 268 -28 l 1,85,-1
 239 -69 l 1,86,-1
 163 -18 l 1,87,88
 147 -45 147 -45 127 -72 c 1,0,-1
EndSplineSet
EndChar

StartChar: u16824
Encoding: 128 92196 117
Width: 608
Flags: W
LayerCount: 2
Fore
SplineSet
405 -76 m 0,0,1
 371 -76 371 -76 341 -53 c 128,-1,2
 311 -30 311 -30 290.5 9.5 c 128,-1,3
 270 49 270 49 262 100 c 1,4,-1
 50 100 l 1,5,-1
 50 137 l 1,6,-1
 111 165 l 1,7,-1
 50 191 l 1,8,-1
 50 220 l 1,9,-1
 111 243 l 1,10,-1
 50 267 l 1,11,-1
 50 296 l 1,12,-1
 111 319 l 1,13,-1
 50 343 l 1,14,-1
 50 372 l 1,15,-1
 111 395 l 1,16,-1
 50 419 l 1,17,-1
 50 448 l 1,18,-1
 111 471 l 1,19,-1
 50 495 l 1,20,-1
 50 524 l 1,21,-1
 111 547 l 1,22,-1
 50 573 l 1,23,-1
 50 610 l 1,24,-1
 262 610 l 1,25,26
 270 661 270 661 290.5 700.5 c 128,-1,27
 311 740 311 740 341 763 c 128,-1,28
 371 786 371 786 405 786 c 0,29,30
 446 786 446 786 479 755 c 128,-1,31
 512 724 512 724 532 672 c 128,-1,32
 552 620 552 620 552 556 c 0,33,34
 552 519 552 519 545 485.5 c 128,-1,35
 538 452 538 452 525 424 c 1,36,37
 558 396 558 396 558 357 c 0,38,39
 558 338 558 338 549 320 c 128,-1,40
 540 302 540 302 524 288 c 1,41,42
 537 260 537 260 544.5 226 c 128,-1,43
 552 192 552 192 552 154 c 0,44,45
 552 91 552 91 532 38.5 c 128,-1,46
 512 -14 512 -14 479 -45 c 128,-1,47
 446 -76 446 -76 405 -76 c 0,0,1
483 451 m 1,48,49
 502 497 502 497 502 556 c 0,50,51
 502 606 502 606 489 646.5 c 128,-1,52
 476 687 476 687 454 711.5 c 128,-1,53
 432 736 432 736 405 736 c 0,54,55
 373 736 373 736 347.5 700.5 c 128,-1,56
 322 665 322 665 312 610 c 1,57,-1
 354 610 l 2,58,59
 387 610 387 610 410 587 c 128,-1,60
 433 564 433 564 433 531 c 2,61,-1
 433 464 l 1,62,63
 447 463 447 463 459.5 459.5 c 128,-1,64
 472 456 472 456 483 451 c 1,48,49
185 150 m 1,65,-1
 258 150 l 1,66,-1
 258 154 l 2,67,68
 258 231 258 231 286 289 c 1,69,70
 254 319 254 319 254 357 c 0,71,72
 254 376 254 376 262.5 392.5 c 128,-1,73
 271 409 271 409 285 423 c 1,74,75
 272 451 272 451 265 485 c 128,-1,76
 258 519 258 519 258 556 c 2,77,-1
 258 560 l 1,78,-1
 185 560 l 1,79,-1
 185 531 l 1,80,-1
 126 510 l 1,81,-1
 185 487 l 1,82,-1
 185 458 l 1,83,-1
 126 433 l 1,84,-1
 185 410 l 1,85,-1
 185 381 l 1,86,-1
 126 358 l 1,87,-1
 186 335 l 1,88,-1
 186 306 l 1,89,-1
 126 281 l 1,90,-1
 185 258 l 1,91,-1
 185 229 l 1,92,-1
 126 206 l 1,93,-1
 185 179 l 1,94,-1
 185 150 l 1,65,-1
327 450 m 1,95,96
 340 455 340 455 353.5 459 c 128,-1,97
 367 463 367 463 383 464 c 1,98,-1
 383 531 l 2,99,100
 383 543 383 543 374.5 551.5 c 128,-1,101
 366 560 366 560 354 560 c 2,102,-1
 308 560 l 1,103,-1
 308 556 l 2,104,105
 308 496 308 496 327 450 c 1,95,96
406 298 m 256,106,107
 448 298 448 298 478 315.5 c 128,-1,108
 508 333 508 333 508 357 c 256,109,110
 508 381 508 381 478 398.5 c 128,-1,111
 448 416 448 416 406 416 c 256,112,113
 364 416 364 416 334 398.5 c 128,-1,114
 304 381 304 381 304 357 c 256,115,116
 304 333 304 333 334 315.5 c 128,-1,117
 364 298 364 298 406 298 c 256,106,107
308 150 m 1,118,-1
 354 150 l 2,119,120
 366 150 366 150 374.5 158.5 c 128,-1,121
 383 167 383 167 383 178 c 2,122,-1
 383 249 l 1,123,124
 353 252 353 252 328 263 c 1,125,126
 308 217 308 217 308 154 c 2,127,-1
 308 150 l 1,118,-1
405 -26 m 0,128,129
 432 -26 432 -26 454 -1.5 c 128,-1,130
 476 23 476 23 489 64 c 128,-1,131
 502 105 502 105 502 154 c 0,132,133
 502 185 502 185 496.5 212.5 c 128,-1,134
 491 240 491 240 482 262 c 1,135,136
 471 258 471 258 458.5 254.5 c 128,-1,137
 446 251 446 251 433 249 c 1,138,-1
 433 179 l 2,139,140
 433 146 433 146 410 123 c 128,-1,141
 387 100 387 100 354 100 c 2,142,-1
 312 100 l 1,143,144
 322 45 322 45 347.5 9.5 c 128,-1,145
 373 -26 373 -26 405 -26 c 0,128,129
EndSplineSet
EndChar

StartChar: u16825
Encoding: 129 92197 118
Width: 1146
Flags: W
LayerCount: 2
Fore
SplineSet
50 0 m 1,0,-1
 50 10 l 2,1,2
 50 116 50 116 88 209.5 c 128,-1,3
 126 303 126 303 193.5 375.5 c 128,-1,4
 261 448 261 448 350 490 c 1,5,-1
 146 490 l 1,6,-1
 146 626 l 1,7,-1
 1000 626 l 1,8,-1
 1000 490 l 1,9,-1
 794 490 l 1,10,11
 883 448 883 448 951 375.5 c 128,-1,12
 1019 303 1019 303 1057.5 209.5 c 128,-1,13
 1096 116 1096 116 1096 10 c 2,14,-1
 1096 0 l 1,15,-1
 721 0 l 1,16,-1
 685 41 l 1,17,18
 690 50 690 50 695.5 73.5 c 128,-1,19
 701 97 701 97 701 123 c 0,20,21
 701 170 701 170 683.5 209 c 128,-1,22
 666 248 666 248 637 271 c 128,-1,23
 608 294 608 294 573 294 c 256,24,25
 538 294 538 294 509 271 c 128,-1,26
 480 248 480 248 462.5 209 c 128,-1,27
 445 170 445 170 445 123 c 0,28,29
 445 96 445 96 450.5 74 c 128,-1,30
 456 52 456 52 461 41 c 1,31,-1
 425 0 l 1,32,-1
 50 0 l 1,0,-1
196 540 m 1,33,-1
 950 540 l 1,34,-1
 950 576 l 1,35,-1
 196 576 l 1,36,-1
 196 540 l 1,33,-1
573 394 m 256,37,38
 610 394 610 394 637 419 c 128,-1,39
 664 444 664 444 666 480 c 1,40,41
 643 485 643 485 619.5 487.5 c 128,-1,42
 596 490 596 490 572 490 c 0,43,44
 549 490 549 490 526 487.5 c 128,-1,45
 503 485 503 485 481 480 c 1,46,47
 483 444 483 444 509.5 419 c 128,-1,48
 536 394 536 394 573 394 c 256,37,38
344 336 m 0,49,50
 382 336 382 336 409.5 363 c 128,-1,51
 437 390 437 390 437 428 c 0,52,53
 437 449 437 449 428 467 c 1,54,55
 339 438 339 438 267 377 c 1,56,57
 280 358 280 358 300 347 c 128,-1,58
 320 336 320 336 344 336 c 0,49,50
803 336 m 0,59,60
 826 336 826 336 846 347 c 128,-1,61
 866 358 866 358 878 375 c 1,62,63
 844 405 844 405 803.5 428.5 c 128,-1,64
 763 452 763 452 718 466 c 1,65,66
 710 447 710 447 710 428 c 0,67,68
 710 390 710 390 737.5 363 c 128,-1,69
 765 336 765 336 803 336 c 0,59,60
741 50 m 1,70,-1
 1044 50 l 1,71,72
 1037 134 1037 134 1003 208.5 c 128,-1,73
 969 283 969 283 915 341 c 1,74,75
 896 316 896 316 867 301 c 128,-1,76
 838 286 838 286 803 286 c 0,77,78
 757 286 757 286 719.5 312.5 c 128,-1,79
 682 339 682 339 668 380 c 1,80,81
 650 364 650 364 627.5 354.5 c 128,-1,82
 605 345 605 345 579 344 c 1,83,84
 627 342 627 342 666 311.5 c 128,-1,85
 705 281 705 281 728 232 c 128,-1,86
 751 183 751 183 751 123 c 0,87,88
 751 84 751 84 741 50 c 1,70,-1
101 50 m 1,89,-1
 405 50 l 1,90,91
 395 84 395 84 395 123 c 0,92,93
 395 183 395 183 418 232 c 128,-1,94
 441 281 441 281 480 311.5 c 128,-1,95
 519 342 519 342 567 344 c 1,96,97
 516 345 516 345 478 379 c 1,98,99
 463 338 463 338 427 312 c 128,-1,100
 391 286 391 286 344 286 c 0,101,102
 309 286 309 286 279.5 301.5 c 128,-1,103
 250 317 250 317 231 342 c 1,104,105
 176 284 176 284 142 209.5 c 128,-1,106
 108 135 108 135 101 50 c 1,89,-1
EndSplineSet
EndChar

StartChar: u16826
Encoding: 130 92198 119
Width: 1177
Flags: W
LayerCount: 2
Fore
SplineSet
451 -63 m 1,0,-1
 451 315 l 1,1,2
 396 260 396 260 342.5 217 c 128,-1,3
 289 174 289 174 230 133 c 0,4,5
 217 124 217 124 195 107 c 128,-1,6
 173 90 173 90 160 80 c 1,7,-1
 50 226 l 1,8,9
 99 276 99 276 160 327 c 128,-1,10
 221 378 221 378 291 419.5 c 128,-1,11
 361 461 361 461 436 482 c 1,12,13
 428 490 428 490 421 501 c 0,14,15
 405 527 405 527 395 556.5 c 128,-1,16
 385 586 385 586 385 618 c 0,17,18
 385 685 385 685 413 730 c 128,-1,19
 441 775 441 775 487.5 798.5 c 128,-1,20
 534 822 534 822 588 822 c 0,21,22
 683 822 683 822 737.5 766.5 c 128,-1,23
 792 711 792 711 792 618 c 0,24,25
 792 584 792 584 782.5 555 c 128,-1,26
 773 526 773 526 756 501 c 0,27,28
 752 496 752 496 748.5 491 c 128,-1,29
 745 486 745 486 741 482 c 1,30,31
 816 461 816 461 886 419.5 c 128,-1,32
 956 378 956 378 1017.5 327 c 128,-1,33
 1079 276 1079 276 1127 226 c 1,34,-1
 1017 80 l 1,35,36
 1004 90 1004 90 981.5 107 c 128,-1,37
 959 124 959 124 946 133 c 0,38,39
 888 174 888 174 835.5 216.5 c 128,-1,40
 783 259 783 259 726 315 c 1,41,-1
 726 -63 l 1,42,-1
 451 -63 l 1,0,-1
501 -13 m 1,43,-1
 676 -13 l 1,44,-1
 676 344 l 2,45,46
 676 369 676 369 670 383.5 c 128,-1,47
 664 398 664 398 657.5 410.5 c 128,-1,48
 651 423 651 423 651 441 c 0,49,50
 651 461 651 461 662 474.5 c 128,-1,51
 673 488 673 488 688 501 c 0,52,53
 694 506 694 506 700.5 512.5 c 128,-1,54
 707 519 707 519 714 529 c 0,55,56
 727 548 727 548 734.5 570.5 c 128,-1,57
 742 593 742 593 742 618 c 0,58,59
 742 689 742 689 701 730.5 c 128,-1,60
 660 772 660 772 588 772 c 0,61,62
 522 772 522 772 478.5 732 c 128,-1,63
 435 692 435 692 435 618 c 0,64,65
 435 568 435 568 463 529 c 0,66,67
 469 521 469 521 475.5 514 c 128,-1,68
 482 507 482 507 489 501 c 0,69,70
 504 488 504 488 515 474.5 c 128,-1,71
 526 461 526 461 526 441 c 0,72,73
 526 424 526 424 520 411.5 c 128,-1,74
 514 399 514 399 507.5 384 c 128,-1,75
 501 369 501 369 501 344 c 2,76,-1
 501 -13 l 1,43,-1
354 293 m 1,77,78
 379 314 379 314 404 338 c 128,-1,79
 429 362 429 362 455 390 c 1,80,81
 460 404 460 404 467 416 c 128,-1,82
 474 428 474 428 474 440 c 1,83,84
 431 431 431 431 386 411 c 128,-1,85
 341 391 341 391 299 365 c 1,86,-1
 354 293 l 1,77,78
823 293 m 1,87,-1
 878 365 l 1,88,89
 835 391 835 391 791 411 c 128,-1,90
 747 431 747 431 703 440 c 1,91,92
 703 428 703 428 710 416 c 128,-1,93
 717 404 717 404 722 390 c 1,94,95
 748 362 748 362 773 338 c 128,-1,96
 798 314 798 314 823 293 c 1,87,-1
588 14 m 256,97,98
 565 14 565 14 549 39 c 128,-1,99
 533 64 533 64 533 100 c 0,100,101
 533 135 533 135 545 157 c 1,102,103
 533 180 533 180 533 214 c 256,104,105
 533 248 533 248 546 271 c 1,106,107
 533 295 533 295 533 328 c 0,108,109
 533 364 533 364 549 389.5 c 128,-1,110
 565 415 565 415 588 415 c 256,111,112
 611 415 611 415 627.5 389.5 c 128,-1,113
 644 364 644 364 644 328 c 0,114,115
 644 294 644 294 630 271 c 1,116,117
 644 248 644 248 644 214 c 256,118,119
 644 180 644 180 630 157 c 1,120,121
 644 134 644 134 644 100 c 0,122,123
 644 64 644 64 627.5 39 c 128,-1,124
 611 14 611 14 588 14 c 256,97,98
588 292 m 0,125,126
 604 292 604 292 604 333 c 0,127,128
 604 375 604 375 588 375 c 0,129,130
 573 375 573 375 573 333 c 0,131,132
 573 292 573 292 588 292 c 0,125,126
294 243 m 1,133,-1
 323 267 l 1,134,-1
 265 343 l 1,135,-1
 234 322 l 1,136,-1
 294 243 l 1,133,-1
883 243 m 1,137,-1
 942 322 l 1,138,-1
 911 343 l 1,139,-1
 853 267 l 1,140,-1
 883 243 l 1,137,-1
233 197 m 1,141,142
 241 202 241 202 248 207.5 c 128,-1,143
 255 213 255 213 262 219 c 1,144,-1
 203 298 l 1,145,-1
 174 274 l 1,146,-1
 233 197 l 1,141,142
944 197 m 1,147,-1
 1003 274 l 1,148,-1
 974 298 l 1,149,-1
 914 219 l 1,150,151
 922 213 922 213 929.5 207.5 c 128,-1,152
 937 202 937 202 944 197 c 1,147,-1
588 173 m 0,153,154
 604 173 604 173 604 214 c 0,155,156
 604 256 604 256 588 256 c 0,157,158
 573 256 573 256 573 214 c 0,159,160
 573 173 573 173 588 173 c 0,153,154
170 150 m 1,161,162
 177 156 177 156 185.5 161.5 c 128,-1,163
 194 167 194 167 201 172 c 1,164,-1
 143 248 l 1,165,-1
 116 222 l 1,166,-1
 170 150 l 1,161,162
1007 150 m 1,167,-1
 1061 222 l 1,168,-1
 1033 248 l 1,169,-1
 976 173 l 1,170,-1
 975 172 l 1,171,172
 988 164 988 164 991 162 c 128,-1,173
 994 160 994 160 1007 150 c 1,167,-1
588 54 m 0,174,175
 604 54 604 54 604 95 c 0,176,177
 604 137 604 137 588 137 c 0,178,179
 573 137 573 137 573 95 c 0,180,181
 573 54 573 54 588 54 c 0,174,175
EndSplineSet
EndChar

StartChar: u16827
Encoding: 131 92199 120
Width: 538
Flags: W
LayerCount: 2
Fore
SplineSet
247 -41 m 1,0,-1
 148 238 l 1,1,-1
 50 238 l 1,2,-1
 50 388 l 1,3,-1
 244 388 l 1,4,-1
 244 539 l 1,5,6
 202 547 202 547 174.5 580 c 128,-1,7
 147 613 147 613 147 658 c 0,8,9
 147 692 147 692 163 719.5 c 128,-1,10
 179 747 179 747 206.5 763.5 c 128,-1,11
 234 780 234 780 268 780 c 256,12,13
 302 780 302 780 329.5 763.5 c 128,-1,14
 357 747 357 747 373.5 719.5 c 128,-1,15
 390 692 390 692 390 658 c 0,16,17
 390 614 390 614 362.5 581 c 128,-1,18
 335 548 335 548 294 539 c 1,19,-1
 294 388 l 1,20,-1
 488 388 l 1,21,-1
 488 238 l 1,22,-1
 395 238 l 1,23,-1
 297 -41 l 1,24,-1
 247 -41 l 1,0,-1
268 587 m 256,25,26
 298 587 298 587 319 607.5 c 128,-1,27
 340 628 340 628 340 658 c 256,28,29
 340 688 340 688 319 709 c 128,-1,30
 298 730 298 730 268 730 c 256,31,32
 238 730 238 730 217.5 709 c 128,-1,33
 197 688 197 688 197 658 c 256,34,35
 197 628 197 628 217.5 607.5 c 128,-1,36
 238 587 238 587 268 587 c 256,25,26
100 288 m 1,37,-1
 438 288 l 1,38,-1
 438 338 l 1,39,-1
 100 338 l 1,40,-1
 100 288 l 1,37,-1
272 32 m 1,41,42
 277 53 277 53 284 74 c 128,-1,43
 291 95 291 95 297 112 c 2,44,-1
 342 238 l 1,45,-1
 202 238 l 1,46,-1
 248 109 l 2,47,48
 255 90 255 90 261 71 c 128,-1,49
 267 52 267 52 272 32 c 1,41,42
EndSplineSet
EndChar

StartChar: u16828
Encoding: 132 92200 121
Width: 862
Flags: W
LayerCount: 2
Fore
SplineSet
360 0 m 1,0,-1
 360 50 l 1,1,-1
 406 50 l 1,2,-1
 406 124 l 1,3,-1
 334 124 l 1,4,-1
 334 259 l 1,5,6
 324 263 324 263 315 268 c 128,-1,7
 306 273 306 273 297 279 c 1,8,-1
 213 159 l 1,9,-1
 220 148 l 1,10,-1
 278 146 l 1,11,-1
 278 106 l 1,12,-1
 226 108 l 1,13,14
 224 100 224 100 222 95 c 1,15,-1
 266 58 l 1,16,-1
 242 26 l 1,17,-1
 197 63 l 1,18,19
 192 59 192 59 185.5 57 c 128,-1,20
 179 55 179 55 172 53 c 1,21,-1
 169 4 l 1,22,-1
 129 6 l 1,23,-1
 132 58 l 1,24,25
 128 60 128 60 123.5 62.5 c 128,-1,26
 119 65 119 65 114 69 c 1,27,-1
 72 44 l 1,28,-1
 50 78 l 1,29,-1
 94 105 l 2,30,31
 93 108 93 108 93 111.5 c 128,-1,32
 93 115 93 115 93 119 c 0,33,34
 93 121 93 121 93 124 c 128,-1,35
 93 127 93 127 94 129 c 1,36,-1
 50 138 l 1,37,-1
 56 178 l 1,38,-1
 113 167 l 1,39,40
 120 174 120 174 128 178 c 1,41,-1
 106 217 l 1,42,-1
 142 235 l 1,43,-1
 170 185 l 1,44,-1
 258 310 l 1,45,46
 227 342 227 342 209 384 c 128,-1,47
 191 426 191 426 191 474 c 0,48,49
 191 539 191 539 223.5 592.5 c 128,-1,50
 256 646 256 646 310.5 678 c 128,-1,51
 365 710 365 710 431 710 c 0,52,53
 498 710 498 710 552.5 678 c 128,-1,54
 607 646 607 646 639.5 592.5 c 128,-1,55
 672 539 672 539 672 474 c 0,56,57
 672 426 672 426 654 384 c 128,-1,58
 636 342 636 342 604 310 c 1,59,-1
 692 184 l 1,60,-1
 720 235 l 1,61,-1
 756 217 l 1,62,-1
 734 178 l 1,63,64
 738 176 738 176 741.5 173 c 128,-1,65
 745 170 745 170 749 167 c 2,66,-1
 806 178 l 1,67,-1
 812 138 l 1,68,-1
 768 129 l 2,69,70
 768 127 768 127 768.5 124 c 128,-1,71
 769 121 769 121 769 119 c 0,72,73
 769 113 769 113 767 105 c 1,74,-1
 812 78 l 1,75,-1
 790 44 l 1,76,-1
 747 69 l 1,77,78
 743 65 743 65 738.5 62.5 c 128,-1,79
 734 60 734 60 729 58 c 1,80,-1
 733 6 l 1,81,-1
 693 4 l 1,82,-1
 689 53 l 1,83,84
 675 56 675 56 664 63 c 1,85,-1
 620 26 l 1,86,-1
 596 58 l 1,87,-1
 639 95 l 2,88,89
 638 98 638 98 637 101 c 128,-1,90
 636 104 636 104 636 108 c 1,91,-1
 584 106 l 1,92,-1
 584 146 l 1,93,-1
 641 148 l 1,94,-1
 648 159 l 1,95,-1
 565 278 l 1,96,97
 556 273 556 273 547 268 c 128,-1,98
 538 263 538 263 529 259 c 1,99,-1
 529 124 l 1,100,-1
 456 124 l 1,101,-1
 456 50 l 1,102,-1
 503 50 l 1,103,-1
 503 0 l 1,104,-1
 360 0 l 1,0,-1
490 615 m 1,105,-1
 507 644 l 1,106,107
 480 656 480 656 451 659 c 1,108,-1
 451 626 l 1,109,110
 470 623 470 623 490 615 c 1,105,-1
371 615 m 1,111,112
 381 619 381 619 391 622 c 128,-1,113
 401 625 401 625 411 626 c 1,114,-1
 411 659 l 1,115,116
 380 656 380 656 355 644 c 1,117,-1
 371 615 l 1,111,112
556 566 m 1,118,-1
 585 583 l 1,119,120
 576 595 576 595 565 606 c 128,-1,121
 554 617 554 617 541 625 c 1,122,-1
 525 596 l 1,123,124
 533 590 533 590 541 582.5 c 128,-1,125
 549 575 549 575 556 566 c 1,118,-1
306 566 m 1,126,127
 313 574 313 574 320.5 582 c 128,-1,128
 328 590 328 590 337 596 c 1,129,-1
 320 625 l 1,130,131
 308 616 308 616 297 605.5 c 128,-1,132
 286 595 286 595 277 583 c 1,133,-1
 306 566 l 1,126,127
375 383 m 1,134,-1
 406 383 l 1,135,-1
 406 414 l 1,136,137
 389 421 389 421 378.5 436.5 c 128,-1,138
 368 452 368 452 368 472 c 0,139,140
 368 499 368 499 386 517.5 c 128,-1,141
 404 536 404 536 431 536 c 256,142,143
 458 536 458 536 476.5 517.5 c 128,-1,144
 495 499 495 499 495 472 c 0,145,146
 495 452 495 452 484 436.5 c 128,-1,147
 473 421 473 421 456 414 c 1,148,-1
 456 383 l 1,149,-1
 487 383 l 1,150,151
 510 397 510 397 524 420.5 c 128,-1,152
 538 444 538 444 538 473 c 0,153,154
 538 517 538 517 506.5 547 c 128,-1,155
 475 577 475 577 431 577 c 256,156,157
 387 577 387 577 356 547 c 128,-1,158
 325 517 325 517 325 473 c 0,159,160
 325 444 325 444 339 420.5 c 128,-1,161
 353 397 353 397 375 383 c 1,134,-1
587 491 m 1,162,-1
 621 491 l 1,163,164
 620 506 620 506 616 521 c 128,-1,165
 612 536 612 536 605 549 c 1,166,-1
 576 532 l 1,167,168
 584 511 584 511 587 491 c 1,162,-1
242 491 m 1,169,-1
 276 491 l 1,170,171
 277 502 277 502 279.5 512 c 128,-1,172
 282 522 282 522 286 532 c 1,173,-1
 257 549 l 1,174,175
 245 522 245 522 242 491 c 1,169,-1
603 393 m 1,176,177
 617 421 617 421 620 451 c 1,178,-1
 586 451 l 1,179,180
 583 430 583 430 574 410 c 1,181,-1
 603 393 l 1,176,177
259 393 m 1,182,-1
 288 410 l 1,183,184
 284 420 284 420 281 430 c 128,-1,185
 278 440 278 440 276 451 c 1,186,-1
 242 451 l 1,187,188
 244 435 244 435 248.5 421 c 128,-1,189
 253 407 253 407 259 393 c 1,182,-1
529 315 m 1,190,191
 559 331 559 331 581 360 c 1,192,-1
 553 376 l 1,193,194
 543 363 543 363 529 352 c 1,195,-1
 529 315 l 1,190,191
334 314 m 1,196,-1
 334 352 l 1,197,198
 327 357 327 357 320.5 363 c 128,-1,199
 314 369 314 369 309 376 c 1,200,-1
 281 360 l 1,201,202
 301 333 301 333 334 314 c 1,196,-1
384 174 m 1,203,-1
 406 174 l 1,204,-1
 406 333 l 1,205,-1
 384 333 l 1,206,-1
 384 174 l 1,203,-1
456 174 m 1,207,-1
 479 174 l 1,208,-1
 479 333 l 1,209,-1
 456 333 l 1,210,-1
 456 174 l 1,207,-1
161 88 m 0,211,212
 173 88 173 88 182 97 c 128,-1,213
 191 106 191 106 191 118 c 0,214,215
 191 131 191 131 182 140 c 128,-1,216
 173 149 173 149 161 149 c 0,217,218
 148 149 148 149 139 140 c 128,-1,219
 130 131 130 131 130 118 c 0,220,221
 130 106 130 106 139 97 c 128,-1,222
 148 88 148 88 161 88 c 0,211,212
701 88 m 0,223,224
 714 88 714 88 723 97 c 128,-1,225
 732 106 732 106 732 118 c 0,226,227
 732 131 732 131 723 140 c 128,-1,228
 714 149 714 149 701 149 c 0,229,230
 689 149 689 149 680 140 c 128,-1,231
 671 131 671 131 671 118 c 0,232,233
 671 106 671 106 680 97 c 128,-1,234
 689 88 689 88 701 88 c 0,223,224
164 99 m 256,235,236
 148 99 148 99 148 115 c 256,237,238
 148 131 148 131 164 131 c 256,239,240
 180 131 180 131 180 115 c 256,241,242
 180 99 180 99 164 99 c 256,235,236
698 99 m 256,243,244
 682 99 682 99 682 115 c 256,245,246
 682 131 682 131 698 131 c 256,247,248
 714 131 714 131 714 115 c 256,249,250
 714 99 714 99 698 99 c 256,243,244
EndSplineSet
EndChar

StartChar: u16829
Encoding: 133 92201 122
Width: 789
Flags: W
LayerCount: 2
Fore
SplineSet
90 0 m 1,0,-1
 90 621 l 1,1,-1
 288 621 l 1,2,3
 290 683 290 683 316 723.5 c 128,-1,4
 342 764 342 764 394 764 c 0,5,6
 430 764 430 764 453 744 c 128,-1,7
 476 724 476 724 487.5 691.5 c 128,-1,8
 499 659 499 659 500 621 c 1,9,-1
 699 621 l 1,10,-1
 699 0 l 1,11,-1
 90 0 l 1,0,-1
338 621 m 1,12,-1
 450 621 l 1,13,14
 449 659 449 659 435.5 686.5 c 128,-1,15
 422 714 422 714 394 714 c 0,16,17
 367 714 367 714 353.5 688 c 128,-1,18
 340 662 340 662 338 621 c 1,12,-1
288 368 m 1,19,-1
 288 571 l 1,20,-1
 165 571 l 1,21,-1
 288 368 l 1,19,-1
338 50 m 1,22,-1
 450 50 l 1,23,-1
 450 571 l 1,24,-1
 338 571 l 1,25,-1
 338 50 l 1,22,-1
500 367 m 1,26,-1
 624 571 l 1,27,-1
 500 571 l 1,28,-1
 500 367 l 1,26,-1
140 122 m 1,29,30
 169 172 169 172 199.5 222.5 c 128,-1,31
 230 273 230 273 259 322 c 1,32,-1
 140 517 l 1,33,-1
 140 122 l 1,29,30
649 122 m 1,34,-1
 649 517 l 1,35,-1
 530 322 l 1,36,37
 559 273 559 273 589 222.5 c 128,-1,38
 619 172 619 172 649 122 c 1,34,-1
500 50 m 1,39,-1
 632 50 l 1,40,-1
 500 273 l 1,41,-1
 500 50 l 1,39,-1
156 50 m 1,42,-1
 288 50 l 1,43,-1
 288 272 l 1,44,-1
 156 50 l 1,42,-1
EndSplineSet
EndChar

StartChar: u1682A
Encoding: 134 92202 123
Width: 742
Flags: W
LayerCount: 2
Fore
SplineSet
372 -37 m 256,0,1
 322 -37 322 -37 280.5 -5 c 128,-1,2
 239 27 239 27 214 80.5 c 128,-1,3
 189 134 189 134 189 200 c 0,4,5
 189 208 189 208 189 213.5 c 128,-1,6
 189 219 189 219 190 226 c 1,7,8
 161 211 161 211 135 190.5 c 128,-1,9
 109 170 109 170 94 155 c 1,10,-1
 50 155 l 1,11,-1
 50 206 l 2,12,13
 50 310 50 310 82.5 398 c 128,-1,14
 115 486 115 486 171.5 547.5 c 128,-1,15
 228 609 228 609 299 631 c 1,16,17
 286 652 286 652 286 678 c 0,18,19
 286 714 286 714 311 739 c 128,-1,20
 336 764 336 764 372 764 c 256,21,22
 408 764 408 764 433 739 c 128,-1,23
 458 714 458 714 458 678 c 0,24,25
 458 651 458 651 444 631 c 1,26,27
 516 609 516 609 572 547.5 c 128,-1,28
 628 486 628 486 660 398 c 128,-1,29
 692 310 692 310 692 206 c 2,30,-1
 692 155 l 1,31,-1
 648 155 l 1,32,33
 633 170 633 170 607 190.5 c 128,-1,34
 581 211 581 211 552 226 c 1,35,36
 553 218 553 218 553 213 c 128,-1,37
 553 208 553 208 553 200 c 0,38,39
 553 134 553 134 528.5 80.5 c 128,-1,40
 504 27 504 27 463 -5 c 128,-1,41
 422 -37 422 -37 372 -37 c 256,0,1
372 642 m 256,42,43
 387 642 387 642 397.5 652.5 c 128,-1,44
 408 663 408 663 408 678 c 256,45,46
 408 693 408 693 397.5 703.5 c 128,-1,47
 387 714 387 714 372 714 c 256,48,49
 357 714 357 714 346.5 703.5 c 128,-1,50
 336 693 336 693 336 678 c 256,51,52
 336 663 336 663 346.5 652.5 c 128,-1,53
 357 642 357 642 372 642 c 256,42,43
372 13 m 256,54,55
 408 13 408 13 438 38 c 128,-1,56
 468 63 468 63 485.5 105.5 c 128,-1,57
 503 148 503 148 503 200 c 0,58,59
 503 229 503 229 500 251.5 c 128,-1,60
 497 274 497 274 489 305 c 1,61,62
 540 291 540 291 579 268 c 128,-1,63
 618 245 618 245 642 225 c 1,64,65
 639 302 639 302 617.5 368.5 c 128,-1,66
 596 435 596 435 559 485.5 c 128,-1,67
 522 536 522 536 474.5 564 c 128,-1,68
 427 592 427 592 372 592 c 0,69,70
 316 592 316 592 267.5 564 c 128,-1,71
 219 536 219 536 182.5 486 c 128,-1,72
 146 436 146 436 124.5 369.5 c 128,-1,73
 103 303 103 303 100 225 c 1,74,75
 124 245 124 245 163 268 c 128,-1,76
 202 291 202 291 253 305 c 1,77,78
 245 274 245 274 242 251.5 c 128,-1,79
 239 229 239 229 239 200 c 0,80,81
 239 148 239 148 257.5 105.5 c 128,-1,82
 276 63 276 63 306 38 c 128,-1,83
 336 13 336 13 372 13 c 256,54,55
EndSplineSet
EndChar

StartChar: u1682B
Encoding: 135 92203 124
Width: 696
Flags: W
LayerCount: 2
Fore
SplineSet
90 -10 m 1,0,-1
 90 603 l 1,1,-1
 292 680 l 1,2,3
 270 702 270 702 270 735 c 256,4,5
 270 768 270 768 292.5 791 c 128,-1,6
 315 814 315 814 348 814 c 256,7,8
 381 814 381 814 404 791 c 128,-1,9
 427 768 427 768 427 735 c 0,10,11
 427 703 427 703 404 680 c 1,12,-1
 606 603 l 1,13,-1
 606 -10 l 1,14,-1
 559 -10 l 1,15,-1
 348 70 l 1,16,-1
 137 -10 l 1,17,-1
 90 -10 l 1,0,-1
348 703 m 0,18,19
 362 703 362 703 371.5 712.5 c 128,-1,20
 381 722 381 722 381 735 c 0,21,22
 381 749 381 749 371.5 758.5 c 128,-1,23
 362 768 362 768 348 768 c 0,24,25
 335 768 335 768 325.5 758.5 c 128,-1,26
 316 749 316 749 316 735 c 0,27,28
 316 722 316 722 325.5 712.5 c 128,-1,29
 335 703 335 703 348 703 c 0,18,19
140 43 m 1,30,-1
 323 114 l 1,31,-1
 323 257 l 1,32,-1
 197 209 l 1,33,-1
 197 262 l 1,34,-1
 323 310 l 1,35,-1
 323 354 l 1,36,-1
 197 306 l 1,37,-1
 197 359 l 1,38,-1
 323 407 l 1,39,-1
 323 451 l 1,40,-1
 197 403 l 1,41,-1
 197 456 l 1,42,-1
 323 504 l 1,43,-1
 323 640 l 1,44,-1
 140 569 l 1,45,-1
 140 43 l 1,30,-1
556 43 m 1,46,-1
 556 569 l 1,47,-1
 373 640 l 1,48,-1
 373 504 l 1,49,-1
 499 456 l 1,50,-1
 499 403 l 1,51,-1
 373 451 l 1,52,-1
 373 407 l 1,53,-1
 499 359 l 1,54,-1
 499 306 l 1,55,-1
 373 354 l 1,56,-1
 373 310 l 1,57,-1
 499 262 l 1,58,-1
 499 209 l 1,59,-1
 373 257 l 1,60,-1
 373 114 l 1,61,-1
 556 43 l 1,46,-1
EndSplineSet
EndChar

StartChar: u1682C
Encoding: 136 92204 125
Width: 588
Flags: W
LayerCount: 2
Fore
SplineSet
62 0 m 1,0,-1
 62 35 l 1,1,-1
 101 94 l 2,2,3
 138 150 138 150 170.5 208 c 128,-1,4
 203 266 203 266 205 327 c 1,5,-1
 163 327 l 2,6,7
 116 327 116 327 83 360 c 128,-1,8
 50 393 50 393 50 440 c 256,9,10
 50 487 50 487 83 520 c 128,-1,11
 116 553 116 553 163 553 c 2,12,-1
 177 553 l 1,13,14
 179 608 179 608 194 642.5 c 128,-1,15
 209 677 209 677 237 718 c 1,16,-1
 279 690 l 1,17,18
 256 655 256 655 242.5 626 c 128,-1,19
 229 597 229 597 227 553 c 1,20,-1
 259 553 l 1,21,22
 270 591 270 591 303 622.5 c 128,-1,23
 336 654 336 654 396 654 c 0,24,25
 458 654 458 654 498 613.5 c 128,-1,26
 538 573 538 573 538 503 c 1,27,-1
 488 503 l 1,28,29
 488 525 488 525 480 548.5 c 128,-1,30
 472 572 472 572 452.5 588 c 128,-1,31
 433 604 433 604 396 604 c 0,32,33
 366 604 366 604 346 588.5 c 128,-1,34
 326 573 326 573 315.5 549.5 c 128,-1,35
 305 526 305 526 303 503 c 1,36,-1
 228 503 l 1,37,38
 230 485 230 485 233.5 469 c 128,-1,39
 237 453 237 453 240 438 c 256,40,41
 243 423 243 423 246.5 408 c 128,-1,42
 250 393 250 393 252 377 c 1,43,-1
 303 377 l 1,44,45
 305 354 305 354 315.5 330.5 c 128,-1,46
 326 307 326 307 346 291.5 c 128,-1,47
 366 276 366 276 396 276 c 0,48,49
 433 276 433 276 452.5 292 c 128,-1,50
 472 308 472 308 480 331.5 c 128,-1,51
 488 355 488 355 488 377 c 1,52,-1
 538 377 l 1,53,54
 538 307 538 307 498 266.5 c 128,-1,55
 458 226 458 226 396 226 c 0,56,57
 336 226 336 226 303 258 c 128,-1,58
 270 290 270 290 259 327 c 1,59,-1
 255 327 l 1,60,61
 254 294 254 294 244 261.5 c 128,-1,62
 234 229 234 229 220 198 c 1,63,-1
 334 35 l 1,64,-1
 334 0 l 1,65,-1
 62 0 l 1,0,-1
163 377 m 2,66,-1
 202 377 l 1,67,-1
 192 426 l 2,68,69
 188 444 188 444 184 462.5 c 128,-1,70
 180 481 180 481 178 503 c 1,71,-1
 163 503 l 2,72,73
 137 503 137 503 118.5 484.5 c 128,-1,74
 100 466 100 466 100 440 c 256,75,76
 100 414 100 414 118.5 395.5 c 128,-1,77
 137 377 137 377 163 377 c 2,66,-1
132 50 m 1,78,-1
 263 50 l 1,79,-1
 194 147 l 1,80,81
 182 125 182 125 169 105 c 128,-1,82
 156 85 156 85 143 66 c 2,83,-1
 132 50 l 1,78,-1
EndSplineSet
EndChar

StartChar: u1682D
Encoding: 137 92205 126
Width: 724
Flags: W
LayerCount: 2
Fore
SplineSet
112 -10 m 0,0,1
 79 -10 79 -10 64.5 9.5 c 128,-1,2
 50 29 50 29 50 48 c 0,3,4
 50 93 50 93 90 122 c 128,-1,5
 130 151 130 151 187 167 c 1,6,7
 192 194 192 194 194.5 226.5 c 128,-1,8
 197 259 197 259 197 296 c 256,9,10
 197 333 197 333 194.5 365 c 128,-1,11
 192 397 192 397 187 424 c 1,12,13
 130 440 130 440 90 468.5 c 128,-1,14
 50 497 50 497 50 543 c 0,15,16
 50 563 50 563 64.5 582 c 128,-1,17
 79 601 79 601 112 601 c 0,18,19
 152 601 152 601 181.5 564.5 c 128,-1,20
 211 528 211 528 228 464 c 1,21,22
 258 458 258 458 292.5 455 c 128,-1,23
 327 452 327 452 362 452 c 256,24,25
 397 452 397 452 431 455 c 128,-1,26
 465 458 465 458 496 464 c 1,27,28
 513 528 513 528 542.5 564.5 c 128,-1,29
 572 601 572 601 612 601 c 0,30,31
 645 601 645 601 659.5 582 c 128,-1,32
 674 563 674 563 674 543 c 0,33,34
 674 497 674 497 634 468.5 c 128,-1,35
 594 440 594 440 537 424 c 1,36,37
 533 402 533 402 530.5 377 c 128,-1,38
 528 352 528 352 527 323 c 1,39,-1
 643 323 l 1,40,-1
 643 273 l 1,41,-1
 527 273 l 1,42,43
 528 243 528 243 530.5 216.5 c 128,-1,44
 533 190 533 190 537 167 c 1,45,46
 594 151 594 151 634 122 c 128,-1,47
 674 93 674 93 674 48 c 0,48,49
 674 29 674 29 659.5 9.5 c 128,-1,50
 645 -10 645 -10 612 -10 c 0,51,52
 572 -10 572 -10 542.5 26.5 c 128,-1,53
 513 63 513 63 496 127 c 1,54,55
 465 132 465 132 431 135.5 c 128,-1,56
 397 139 397 139 362 139 c 256,57,58
 327 139 327 139 292.5 135.5 c 128,-1,59
 258 132 258 132 228 127 c 1,60,61
 211 63 211 63 181.5 26.5 c 128,-1,62
 152 -10 152 -10 112 -10 c 0,0,1
174 477 m 1,63,64
 149 551 149 551 114 551 c 0,65,66
 107 551 107 551 103.5 546 c 128,-1,67
 100 541 100 541 100 534 c 0,68,69
 100 517 100 517 120 502.5 c 128,-1,70
 140 488 140 488 174 477 c 1,63,64
550 477 m 1,71,72
 583 488 583 488 603.5 502.5 c 128,-1,73
 624 517 624 517 624 534 c 0,74,75
 624 541 624 541 621 546 c 128,-1,76
 618 551 618 551 610 551 c 0,77,78
 575 551 575 551 550 477 c 1,71,72
238 178 m 1,79,80
 270 184 270 184 302 186.5 c 128,-1,81
 334 189 334 189 362 189 c 0,82,83
 391 189 391 189 422.5 186.5 c 128,-1,84
 454 184 454 184 485 178 c 1,85,86
 482 200 482 200 480 224 c 128,-1,87
 478 248 478 248 477 273 c 1,88,-1
 363 273 l 1,89,-1
 363 323 l 1,90,-1
 477 323 l 1,91,92
 478 347 478 347 480 369.5 c 128,-1,93
 482 392 482 392 485 412 c 1,94,95
 454 407 454 407 422.5 404.5 c 128,-1,96
 391 402 391 402 362 402 c 0,97,98
 334 402 334 402 302 404.5 c 128,-1,99
 270 407 270 407 238 412 c 1,100,101
 247 360 247 360 247 296 c 256,102,103
 247 232 247 232 238 178 c 1,79,80
114 40 m 0,104,105
 150 40 150 40 174 114 c 1,106,107
 140 104 140 104 120 89 c 128,-1,108
 100 74 100 74 100 57 c 0,109,110
 100 50 100 50 103.5 45 c 128,-1,111
 107 40 107 40 114 40 c 0,104,105
610 40 m 0,112,113
 618 40 618 40 621 45 c 128,-1,114
 624 50 624 50 624 57 c 0,115,116
 624 74 624 74 603.5 89 c 128,-1,117
 583 104 583 104 550 114 c 1,118,119
 561 77 561 77 577.5 58.5 c 128,-1,120
 594 40 594 40 610 40 c 0,112,113
EndSplineSet
EndChar

StartChar: u1682E
Encoding: 138 92206 127
Width: 537
Flags: W
LayerCount: 2
Fore
SplineSet
251 -12 m 1,0,-1
 51 144 l 1,1,-1
 81 184 l 1,2,-1
 243 56 l 1,3,-1
 243 437 l 1,4,5
 200 403 200 403 163.5 373.5 c 128,-1,6
 127 344 127 344 80 308 c 1,7,-1
 50 348 l 1,8,-1
 197 463 l 1,9,10
 161 482 161 482 139.5 517.5 c 128,-1,11
 118 553 118 553 118 596 c 0,12,13
 118 638 118 638 138 672 c 128,-1,14
 158 706 158 706 192 726.5 c 128,-1,15
 226 747 226 747 268 747 c 256,16,17
 310 747 310 747 344.5 726.5 c 128,-1,18
 379 706 379 706 399 672 c 128,-1,19
 419 638 419 638 419 596 c 0,20,21
 419 553 419 553 396.5 517.5 c 128,-1,22
 374 482 374 482 339 463 c 1,23,-1
 487 348 l 1,24,-1
 457 308 l 1,25,-1
 293 436 l 1,26,-1
 293 56 l 1,27,-1
 457 185 l 1,28,-1
 487 145 l 1,29,-1
 286 -12 l 1,30,-1
 251 -12 l 1,0,-1
268 496 m 256,31,32
 310 496 310 496 339.5 525 c 128,-1,33
 369 554 369 554 369 596 c 256,34,35
 369 638 369 638 339.5 667.5 c 128,-1,36
 310 697 310 697 268 697 c 256,37,38
 226 697 226 697 197 667.5 c 128,-1,39
 168 638 168 638 168 596 c 256,40,41
 168 554 168 554 197 525 c 128,-1,42
 226 496 226 496 268 496 c 256,31,32
EndSplineSet
EndChar

StartChar: u1682F
Encoding: 139 92207 128
Width: 740
Flags: W
LayerCount: 2
Fore
SplineSet
221 -10 m 0,0,1
 178 -10 178 -10 139 10.5 c 128,-1,2
 100 31 100 31 75 74.5 c 128,-1,3
 50 118 50 118 50 187 c 1,4,-1
 100 187 l 1,5,6
 100 120 100 120 133 80 c 128,-1,7
 166 40 166 40 221 40 c 0,8,9
 271 40 271 40 307 76 c 128,-1,10
 343 112 343 112 343 185 c 2,11,-1
 343 202 l 1,12,13
 302 208 302 208 268.5 232 c 128,-1,14
 235 256 235 256 216 292.5 c 128,-1,15
 197 329 197 329 197 372 c 256,16,17
 197 415 197 415 216 451.5 c 128,-1,18
 235 488 235 488 268.5 512 c 128,-1,19
 302 536 302 536 343 542 c 1,20,-1
 343 555 l 2,21,22
 343 623 343 623 369 665.5 c 128,-1,23
 395 708 395 708 434.5 728.5 c 128,-1,24
 474 749 474 749 514 749 c 0,25,26
 566 749 566 749 605.5 723.5 c 128,-1,27
 645 698 645 698 667.5 651.5 c 128,-1,28
 690 605 690 605 690 543 c 1,29,-1
 640 543 l 1,30,31
 640 616 640 616 604 657.5 c 128,-1,32
 568 699 568 699 514 699 c 0,33,34
 464 699 464 699 428.5 663 c 128,-1,35
 393 627 393 627 393 555 c 2,36,-1
 393 542 l 1,37,38
 435 536 435 536 468 512 c 128,-1,39
 501 488 501 488 520.5 451.5 c 128,-1,40
 540 415 540 415 540 372 c 256,41,42
 540 329 540 329 520.5 292.5 c 128,-1,43
 501 256 501 256 468 232 c 128,-1,44
 435 208 435 208 393 202 c 1,45,-1
 393 188 l 2,46,47
 393 119 393 119 368.5 75.5 c 128,-1,48
 344 32 344 32 305 11 c 128,-1,49
 266 -10 266 -10 221 -10 c 0,0,1
343 253 m 1,50,-1
 343 491 l 1,51,52
 302 483 302 483 274.5 449.5 c 128,-1,53
 247 416 247 416 247 372 c 256,54,55
 247 328 247 328 274.5 295 c 128,-1,56
 302 262 302 262 343 253 c 1,50,-1
393 253 m 1,57,58
 434 262 434 262 462 295 c 128,-1,59
 490 328 490 328 490 372 c 256,60,61
 490 416 490 416 462 449.5 c 128,-1,62
 434 483 434 483 393 491 c 1,63,-1
 393 253 l 1,57,58
EndSplineSet
EndChar

StartChar: u16830
Encoding: 140 92208 129
Width: 706
Flags: W
LayerCount: 2
Fore
SplineSet
72 -49 m 1,0,-1
 50 -20 l 1,1,-1
 280 253 l 1,2,-1
 72 191 l 1,3,-1
 50 220 l 1,4,-1
 280 493 l 1,5,-1
 72 431 l 1,6,-1
 50 460 l 1,7,-1
 328 792 l 1,8,-1
 378 792 l 1,9,-1
 656 460 l 1,10,-1
 634 431 l 1,11,-1
 426 493 l 1,12,-1
 656 220 l 1,13,-1
 634 191 l 1,14,-1
 426 253 l 1,15,-1
 656 -20 l 1,16,-1
 634 -49 l 1,17,-1
 353 35 l 1,18,-1
 72 -49 l 1,0,-1
550 509 m 1,19,-1
 378 712 l 1,20,-1
 378 559 l 1,21,-1
 550 509 l 1,19,-1
156 509 m 1,22,-1
 328 559 l 1,23,-1
 328 711 l 1,24,-1
 156 509 l 1,22,-1
156 269 m 1,25,-1
 328 319 l 1,26,-1
 328 472 l 1,27,-1
 156 269 l 1,25,-1
550 269 m 1,28,-1
 378 470 l 1,29,-1
 378 319 l 1,30,-1
 550 269 l 1,28,-1
156 29 m 1,31,-1
 328 79 l 1,32,-1
 328 232 l 1,33,-1
 156 29 l 1,31,-1
550 29 m 1,34,-1
 378 230 l 1,35,-1
 378 79 l 1,36,-1
 550 29 l 1,34,-1
EndSplineSet
EndChar

